<?xml version="1.0" encoding="utf-8"?>
<!-- Generator: Adobe Illustrator 24.0.1, SVG Export Plug-In . SVG Version: 6.00 Build 0)  -->
<svg version="1.1" id="Layer_1" xmlns="http://www.w3.org/2000/svg" xmlns:xlink="http://www.w3.org/1999/xlink" x="0px" y="0px"
	 viewBox="0 0 346.3 193.7" style="enable-background:new 0 0 346.3 193.7;" xml:space="preserve">
<style type="text/css">
	.st0{fill:#01303F;}
	.st1{fill:#FFFFFF;}
	.st2{fill:#02577A;}
</style>
<g>
	<path class="st0" d="M343.8,170.6c-1.6,0-2.9-1.3-2.9-2.9c0-1.6,1.3-2.9,2.9-2.9c1.6,0,2.9,1.3,2.9,2.9
		C346.7,169.3,345.4,170.6,343.8,170.6 M343.8,165.3c-1.3,0-2.3,1.1-2.3,2.3c0,1.3,1.1,2.3,2.3,2.3s2.3-1.1,2.3-2.3
		C346.1,166.4,345.1,165.3,343.8,165.3 M345.3,169.2h-0.7l-0.6-1.1h-0.8v1.1h-0.6V166h1.5c0.7,0,1.1,0.4,1.1,1.1
		c0,0.5-0.3,0.8-0.7,1L345.3,169.2z M344.1,167.5c0.2,0,0.5-0.1,0.5-0.5c0-0.4-0.2-0.5-0.5-0.5h-1v1H344.1L344.1,167.5z"/>
	<polygon class="st0" points="39.7,164.5 47.2,164.5 47.2,184.8 60.2,184.8 60.2,191.3 39.7,191.3 	"/>
	<path class="st0" d="M67.9,178L67.9,178c0-7.8,6.2-14.1,14.5-14.1s14.4,6.2,14.4,13.9v0.1c0,7.7-6.2,14-14.5,14
		S67.9,185.7,67.9,178 M89.2,178L89.2,178c0-4-2.8-7.3-6.9-7.3c-4.1,0-6.8,3.3-6.8,7.2v0.1c0,3.9,2.8,7.2,6.8,7.2
		C86.5,185.1,89.2,181.8,89.2,178"/>
	<path class="st0" d="M105.9,179.5v-15.1h7.6v14.9c0,3.9,2,5.7,4.9,5.7c3,0,4.9-1.8,4.9-5.5v-15.1h7.6v14.9
		c0,8.7-4.9,12.4-12.6,12.4C110.7,191.8,105.9,188,105.9,179.5"/>
	<path class="st0" d="M142.3,164.5h10.3c9.6,0,15.2,5.5,15.2,13.3v0.1c0,7.8-5.6,13.5-15.3,13.5h-10.2L142.3,164.5L142.3,164.5z
		 M152.7,184.7c4.4,0,7.4-2.4,7.4-6.8v-0.1c0-4.3-3-6.8-7.4-6.8h-3v13.6L152.7,184.7L152.7,184.7z"/>
	<polygon class="st0" points="178.6,164.5 200.1,164.5 200.1,171 186,171 186,175.6 198.7,175.6 198.7,181.7 186,181.7 186,191.3 
		178.6,191.3 	"/>
	<polygon class="st0" points="210.4,164.5 217.8,164.5 217.8,184.8 230.8,184.8 230.8,191.3 210.4,191.3 	"/>
	<path class="st0" d="M250.2,164.3h7.2l11.4,27h-8l-2-4.8h-10.3l-1.9,4.8h-7.8L250.2,164.3z M256.8,180.7l-3-7.6l-3,7.6H256.8z"/>
	<path class="st0" d="M278.4,164.5h12.7c4.1,0,6.9,1.1,8.8,2.9c1.6,1.5,2.4,3.6,2.4,6.3v0.1c0,4.1-2.2,6.8-5.5,8.2l6.4,9.4h-8.6
		l-5.4-8.1h-3.3v8.1h-7.5V164.5L278.4,164.5z M290.8,177.3c2.5,0,4-1.2,4-3.2v-0.1c0-2.1-1.5-3.2-4-3.2h-4.9v6.4H290.8L290.8,177.3z
		"/>
	<polygon class="st0" points="313,164.5 334.5,164.5 334.5,170.8 320.3,170.8 320.3,174.9 333.2,174.9 333.2,180.7 320.3,180.7 
		320.3,185 334.7,185 334.7,191.3 313,191.3 	"/>
	<path class="st0" d="M23.5,181.1c-1.1,2.3-3.3,4-6.1,4c-4.1,0-6.8-3.4-6.8-7.2v-0.1c0-3.9,2.7-7.2,6.8-7.2c3.1,0,5.4,1.9,6.4,4.4
		h7.8c-1.2-6.4-6.9-11.1-14.2-11.1c-8.3,0-14.5,6.3-14.5,14v0.1c0,7.7,6.1,13.9,14.4,13.9c7.1,0,12.6-4.6,14.1-10.7L23.5,181.1
		L23.5,181.1z"/>
	<g>
		<polygon class="st1" points="313.9,94.6 271,70 263.6,66.8 88.1,68 88.1,157.1 313.9,157.1 		"/>
		<path class="st0" d="M235.8,148.9c2.1-7.2,1.3-13.8-2.2-18.7c-3.2-4.5-8.6-7.1-15.1-7.4l-123.1-1.6c-0.8,0-1.5-0.4-1.9-1
			s-0.5-1.4-0.3-2.2c0.4-1.2,1.6-2.1,2.9-2.2l124.2-1.6c14.7-0.7,30.7-12.6,36.3-27.2l7.1-18.5c0.3-0.8,0.4-1.6,0.2-2.4
			c-8-36.2-40.3-63.2-78.9-63.2c-35.6,0-65.8,23-76.6,54.9c-7-5.2-15.9-8-25.5-7.1c-17.1,1.7-30.8,15.4-32.5,32.5
			c-0.4,4.4-0.1,8.7,0.9,12.7c-27.9,0.8-50.2,23.6-50.2,51.7c0,2.5,0.2,5,0.5,7.5c0.2,1.2,1.2,2.1,2.4,2.1h227.2
			c1.3,0,2.5-0.9,2.9-2.2L235.8,148.9z"/>
		<path class="st2" d="M275,69.8c-1.1,0-2.3,0-3.4,0.1c-0.8,0-1.5,0.6-1.8,1.4L265,88c-2.1,7.2-1.3,13.8,2.2,18.7
			c3.2,4.5,8.6,7.1,15.1,7.4l26.2,1.6c0.8,0,1.5,0.4,1.9,1s0.5,1.5,0.3,2.2c-0.4,1.2-1.6,2.1-2.9,2.2l-27.3,1.6
			c-14.8,0.7-30.7,12.6-36.3,27.2l-2,5.1c-0.4,1,0.3,2,1.4,2h93.8c1.1,0,2.1-0.7,2.4-1.8c1.6-5.8,2.5-11.9,2.5-18.2
			C342.3,100,312.1,69.8,275,69.8"/>
	</g>
</g>
</svg>
