<?xml version="1.0" encoding="utf-8"?>
<!-- Generator: Adobe Illustrator 25.0.1, SVG Export Plug-In . SVG Version: 6.00 Build 0)  -->
<svg version="1.1" id="Layer_1" xmlns="http://www.w3.org/2000/svg" xmlns:xlink="http://www.w3.org/1999/xlink" x="0px" y="0px"
	 viewBox="0 0 240.5 330.9" style="enable-background:new 0 0 240.5 330.9;" xml:space="preserve">
<style type="text/css">
	.st0{fill:#01303F;}
</style>
<g>
	<path class="st0" d="M11.8,111.7c-4-1.8-7.5-3.3-10.4-4.3c-0.6-4.5-1-9-1.3-13.5c-0.2-3.7-0.1-7.4,0.4-11c2.4,0.4,5.9,1,10.1,1.8
		c-0.4,5.1-0.5,10.5,0,16.2C10.9,104.5,11.3,108.1,11.8,111.7z M51.8,135.3C41.6,127.8,32,122,23.6,117.5
		c-1.7-10.4-2.4-20.7-1.8-30.5c7.7,1.7,16.8,3.9,26.9,6.7C48,106.8,49.3,120.9,51.8,135.3L51.8,135.3z M156.7,140.7
		c-0.1,1.1-0.2,2.3-0.4,3.4c-14,7.3-27.9,17.1-40.3,30.4c-4,4.3-7.7,8.6-11.1,12.9c-3.8-4.8-7.8-9.6-12.1-14.5
		c-1.9-2.2-3.8-4.3-5.8-6.3c-3.2-21.5-5.2-42.7-5.6-62.6C106.3,112.8,133.1,124.8,156.7,140.7z"/>
	<path class="st0" d="M14.9,63.8c-2.1,6.3-3.6,13.3-4.2,20.9C6.4,83.9,3,83.3,0.6,82.9c0.3-2.3,0.7-4.5,1.2-6.7
		C4.7,72.8,9.1,68.5,14.9,63.8z"/>
	<path class="st0" d="M63.5,36.4C56.1,49.9,50.2,68,48.8,92.3c0,0.5,0,0.9-0.1,1.4c-10-2.8-19.1-5-26.9-6.7c0-0.3,0-0.6,0.1-1
		c1-12.7,4.7-24.4,10.4-34.7C41,45.9,51.4,40.6,63.5,36.4z"/>
	<path class="st0" d="M156.7,140.7c-23.6-16-50.4-27.9-75.3-36.8c-0.5-23.7,1.4-45.4,6.3-63.5c0.1-0.5,0.3-1,0.4-1.5
		c19.7,11.6,45.4,24.6,69.8,30.3C160,90.9,159.4,115.3,156.7,140.7L156.7,140.7z"/>
	<path class="st0" d="M240.4,93.8c-0.6,10-2,19.9-4.2,29.8c-2.8,0.1-6.1,0.3-9.6,0.6c1.6-7.6,2.7-15.4,3.4-23.4
		c2.1-26.8-6.5-47.1-16.5-61.4c2.9,0.8,5.7,1.7,8.3,2.5C232.9,56.2,241.6,74.5,240.4,93.8z M215.4,125.5c-7.8,1.1-16.7,2.9-26,5.5
		c2.1-13.4,3.1-26.6,2.3-38.8c-1.7-27.9-9.3-47.8-18.1-61.7c8.4,1.4,16.3,3,23.6,4.7c11.7,13.8,19.9,31,21.4,50.7
		C219.6,98.6,218.2,112.1,215.4,125.5z"/>
	<path class="st0" d="M157.9,69.4c-24.4-5.7-50.1-18.7-69.8-30.3c1-3.6,2.2-6.9,3.5-9.9c3.6-0.6,7.3-1.1,11.2-1.5
		c15.4-1.6,30.8-1.4,45.4-0.2c1.7,3.8,3.3,8.1,4.6,13.1C155.2,49.3,156.9,59,157.9,69.4z"/>
	<path class="st0" d="M52.6,14.4c-0.8,0.5-27,16.6-37.8,49.3C9.1,68.5,4.7,72.8,1.7,76.1C8.8,45.2,37.2,20,52.6,14.4z M69.2,27.2
		c-2,2.8-3.9,5.9-5.7,9.2c-12,4.3-22.4,9.5-31.2,14.9C39,39,48.4,28.5,59,20.2C61.6,22,65,24.4,69.2,27.2z"/>
	<path class="st0" d="M221.7,41.9c-2.6-0.8-5.4-1.6-8.3-2.5c-11.8-16.8-25.5-25.1-25.5-25.1C197,17.7,210.6,27.8,221.7,41.9z
		 M197.2,35.3c-7.3-1.7-15.2-3.3-23.6-4.7C158.6,7,139.8,0.3,138.9,0C159,4.1,181.3,16.5,197.2,35.3z M148.2,27.4
		c-14.6-1.2-30-1.4-45.4,0.2c-3.8,0.4-7.5,0.9-11.2,1.5C102.4,3.7,120,0,120,0h0.5C120.5,0,137.3,3.5,148.2,27.4z M101.7,0
		c-0.9,0.3-17.9,6.3-32.5,27.1c-4.2-2.8-7.6-5.1-10.2-7C72.3,9.8,87.5,2.8,101.7,0L101.7,0z"/>
	<path class="st0" d="M120.3,330.9h18.1l6.7-29.2H95.5l6.7,29.2H120.3z"/>
</g>
<path class="st0" d="M52,200.2c3.5,7.2,6.8,13.6,9.7,19c4.9,9.2,9.6,17,14.4,24.1c1.4-4.9,3.1-10,5.3-15.3
	c-3.7-8.6-7.5-17.7-11-27.3c-7.7-20.8-14.6-43.4-18.5-65.4C41.6,127.8,32,122,23.6,117.5C28.4,147.1,41,177.5,52,200.2L52,200.2z"/>
<path class="st0" d="M35.6,199.9c2,3.4,4,6.9,6.1,10.4c9.9,16.3,21.4,31.3,31.6,43.5c0.3-1.5,0.7-3,1-4.6
	c-4.1-5.7-8.2-11.4-11.6-16.8c-5-7.6-12.2-18.7-19.7-32.4c-12.8-23.4-26.5-54.4-31.3-88.4c-4-1.8-7.5-3.3-10.4-4.3
	C5.5,137.8,17.2,167.7,35.6,199.9L35.6,199.9z"/>
<path class="st0" d="M88.9,177.9c1.3,7.7,2.8,15.5,4.4,23.2c0.2,0.7,0.3,1.5,0.5,2.2c3.3-5.3,7-10.6,11.2-16
	c-3.9-4.9-7.9-9.8-12.1-14.5c-1.9-2.2-3.8-4.3-5.8-6.3C87.6,170.4,88.2,174.1,88.9,177.9z"/>
<path class="st0" d="M226.5,124.2c-4.6,22.3-12.7,43-21.3,60.7c1.7,1.8,3.4,3.5,5.1,5.2c12.3-22.8,21-44.7,25.9-66.6
	C233.4,123.7,230.1,123.9,226.5,124.2z M189.4,131.1c-1.7,10.7-4.1,21.5-7.1,32.3c5.1,4.6,10.6,9.7,16.1,15
	c6.8-16.3,13.2-34.6,17-52.8C207.6,126.7,198.8,128.4,189.4,131.1L189.4,131.1z"/>
<path class="st0" d="M116,174.5c-4,4.3-7.7,8.6-11.1,12.9c14.7,18.6,25.6,36.2,33.5,51c2.9-11.1,5.9-23.4,8.5-36
	c1.7-8.1,3.3-16.4,4.7-24.5c1.9-11.3,3.5-22.6,4.7-33.8C142.4,151.4,128.5,161.3,116,174.5z M205.2,185c-0.3,0.7-0.7,1.4-1,2
	c-9.8,19.7-20,35.5-26.5,45.4c-7.5,11.5-17.5,25-25.5,35.3c0.3,0.8,0.6,1.5,0.8,2.1c12.4-13.5,30.8-35.1,45.7-59.6
	c3.8-6.1,7.2-12.2,10.5-18.2c0.3-0.6,0.7-1.2,1-1.9C208.6,188.4,206.9,186.7,205.2,185L205.2,185z M182.4,163.4l-0.4,1.4
	c-9.5,34.2-23.9,67.3-35.3,90.1c1.2,2.7,2.4,5.2,3.4,7.6c10.5-12.5,19.2-25.2,28.9-43.3c5.3-9.9,12.1-23.4,18.7-38.8l0.9-2
	C193,173.1,187.5,167.9,182.4,163.4z"/>
<path class="st0" d="M129.8,284.6c7.7-8,14.3-15.1,20.3-22.2c-1-2.3-2.1-4.8-3.4-7.6C138.6,271.1,132,282.1,129.8,284.6z"/>
<path class="st0" d="M139.2,284.2c0.4-0.4,5.9-5.6,13.8-14.3c-0.3-0.7-0.5-1.4-0.8-2.1C145.1,277,139.6,283.7,139.2,284.2z"/>
<path class="st0" d="M93.8,203.4c9.1,42.6,21.6,81.6,21.6,81.6h9.8c0,0,6.3-19.8,13.3-46.6c-7.9-14.8-18.8-32.4-33.5-51
	C100.7,192.8,97,198.1,93.8,203.4z"/>
<path class="st0" d="M76,243.3c9.9,14.8,20.4,26.5,34.8,41.4c-3.3-3.8-16.3-26.3-29.5-56.7C79.1,233.3,77.4,238.4,76,243.3L76,243.3
	z"/>
<path class="st0" d="M73.4,253.8c15,18,27.3,29.8,27.9,30.4c-0.7-0.8-14.2-17.5-26.9-35C74,250.8,73.7,252.3,73.4,253.8z"/>
</svg>
