<?xml version="1.0" encoding="utf-8"?>
<!-- Generator: Adobe Illustrator 25.0.1, SVG Export Plug-In . SVG Version: 6.00 Build 0)  -->
<svg version="1.1" id="svg" xmlns="http://www.w3.org/2000/svg" xmlns:xlink="http://www.w3.org/1999/xlink" x="0px" y="0px"
	 viewBox="0 0 400 405.5" style="enable-background:new 0 0 400 405.5;" xml:space="preserve">
<style type="text/css">
	.st0{fill-rule:evenodd;clip-rule:evenodd;fill:#01303F;}
</style>
<g id="svgg">
	<path id="path0" class="st0" d="M191,6.1c-19,0.9-36,4-53.6,9.8C63.4,40.2,9.8,106.2,1.5,183.2c-0.2,1.6-0.4,3.2-0.4,3.6L1,187.5
		h25.8c14.2,0,25.8-0.1,25.8-0.1c0-1.4,2.4-14.2,3.4-18c13.3-51.7,51.3-91,103.2-106.5c22.4-6.7,49.7-7.4,74-1.9
		c59.4,13.5,105.3,63.2,113.7,123.2c0.2,1.3,0.4,2.5,0.4,2.8l0.1,0.5h25.8H399l-0.1-0.6c0-0.4-0.2-1.9-0.4-3.5
		c-5.8-53.4-33.4-102.6-76.4-135.8C284.9,18.7,237.8,3.8,191,6.1 M246.9,22.3c2.6,1.2,1.5,5.2-1.4,5.2c-2,0-3.4-1.3-3.2-3.1
		C242.4,22.2,244.6,21.2,246.9,22.3 M155.6,25.5c0.7,2.3,0.7,2.7,0.1,2.9c-0.3,0.1-2.1,0.7-4,1.3l-3.5,1.1l0.7,2.2
		c0.4,1.2,0.7,2.3,0.7,2.4c0.1,0.2,1.1-0.1,3.7-0.9c4.2-1.3,3.8-1.4,4.5,1.2l0.5,2l-0.4,0.2c-0.2,0.1-1.9,0.6-3.6,1.1
		c-1.7,0.5-3.2,1-3.3,1.1c-0.1,0.1,0.9,4.2,1.2,4.8c0.1,0.2,1.2-0.1,4.4-1c2.3-0.7,4.3-1.3,4.3-1.2c0.2,0.1,1.2,4.1,1.1,4.3
		c-0.2,0.2-13.7,4.4-13.8,4.3c-0.1-0.1-2.8-9.4-3.2-11.1c-0.2-0.9-1.1-3.9-1.9-6.7c-1.1-3.9-1.4-5.2-1.2-5.3
		c0.1-0.1,1.8-0.6,3.6-1.2c1.9-0.6,4.7-1.5,6.4-2c1.6-0.5,3-1,3.1-1C155,23.8,155.3,24.5,155.6,25.5 M211.7,25
		c4.2,0.7,6.2,3.3,6.2,8.2c0,1.4-0.1,2.6-0.1,2.6c-0.1,0.1-2.6,0-5.6-0.2c-6.3-0.3-5.7-0.4-5.5,0.5c0.5,2.8,4.8,4,8.5,2.3l0.9-0.4
		l-0.1,1.8c-0.2,2.4-0.1,2.2-1.4,2.6c-4.1,1.3-9.7,0.1-11.7-2.5C197.9,33.6,203.7,23.7,211.7,25 M193.2,25.3
		c5.3,1.8,6.1,12.6,1.2,16.3c-2.4,1.8-6.1,2-8,0.3l-0.7-0.6l0,0.6c0,0.3,0.1,2.1,0.3,4c0.2,1.9,0.3,3.8,0.3,4.3l0,0.8l-2.6,0.3
		c-3.1,0.3-2.8,0.5-3-2.3c-0.1-1.3-0.5-6.9-1-12.4c-0.4-5.5-0.8-10.1-0.7-10.1c0.1-0.1,4.3-0.5,4.9-0.5c0.5,0,0.6,0,0.6,1.1
		c0,1.3,0.1,1.3,0.8,0.3C186.8,25.3,190.4,24.3,193.2,25.3 M233.9,27.5c0.7,0.2,1.5,0.6,1.8,0.8l0.5,0.4l-0.4,2.1
		c-0.5,2.5-0.4,2.4-1,1.9c-2.6-2.4-7.1-1.6-8.3,1.5c-1.7,4.4,1.4,7.7,6.1,6.5c1.6-0.4,1.5-0.9,0.6,4c0,0.2-1.8,0.5-3,0.5
		c-7.2,0-11.2-4.9-9.4-11.5C222.5,28.2,228,25.6,233.9,27.5 M173.7,29.1c0.5,2.5,0.5,2.5-0.5,2.3c-3.2-0.6-6.2,0.4-5.8,1.8
		c0.2,0.7,0.9,1,3,1.3c3.2,0.4,4.9,1.3,5.6,2.8c2.1,4.9-2.3,8.8-9.8,8.8h-2.1l-0.1-0.7c-0.1-0.4-0.2-1.4-0.4-2.1
		c-0.3-1.7-0.4-1.6,1.2-1.2c3.8,1,8-0.9,5.9-2.6c-0.2-0.1-1.2-0.4-2.4-0.5c-3.9-0.5-5.3-1.3-5.9-3.3c-1.5-4.6,2.5-8.2,9.2-8.2l1.8,0
		L173.7,29.1 M208.9,28.9c-0.8,0.4-1.7,1.6-1.9,2.4c-0.1,0.6,0,0.6,4.1,0.8l1.7,0.1v-0.9C212.9,29.1,210.8,27.9,208.9,28.9
		 M187.3,29.5c-3.6,1.4-2.9,9.1,0.9,9.4c2.5,0.2,3.8-1.5,3.8-4.9C192,30.3,190.1,28.4,187.3,29.5 M243.9,29.9
		c1.2,0.3,2.3,0.6,2.3,0.7c0.1,0.1-0.4,1.7-0.9,3.7c-0.6,2-1.6,5.7-2.3,8.2c-0.7,2.5-1.3,4.6-1.4,4.7c-0.1,0.1-4.7-1-5-1.2
		c-0.1-0.1,0.3-1.8,0.9-3.9c0.6-2.1,1.6-5.8,2.3-8.2c0.9-3.3,1.3-4.5,1.6-4.5C241.5,29.3,242.7,29.6,243.9,29.9 M276.2,32
		c1.3,0.6,2.3,1.1,2.2,1.2c0,0.2-1.9,4.5-3.7,8.5c-2.4,5.3-4.1,9.1-5.3,11.9c-0.7,1.6-1.3,2.8-1.5,2.8c-0.3,0-4.4-1.7-4.6-2
		c-0.1-0.1,0.5-1.6,1.3-3.3c1.7-3.7,4.2-9.3,6.3-14.1c2.4-5.5,2.7-6.1,2.9-6.1C273.9,30.9,275,31.4,276.2,32 M257.6,33.3
		c4.9,1.4,6.6,4.4,5.2,9.2c-0.5,1.6-3.2,10-3.4,10.1c-0.1,0.1-4.8-1.4-4.8-1.6c0-0.1,0.1-0.5,0.3-1c0.2-0.5,0.3-0.9,0.3-0.9
		s-0.5,0.2-1,0.5c-4.8,2.5-10.1-2.1-7.8-6.9c1.4-3.1,3.7-3.8,9-2.9c3,0.5,3.1,0.5,3.1-0.5c0-2-3.1-3.3-6.6-2.7
		c-0.8,0.1-1.5,0.2-1.6,0.2c-0.1-0.1,1-3.3,1.2-3.7C251.6,32.7,256.2,33,257.6,33.3 M286.4,36.8c2.5,1.5,1.4,5.2-1.5,5.2
		c-2.4,0-4-2.5-2.9-4.5C282.9,36.2,284.9,35.9,286.4,36.8 M125.3,36.7c3,1.1,5.2,5.2,4.6,8.5c-0.6,3.2-2.8,5.7-7,7.6
		c-1.6,0.7-1.6,0.2,0.5,4.8c0.8,1.8,1.5,3.3,1.5,3.3c-0.2,0.2-5,2.5-5,2.4c0,0-0.4-0.8-0.8-1.6c-2.2-4.7-5.4-11.8-6.6-14.3
		c-0.7-1.6-1.5-3.3-1.8-4c-1-1.9-1-1.9,0.4-2.5c0.7-0.3,2.8-1.3,4.7-2.2C120.5,36.5,123.2,35.9,125.3,36.7 M120.3,41.6
		c-0.8,0.1-3.4,1.3-3.4,1.4c0,0,0.6,1.4,1.3,2.9c0.7,1.6,1.4,3,1.4,3.2c0.2,0.5,2-0.2,3.6-1.4C125.9,45.7,123.7,40.9,120.3,41.6
		 M252.1,43c-1.1,0.6-1.4,2.4-0.5,3.2c1.6,1.6,4.3,0.7,5.3-1.8l0.4-1l-1.7-0.3C253.4,42.7,252.7,42.7,252.1,43 M282.3,44
		c1.2,0.6,2.2,1.1,2.2,1.3c0,0.5-7.7,15.4-8,15.4c-0.7-0.2-4.5-2.1-4.5-2.3c0-0.1,1.3-2.8,2.9-6c1.6-3.2,3.3-6.6,3.8-7.6
		C279.8,42.6,279.5,42.7,282.3,44 M103.8,49.2c3.6,2.1,4.5,6.7,2,10.2l-0.4,0.5l1.1,0c0.8,0,1.7,0.3,3.2,0.9
		c3.5,1.4,8.1,3.5,8.1,3.6c0,0.1-4.5,3.3-5,3.4c-0.1,0.1-2.1-0.8-4.3-1.8c-4.8-2.3-5.6-2.4-7-1.6l-0.9,0.5l0.3,0.5
		c0.2,0.3,1.1,1.7,2,3.1c0.9,1.4,1.9,2.9,2.2,3.3c0.3,0.5,0.4,0.8,0.3,0.9c-3.3,2.2-4.5,2.8-4.7,2.6c-0.5-0.5-12.8-19.4-12.8-19.6
		c0-0.1,7.1-4.9,8.6-5.8C99.3,48.4,102,48.1,103.8,49.2 M293,49.8c1.9,0.6,3.6,1.7,5.1,3l1.2,1.1l-1,1.7c-0.9,1.5-1.5,2.1-1.5,1.6
		c0-0.1-0.5-0.7-1-1.3c-2.2-2.4-4.7-3-4.7-1.1c0,0.8,0.2,1.1,1.6,2.9c2.5,3.1,2.7,5.5,0.5,7.8c-2.7,2.8-7.6,1.8-12.1-2.5
		c-1.2-1.1-1.2-1,0.1-3.1c1.2-2,1.3-2,2-0.7c1.8,3,6,4.8,6,2.5c0-0.7-0.2-1-1.8-3.1C283.1,53.4,286.8,47.7,293,49.8 M98,54.1
		c-0.3,0.1-1.1,0.6-1.8,1.1l-1.4,0.9l0.4,0.7c1.4,2.2,2.9,4.6,3.1,4.6c0.4,0,2.7-1.8,3.1-2.5C103.1,56.3,100.7,53,98,54.1
		 M309.8,55.5c1.3,0.5,2.4,1,2.5,1c0.1,0.1-0.6,1-1.4,2.1c-1.9,2.4-1.9,2-0.1,3.2c0.8,0.6,1.4,1.2,1.3,1.3c-0.1,0.2-1.9,2.6-2.3,3
		c-0.1,0.1-0.7-0.3-1.5-0.9c-1.7-1.4-1.6-1.4-3.2,0.7c-0.8,1-1.8,2.3-2.3,3c-1.6,2.1-1.4,3.7,0.5,4.3c0.4,0.1,0.8,0.3,0.8,0.3
		c0,0.1-2.2,2.9-2.5,3.2c-0.5,0.6-4.6-2.5-5.3-4c-1-2.3-0.5-3.5,3.8-9.1c2.5-3.2,2.4-2.8,1.2-3.7c-1.2-0.9-1.2-0.8,0.2-2.6l1.2-1.5
		l1,0.8c1.2,1,1.1,1,2.3-0.6C307.4,54.4,307,54.4,309.8,55.5 M83.2,62.3l1.4,1.6l-0.8,0.7c-0.4,0.4-1.8,1.6-3.1,2.7
		c-1.3,1.1-2.3,2.1-2.4,2.2c-0.1,0.2,3,3.8,3.2,3.8c0.1,0,1.4-1.1,2.9-2.5c3.3-2.9,2.9-2.9,4.6-0.9l1.4,1.6l-1.8,1.7
		c-1,0.9-2.3,2.1-2.9,2.7l-1.1,1l0.6,0.7c0.3,0.4,1.1,1.3,1.7,2l1.1,1.2l0.5-0.4c0.3-0.2,1.7-1.5,3.3-2.9c3.3-3,2.9-2.9,4.6-0.9
		l1.4,1.6l-1.3,1.2c-0.7,0.6-1.7,1.6-2.3,2c-0.9,0.8-5.9,5.2-7,6.2l-0.5,0.5L84.3,85c-1.4-1.6-3.5-4-4.7-5.4c-1.2-1.3-2.6-3-3.2-3.6
		c-0.5-0.6-2-2.2-3.1-3.6c-1.2-1.3-2.1-2.5-2.1-2.6c0.1-0.3,10.3-9.3,10.5-9.3C81.7,60.7,82.4,61.4,83.2,62.3 M317.8,67.8
		c5.3,2.7,7.4,6.6,5.5,10.4c-0.6,1.1-4.5,5.6-8.3,9.5l-0.5,0.5l-1.9-1.8l-1.9-1.8l0.8-0.8l0.8-0.8l-1,0.1c-3.9,0.5-7.6-3.9-6.1-7.3
		c2-4.5,6-4.9,11.3-0.9c2.2,1.6,2,1.6,2.4,0.8c1.2-2-1.1-4.6-4.9-5.6c-1.3-0.3-1.3-0.4,0.2-2.1C315.6,66.6,315.4,66.6,317.8,67.8
		 M310.5,77c-1.5,1.5-0.1,3.7,2.2,3.7c1.1,0,2.1-0.5,3-1.3l0.6-0.6l-0.7-0.5C312.7,76.2,311.6,75.9,310.5,77 M205.9,178
		c-20.2,4.4-23.4,32.6-4.7,41.1c16.1,7.3,33.4-6.5,30.1-24.2C229.2,183.4,217.4,175.5,205.9,178 M213.6,185.4
		c6.7,1.7,11.3,8.5,10.4,15.5c-2.1,17.6-27.3,16.1-27.3-1.6C196.6,189.9,204.8,183.2,213.6,185.4 M252.6,189
		c-1.7,0.4-3.8,1.5-5.1,2.7c-1.4,1.2-1.3,1.3-1.4-0.7l-0.1-1.6l-3.7-0.1l-3.7-0.1v21v21l3.7-0.1l3.7-0.1l0.1-7.2
		c0-3.9,0.1-7.2,0.2-7.2c0.1,0,0.5,0.4,1,0.8c6.5,5.8,17.1,3.1,21.2-5.2C274.5,200.1,265,186,252.6,189 M287.4,189
		c-12.4,2.7-16.3,19.9-6.4,28.1c6.7,5.5,18.4,4.6,23.6-2l0.8-1l-3.1-1.5l-3.1-1.5l-0.8,0.6c-5.7,4.6-14.6,2.1-15.5-4.2l-0.1-0.8
		h12.4h12.4l-0.1-2.3c-0.4-7.6-4.5-13.2-11-15.1C294.4,188.7,289.5,188.6,287.4,189 M322.7,189.2c-1.3,0.5-2.7,1.7-3.4,3
		c-0.7,1.2-0.8,1.1-0.8-1l0-1.8h-3.2h-3.2v15.2v15.2l3.7,0.1l3.7,0.1l0.1-9.6c0.1-8.1,0.1-9.7,0.4-10.8c1-3.7,2.9-5.2,5.3-4.1
		l0.7,0.3l1.1-3.1c0.6-1.7,1.1-3.2,1-3.3C327.9,188.6,324.5,188.5,322.7,189.2 M293.5,195.1c2.9,0.6,6.3,3.6,6.3,5.5
		c0,0.3-16.4,0.5-16.7,0.2c-0.2-0.2,0.9-2,1.9-3.1C287,195.4,290.2,194.4,293.5,195.1 M257.3,196c4.8,1.8,6.9,8.1,4.4,13.2
		c-3.5,7.2-14.3,5.6-15.7-2.4C244.6,199.4,250.7,193.5,257.3,196 M81.4,232.4c-5,1.8-5.6,9.7-0.9,11.9c2.1,1,5.9,0.5,6-0.7
		c0.1-0.7,0.1-0.7-0.9-0.3c-2.5,1-5.5,0-6.5-2.3c-2.1-4.7,2.1-9.4,6.6-7.5l0.8,0.3l-0.1-0.7c0-0.6-0.2-0.8-0.6-0.9
		C85.1,232,82.1,232.1,81.4,232.4 M96.4,232.3c-4.8,1.6-5.5,9.6-0.9,12c1.1,0.6,4,0.6,5.3,0c4.3-2,4.5-9.6,0.3-11.8
		C100.4,232.2,97.3,232,96.4,232.3 M142.8,232.3c-5.1,1.5-5.3,10.7-0.2,12.3c4.3,1.3,7.7-1.2,7.9-5.9
		C150.7,233.8,147.1,230.9,142.8,232.3 M110.9,238.5v6.2l0.5,0l0.5,0l0.1-2.7l0.1-2.7h1c1.4,0,2,0.5,3.7,3.1
		c1.4,2.2,1.4,2.3,2.2,2.3c0.4,0,0.7,0,0.7,0c0-0.3-3.1-4.9-3.5-5.2c-0.6-0.5-0.6-0.6,0.4-1.1c2.2-1.1,2.3-4.5,0.1-5.6
		c-0.8-0.4-1.2-0.4-3.3-0.4h-2.4V238.5 M125.6,238.5l0.1,6.2h0.6h0.6l0.1-2.4l0.1-2.4h1.5c2.9,0,4.5-1.4,4.5-3.9
		c0-2.8-1.1-3.6-5-3.6l-2.4,0L125.6,238.5 M157.2,238.5v6.2l0.6,0l0.6-0.1l0.1-2.7l0.1-2.7l1.1,0.1c1.4,0.1,1.8,0.5,3.5,3.3
		c1.2,2,1.3,2.1,2,2.1c0.4,0,0.7,0,0.7-0.1c0-0.3-2.8-4.4-3.3-5c-0.4-0.4-0.7-0.8-0.6-0.8c0,0,0.4-0.2,0.9-0.4
		c2.3-1.2,2.3-4.6,0.1-5.7c-0.5-0.3-1.2-0.3-3.2-0.3l-2.5,0V238.5 M174.7,233.9c-1.4,3.4-4,10.4-4,10.5c0,0.1,0.3,0.2,0.6,0.2
		c0.6,0,0.7-0.1,1.3-1.7l0.6-1.7l2.7-0.1l2.7-0.1l0.3,0.8c0.2,0.4,0.5,1.2,0.7,1.8c0.3,0.9,1.7,1.6,1.7,0.9c0-0.2-0.8-2.4-2.3-6.3
		c-0.9-2.2-1.7-4.5-1.9-5c-0.3-0.9-0.4-0.9-1.1-0.9h-0.7L174.7,233.9 M186.3,232.8c0,0.5,0,0.5,1.7,0.5l1.7,0.1l0.1,5.6l0.1,5.6h0.6
		h0.6l0.1-5.7l0.1-5.7h1.8c1.8,0,1.8,0,1.8-0.5v-0.5h-4.3h-4.3V232.8 M201,238.4l0.1,6.1h3.2l3.2,0V244v-0.6l-2.5-0.1l-2.5-0.1v-2.3
		v-2.3h2.2h2.2v-0.5v-0.5h-2.1h-2.1l-0.1-2.2l-0.1-2.2h2.4h2.4v-0.5v-0.5h-3.1H201L201,238.4 M99.4,233.3c4,0.9,4.7,8,0.9,9.9
		c-3.3,1.7-6.4-0.6-6.4-4.8c0-3.1,1-4.6,3.4-5.2C98.2,233,98.3,233,99.4,233.3 M147.1,233.8c3.1,1.8,2.7,8.3-0.6,9.6
		c-3.3,1.3-6.1-1-6.1-4.9C140.3,234.2,143.7,231.8,147.1,233.8 M115.8,233.7c2.5,1.3,0.9,4.3-2.2,4.3h-1.5v-2.2
		c0-1.2,0.1-2.3,0.1-2.4C112.5,233.1,115.1,233.4,115.8,233.7 M129.7,233.5c3.9,0.8,2,5.7-2,5.3l-0.6-0.1L127,236l-0.1-2.7h0.9
		C128.3,233.3,129.1,233.4,129.7,233.5 M162.4,233.8c2.1,1.5,0.6,4.2-2.3,4.2h-1.5v-2.4v-2.4l1.6,0.1
		C161.4,233.4,162,233.6,162.4,233.8 M176.2,234.2c0,0.1,0.4,1.4,1,2.9c1.2,3.1,1.3,3-1.3,3c-2.5,0-2.4,0.3-1.1-3.3
		C175.8,234.1,176.2,233.3,176.2,234.2"/>
	<path id="path1" class="st0" d="M95.5,178c-7.9,1.7-15,8.2-17.2,15.8c-3.7,12.9,3.3,25,15.6,26.8c13.8,2.1,24.1-6.3,25.5-20.8
		l0.1-1h-10.5c-5.8,0-10.5,0.1-10.5,0.2c0,0.3-0.8,6.1-0.9,6.5l-0.1,0.4h6.4c7.3,0,6.9-0.1,5.6,1.7c-8.2,11.9-26.3,5.5-24.6-8.7
		c1.6-13.2,16.6-19,25.5-9.9l1.2,1.3l3.1-2c1.7-1.1,3.2-2.1,3.2-2.1c0.2-0.2-2.6-3-4.1-4.1C109,178.2,101.9,176.7,95.5,178
		 M140.8,188.7c-17.5,1.6-21.7,27.1-5.2,31.5c3.3,0.9,8.6,0.5,12-0.7c2.5-0.9,7.2-4.5,6.6-5c-0.1-0.1-1.6-0.9-3.3-1.8l-3.1-1.6
		l-0.8,0.6c-5.9,4.4-13.9,2.1-14.4-4.2l-0.1-0.7l12.3-0.1l12.3-0.1l0.2-1.5c0.9-8-4.9-15.6-12.4-16.3c-0.7-0.1-1.5-0.1-1.8-0.2
		C142.7,188.6,141.7,188.6,140.8,188.7 M171.9,188.7c-6.5,0.7-10.1,6.8-7.3,12.3c0.8,1.6,2.4,3.2,5.1,5.2c5.2,3.8,5.8,4.8,4.3,6.5
		c-1.8,2-5.5,1.3-8.4-1.6c-1.3-1.2-1.3-1.3-1.6-0.9c-0.2,0.2-1.2,1.4-2.3,2.6l-2,2.3l1.2,1.1c3.9,3.6,6,4.5,10.2,4.5
		c5.3,0,9-2.4,10.3-6.8c1.4-4.5-0.3-7.9-6.4-12.4c-4.4-3.3-4.8-4-3.3-5.5c1.4-1.4,4.1-0.6,6.4,1.9c0.7,0.7,1.3,1.2,1.4,1.1
		c0.1-0.1,0.9-1.3,1.8-2.7l1.6-2.6l-0.6-0.7C179.7,189.8,176,188.3,171.9,188.7 M143.7,195.7c2.7,0.5,5.3,2.8,5.9,5.2l0.1,0.5h-8
		c-4.4,0-8,0-8-0.1c0-0.3,0.8-1.6,1.4-2.4C137.1,196.3,140.4,195.1,143.7,195.7 M0.3,207.7c0.6,45.9,16.6,90.3,44.9,124.2
		c12,14.4,24,25.7,38.1,35.9c47.5,34.2,106.7,45.7,164.5,31.9c39.9-9.5,75.7-31.6,104.1-64.1c13.7-15.7,28-39.5,34.6-57.8
		c0.3-0.8,1.1-3,1.8-4.9c7.3-19.9,11.2-42.1,11.6-65.4l0.1-8.3h-25.8h-25.8v6.2c0,29.4-8.2,57.1-24.1,81.2
		c-41.7,63.5-123.7,85.5-191.4,51.3C83,312.7,51.7,261.7,51.7,205.7v-6.5H25.9H0.1L0.3,207.7 M51.1,268.6c0.6,1.2,1,2.3,1,2.4
		c0,0.1-1.9,1.9-4.3,3.9c-2.4,2.1-5.1,4.4-6,5.2c-0.9,0.8-2.1,1.8-2.5,2.1l-0.8,0.6l0.8-0.2c0.8-0.2,7.3-1.1,13.3-1.8
		c2.6-0.3,3.7-0.4,3.8-0.2c0.1,0.1,0.6,1.1,1.1,2.2l0.9,2l0.9,0.1c2.3,0.4,3.4,3.4,1.8,5c-2.1,2.1-5.6-1-4.2-3.7
		c0.2-0.4,0.3-0.7,0.3-0.7c-0.3,0-14,1.2-17.8,1.6c-2.3,0.2-4.2,0.4-4.3,0.3c-0.1-0.1-2.1-4.7-2.2-5c0-0.1,3.2-3.2,7.1-6.9
		c4-3.7,7.8-7.3,8.6-8c0.8-0.7,1.4-1.3,1.5-1.2C50,266.4,50.5,267.4,51.1,268.6 M362.1,267c0.6,0.2,2,0.8,3.3,1.4
		c1.2,0.6,3.2,1.5,4.4,2c1.2,0.5,2.2,1,2.3,1.1c0.1,0.1-0.3,1.1-0.8,2.3c-1.1,2.3-1,2.3-2.4,1.5c-0.4-0.2-0.4-0.2-0.3,0.1
		c0.8,1.9,0.9,2.9,0.3,4.5c-1.1,3.1-3.9,4.3-6.7,3c-3.3-1.5-3.8-3.6-2.1-9c0.4-1.2,0.7-2.2,0.7-2.2c0,0-0.3-0.1-0.7-0.2
		c-1.9-0.4-3.3,1.7-3.4,5.2c0,1.1-0.1,2-0.2,2c-0.1,0-0.8-0.3-1.7-0.7l-1.5-0.7v-0.9c0-0.5,0.2-1.8,0.5-2.8
		C355.1,268.1,358.1,265.8,362.1,267 M363,274.3c-0.8,2.8-0.3,4.3,1.3,4.3c2.6,0,2.7-4,0.1-5.4l-1-0.5L363,274.3 M352.7,279.4
		c1,0.6,1.1,0.7,2.2,3.1c0.6,1.4,1.8,3.9,2.6,5.5l1.4,3l1.6-3.3c0.9-1.8,1.7-3.3,1.7-3.3c0,0,0.8,0.3,1.8,0.7l1.7,0.8l-2.9,5.7
		c-1.6,3.1-3.1,6-3.3,6.4l-0.4,0.7l-0.9-0.4c-1-0.5-1.2-0.8-3.9-6.8c-0.8-1.9-1.8-3.8-2-4.3l-0.5-1l-1.6,3c-0.9,1.6-1.6,3-1.6,3.1
		c-0.1,0.1-2.3-0.9-3.1-1.4c-0.3-0.2,5.6-12.1,6-12.1C351.6,278.8,352.2,279.1,352.7,279.4 M54.7,290.1c0.6,1.1,1.2,2.1,1.2,2.2
		c0.1,0.2-0.4,0.6-1.7,1.3c-1.7,0.9-4.8,2.7-9.9,5.7c-2.4,1.4-2,1.5-3.4-1c-1.1-2-1.2-2.1-0.8-2.4c0.2-0.2,2-1.2,4-2.4
		c2-1.2,4.9-2.8,6.4-3.7c1.5-0.9,2.8-1.6,2.9-1.6C53.5,288.1,54.1,289,54.7,290.1 M350.2,294.5c1,0.5,2,1.1,2.3,1.3l0.5,0.4
		l-2.8,4.3c-3.1,4.8-3.1,4.8-1.1,4.8c2,0,4.3-2.8,4.7-5.6c0.2-1.3,0.1-1.3,1.8-0.2c1.4,0.9,1.4,0.9,1.3,1.5
		c-1.2,5.8-5.5,9.7-9.7,8.9c-5.8-1.2-9.3-7-7.1-11.8C342.1,293.7,345.9,292.4,350.2,294.5 M57.9,297.2c2.6,0.9,4.5,3.7,4.2,6.2
		l-0.1,1l0.6-0.4c0.7-0.5,0.9-0.5,1.1-0.2c0.1,0.1,0.6,1,1.3,1.9c1.5,2,1.6,1.7-0.9,3.5c-1.2,0.8-3.8,2.7-5.9,4.2
		c-2.1,1.5-4.5,3.1-5.4,3.5c-4.8,2.4-10.1-0.3-12.9-6.5c-1-2.1-1-2.1,0.7-3.3c2-1.5,2-1.5,2.3,0c1,4.9,4.8,7.3,8.1,5.1l1.1-0.7
		l-1.1-0.2c-2.6-0.5-4.7-2.8-5-5.6C45.2,300.7,52.7,295.3,57.9,297.2 M344.5,297.9c-1.6,0.9-1.7,3.6-0.2,4.9
		c0.4,0.3,2.9-3.1,3.3-4.3C347.8,297.9,345.5,297.4,344.5,297.9 M54.7,301.9c-4,1.4-5.4,5.5-2.5,7.1c2.5,1.3,7.2-1.8,6.9-4.6
		C58.9,302.3,56.9,301.2,54.7,301.9 M75.4,306.9c1,0.9,1.4,2.1,1.1,3c-0.7,2.1-3.5,2.3-4.9,0.4C69.8,307.7,73,304.7,75.4,306.9
		 M338.6,307.1c8.2,2.6,10.2,13.4,2.7,15.1l-0.9,0.2l2.4,1.9c1.3,1,2.9,2.2,3.5,2.7c0.6,0.4,1,0.9,1,1c-0.2,0.6-2.9,3.8-3.1,3.7
		c-0.2-0.1-7.9-6.1-10.8-8.5c-0.7-0.6-2.6-2-4.2-3.3c-1.6-1.2-2.9-2.3-3-2.4c-0.2-0.2,2.8-3.9,3.1-3.9c0.1,0,0.5,0.3,0.8,0.6
		c0.9,0.8,0.9,0.7,0.7-0.1C329.5,309.9,334.2,305.8,338.6,307.1 M69.8,312c0.8,1,1.5,1.9,1.5,2c0,0.1-1.7,1.5-3.7,3
		c-2,1.6-4.8,3.7-6.2,4.8c-3,2.3-2.4,2.3-4.2,0.2c-1.8-2.2-1.8-1.8,0.9-4c5-4,6-4.7,7.9-6.3C68.6,309.8,68,309.7,69.8,312 M81,313.3
		c1.3,1.5,1.5,1.8,1.3,2.1c-0.1,0.2-2.7,2.5-5.8,5.1c-3.1,2.6-6.9,6-8.7,7.5l-3.1,2.7l-1.6-1.8c-0.9-1-1.6-1.9-1.6-2
		c0-0.1,1.2-1.2,2.6-2.4c11.8-10.2,15.1-13,15.2-13C79.5,311.5,80.2,312.3,81,313.3 M334.7,312.3c-2.2,1.3-2,3.9,0.3,6
		c2.5,2.3,4.9,2.4,6,0.2C342.6,315.4,337.6,310.5,334.7,312.3 M88.5,321.1l1.4,1.3l-0.4,3.1c-0.5,3.7-0.3,3.5-1.7,2.2l-1.1-1.1
		l0.1-2l0.1-2l-0.9,0.1c-2.9,0.4-2.8,0.5-3.9-0.8c-0.6-0.6-1-1.1-1-1.2c0.1-0.1,5.3-1.1,5.9-1.1C87.1,319.8,87.8,320.4,88.5,321.1
		 M326.5,321c1,0.4,3,2.3,7,6.6l2.6,2.8l-1.8,1.7c-1,0.9-1.8,1.7-1.9,1.7c-0.1,0-1.7-1.6-3.6-3.6c-4.3-4.5-4.8-4.8-6.3-4
		c-2.3,1.2-1.7,3,2.9,7.8l3.3,3.5l-1.8,1.8l-1.8,1.8l-1.1-1.2c-7.2-7.6-7.7-8-9.5-6c-1.3,1.4-0.7,2.7,3.5,7.1
		c1.8,1.9,3.2,3.4,3.2,3.5c0,0.1-0.8,0.9-1.7,1.8l-1.7,1.7l-0.7-0.7c-1.2-1.1-10.3-10.7-10.3-10.9c0-0.1,0.8-0.9,1.7-1.8l1.8-1.6
		l0.8,0.8l0.8,0.8v-1c0-3.6,3.6-6.7,6.7-5.7c0.3,0.1,0.4,0,0.5-1.3C319.3,322.2,323.1,319.5,326.5,321 M80.2,324c5,2.6,7,7,4.7,10.4
		c-0.5,0.8-7.5,8.2-7.8,8.3c-0.1,0-0.9-0.7-1.9-1.6l-1.7-1.7l0.7-0.7l0.7-0.7h-1.3c-5.6,0-7.4-7.2-2.3-9.7c2-1,3.7-0.6,7.3,2
		c2.6,1.9,3,1.8,3-0.2c0-1.4-3-3.7-5.3-4.2c-0.9-0.2-0.9-0.1,0.5-1.6C78.1,322.9,78.2,322.9,80.2,324 M73.7,332.2
		c-1.5,1-0.5,3.5,1.6,3.8c1.4,0.2,4-1.3,3.3-2C76.9,332.3,74.7,331.5,73.7,332.2 M300.8,332.5c1.2,0.6,1.7,2.3,1.1,3.5
		c-1.4,2.7-5.2,2.1-5.2-0.8C296.6,333.3,299.1,331.7,300.8,332.5 M91.9,334.5c2,1.5,1.9,1.3,1.1,2.3c-0.7,0.9-0.7,1,0.4,0.7
		c4.3-1,7.9,3.6,6,7.6c-0.6,1.3-7.1,9.7-7.5,9.7c-0.2,0-3.8-2.8-3.8-2.9c0-0.1,1.1-1.5,2.5-3.3c4.6-5.8,5-6.7,3.1-8.2
		c-1.7-1.4-3-0.6-6.8,4.2c-1.7,2.2-3.2,3.9-3.2,3.9c-0.4-0.2-3.8-2.9-3.8-3c0-0.1,1.2-1.7,2.6-3.5c1.4-1.8,3.6-4.6,4.9-6.2
		c1.5-1.9,2.4-2.9,2.5-2.8C90.1,333.1,91,333.8,91.9,334.5 M309.3,343.6c2.6,3.3,4.7,6.1,4.8,6.2c0.1,0.2,0.1,0.4-0.3,0.6
		c-0.3,0.2-1.1,0.8-1.9,1.5c-0.8,0.6-1.5,1.2-1.5,1.2c-0.1,0-0.8-0.9-5.2-6.4c-0.8-1-2.1-2.7-3-3.7c-0.9-1.1-1.6-2.1-1.6-2.2
		c0-0.3,3.2-3,3.6-3C304.5,337.6,306.7,340.3,309.3,343.6 M290.6,341.9c0.5,0.7,2.5,3.8,4.4,6.9c2,3,3.7,5.8,3.9,6.2
		c0.5,0.8,0.5,0.8,1.5,0.1c0.5-0.3,2-1.3,3.4-2.2l2.5-1.6l1.1,1.6c1.4,2,1.4,1.8-0.9,3.2c-1.1,0.7-3.5,2.3-5.5,3.5
		c-2.1,1.3-3.7,2.3-3.8,2.2c-0.1-0.1-2-3.1-4.3-6.6c-2.3-3.5-4.9-7.6-5.9-9.1c-2.1-3.3-2.1-2.8,0.2-4.3
		C289.7,340.3,289.5,340.3,290.6,341.9 M121.5,345.9c2.2,0.9,2.8,3.2,1.2,4.5c-2.5,2.1-6.4-1.5-4.2-3.9
		C119.3,345.6,120.4,345.4,121.5,345.9 M107,346.1c2.1,0.4,6,2.8,6.7,4.2c0.2,0.3-1.2,2.8-2,3.6c-0.1,0.1-0.5-0.3-0.9-0.9
		c-1.7-2.6-4.9-3.2-6.9-1.4c-3.3,3-1.8,7.5,2.7,8.1c1.2,0.2,1.2,0.1,0.1,2l-0.9,1.5l-0.9-0.1c-2.3-0.3-6-3-7-5.1
		C95.2,352.1,100.6,345,107,346.1 M118.2,352.6c1.1,0.6,2,1.2,2.1,1.3c0.1,0.1-0.9,1.9-2.2,4.1c-1.2,2.2-3,5.2-3.9,6.9
		c-0.9,1.6-1.7,2.9-1.8,2.9c-0.1,0-1.1-0.5-2.2-1.2l-2.1-1.2l0.3-0.6c0.2-0.3,1-1.9,1.9-3.4c0.9-1.5,1.9-3.3,2.3-4
		c1.4-2.4,3.4-5.8,3.5-5.8C116.2,351.5,117.2,352,118.2,352.6 M279.3,356.5c1.8,0.9,5,5.2,4.3,5.8c-0.1,0.1-2.1,1.2-4.5,2.4
		c-4.7,2.4-4.5,2.3-3.8,3c1.8,1.7,5.5,0.7,7.6-2.1c0.7-0.9,0.7-0.9,1.6,0.9l0.8,1.6l-1.2,1.1c-6.1,5.8-13.2,4.3-15.4-3.4
		C267.1,359.8,273.8,353.9,279.3,356.5 M126.4,356.7c3,0.8,5.8,2.8,6.3,4.6c0.6,2,0.3,3.5-1.7,7.9c-0.9,1.9-1.8,4-2.2,4.7
		c-0.3,0.7-0.7,1.3-0.7,1.3c-0.4,0-4.2-1.9-4.2-2.1c0-0.1,0.2-0.5,0.4-0.9l0.3-0.7l-0.9,0.4c-3.4,1.5-7.6-1.2-7.4-4.8
		c0.3-4.4,3.5-5.9,9.2-4.1c2.7,0.8,2.8,0.8,2.8-0.3c0-1.8-3.1-3.4-6.2-3.1c-1.3,0.1-1.3,0.2-0.3-1.8l0.7-1.6l1.3,0.1
		C124.5,356.4,125.7,356.6,126.4,356.7 M274.5,359.9c-1.1,0.6-2,3.4-1.3,4.1c0.2,0.2,5-2.3,5-2.5
		C278.2,360.2,275.9,359.2,274.5,359.9 M157,361.8c1.8,0.4,3.9,0.9,4.6,1.1c5.1,1.2,7.4,4.5,6.3,8.9c-1.2,4.6-5.5,6.5-11.2,5.1
		c-1.1-0.3-1.5-0.3-1.5-0.1c0,0.1-0.4,1.8-0.8,3.7c-0.7,3.1-0.8,3.5-1.1,3.4c-0.2,0-1.3-0.2-2.5-0.5l-2.1-0.5l0.1-0.8
		c0.1-0.4,0.8-3.8,1.7-7.4c0.9-3.6,1.8-7.9,2.2-9.3c0.6-3,1-4.3,1.1-4.3C153.6,361,155.1,361.4,157,361.8 M239.9,361.9
		c1,0.4,1.4,1,1.5,2.2c0.3,3.4-5.2,3.9-5.6,0.5C235.4,362.6,237.9,361,239.9,361.9 M255.9,365.7c1,0.5,2.1,1.7,2.6,2.7
		c0.5,1,3.6,9.9,3.6,10.4c0,0.3-2.9,1.4-4.2,1.7c-0.1,0-0.3-0.4-0.5-0.9l-0.3-1l-0.3,0.7c-1.2,3.4-6.4,4.6-8.7,2
		c-2.9-3.3-1.6-6.7,3.7-9.3l2.6-1.3l-0.3-0.6c-1-1.9-4-1.2-6.7,1.4c-0.6,0.5-1,0.9-1.1,0.9c-0.2-0.2-1.1-3-1.1-3.3
		c0-0.7,3.8-3,6.1-3.6C252.9,365.1,254.9,365.2,255.9,365.7 M121.8,365.8c-2,1.4,0.2,4.3,2.6,3.5c1.2-0.4,2.9-2.6,2.3-2.9
		C124.2,365.5,122.6,365.3,121.8,365.8 M157.5,366.4c0,0.1-0.4,1.6-0.8,3.3l-0.7,3l0.5,0.1c0.3,0.1,0.8,0.2,1.2,0.3
		c4.7,1.2,7-4.7,2.5-6.3C158.8,366.2,157.6,366,157.5,366.4 M242.5,370c0.2,0.8,0.9,4,1.6,7c0.7,3.1,1.4,5.9,1.5,6.3
		s0.2,0.8,0.1,0.8c-0.1,0.1-4.7,1.2-4.8,1.1c0,0-0.6-2.2-1.1-4.8c-0.6-2.6-1.4-6.1-1.8-7.7c-0.4-1.6-0.7-3-0.6-3
		c0.1-0.1,4.1-1.1,4.7-1.2C242.1,368.5,242.3,369.2,242.5,370 M204.6,369.2c0,0.2,0,0.4,0.1,0.5c0,0.1,0.1,1,0.1,2.1l0,1.9h1.8h1.8
		v1.9v1.9l-1.7,0.1l-1.7,0.1l0,3.3c0,5.1,0.6,5.9,3.4,5.1c0.2-0.1,0.3,0.2,0.3,1.8v1.9l-0.7,0.2c-0.9,0.3-3.8,0.3-4.9,0
		c-2.3-0.6-3-2.3-3.2-8.1l-0.1-4.1h-1.3c-1,0-1.3,0.1-1.3,0.3c0,0.3-0.1,0.3-0.6,0.2c-3.9-1-4.9,0.4-5.1,7c-0.1,2.5-0.1,4.5-0.2,4.5
		c-0.1,0.2-4.8,0-4.9-0.2c-0.2-0.4,0.3-15.6,0.5-15.7c0.1-0.1,1.2-0.1,2.5,0l2.3,0.1l0,1.3l0,1.3l0.5-0.8c1-1.7,2.3-2.1,6-1.7
		l1.4,0.1l0.1-1.7l0.1-1.7l2.3-0.8C204.7,368.8,204.5,368.8,204.6,369.2 M235.8,370.1c0.2,0.1,0.9,3.4,0.9,4.2
		c0,0.2-0.3,0.3-1.4,0.3c-3.3,0-3.8,1.5-2.7,7.7c0.4,2.2,0.7,4.2,0.7,4.3c0,0.2-0.5,0.4-2,0.7c-1.1,0.2-2.2,0.4-2.5,0.4
		c-0.4,0.1-0.4,0-0.7-1.4c-0.3-1.6-2.3-13-2.5-13.9l-0.1-0.5l2.4-0.4c2.8-0.5,2.6-0.6,2.9,1l0.2,1.2l0.3-0.8
		c0.5-1.6,1.5-2.5,3.1-2.9C235.4,369.9,235.5,369.9,235.8,370.1 M178.8,372.3c5,1.6,7,6.8,4.6,12c-3.4,7.2-15.6,5-16.4-3
		C166.4,374.6,172.1,370.2,178.8,372.3 M219.9,373c1.9,0.6,3.4,2.4,3.8,4.7c0.2,1.1,1,10.7,0.9,10.8c-0.1,0.1-4.5,0.5-4.6,0.4
		c-0.1-0.1-0.1-0.5-0.2-1.1l-0.1-1l-0.6,0.8c-2.4,3.3-8,2.7-9.1-1c-1.2-4,0.7-6.3,6.4-7.6c3.1-0.7,2.8-0.6,2.5-1.4
		c-0.8-1.8-4.3-1.8-7,0.1c-1.1,0.7-1,0.8-1.2-1.3c-0.2-1.9-0.1-2,1.4-2.6C214.8,372.7,218,372.4,219.9,373 M135.2,373.8
		c1,0.4,2,0.8,2.1,0.9c0.1,0.1-0.7,1.3-1.8,2.7c-1.1,1.4-2.2,2.8-2.5,3.2c-0.3,0.4-0.6,0.7-0.7,0.7c-0.5,0-3.5-1.3-3.4-1.5
		c0.1-0.3,4.2-6.6,4.3-6.6C133.3,373.1,134.2,373.4,135.2,373.8 M253.6,374.4c-2.4,1.2-3.1,2.5-1.9,3.8c2,2,5.1-1.3,3.9-4l-0.3-0.6
		L253.6,374.4 M174.6,375.9c-2.5,0.9-3.5,6-1.4,7.8c2.2,1.9,5.2,0.8,5.8-2.2C179.9,377.4,177.9,374.8,174.6,375.9 M217.4,381.8
		c-2.5,0.6-3.2,1.2-2.9,2.6c0.4,1.9,3.5,1.8,4.5-0.1c0.4-0.7,0.5-3,0.2-3C219.2,381.4,218.4,381.6,217.4,381.8"/>
	<path id="path3" class="st0" d="M197.1,5.9c1.6,0,4.2,0,5.8,0c1.6,0,0.3-0.1-2.9-0.1S195.5,5.9,197.1,5.9 M189.9,6.1
		c0.4,0,1.1,0,1.5,0c0.4,0,0.1-0.1-0.7-0.1C189.9,6,189.5,6,189.9,6.1 M208.6,6.1c0.4,0,1.1,0,1.5,0c0.4,0,0.1-0.1-0.7-0.1
		C208.5,6,208.2,6,208.6,6.1 M186.4,6.3c0.3,0,0.7,0,1,0s0-0.1-0.5-0.1C186.3,6.2,186.1,6.2,186.4,6.3 M212.5,6.3c0.3,0,0.8,0,1.1,0
		c0.3,0,0.1-0.1-0.5-0.1S212.2,6.2,212.5,6.3 M183.6,6.5c0.2,0,0.5,0,0.7,0c0.2-0.1,0-0.1-0.3-0.1C183.6,6.4,183.4,6.4,183.6,6.5
		 M215.7,6.5c0.2,0,0.5,0,0.7,0c0.2-0.1,0-0.1-0.3-0.1C215.7,6.4,215.5,6.4,215.7,6.5 M209.7,24.9c0.2,0,0.6,0,0.9,0
		c0.2,0,0-0.1-0.4-0.1S209.4,24.8,209.7,24.9 M180.6,26.3c0.2,0.1,0.5,0.1,0.7,0c0.2,0,0-0.1-0.3-0.1
		C180.6,26.2,180.5,26.2,180.6,26.3 M185.8,26.8l-0.6,0.6L185.8,26.8c0.4-0.3,0.7-0.5,0.7-0.6C186.5,26,186.4,26.2,185.8,26.8
		 M179,27.1c0,0.7,0,0.7,0.1,0.1c0-0.3,0.2-0.7,0.3-0.7c0.1-0.1,0.1-0.1-0.1-0.1C179.1,26.3,179,26.5,179,27.1 M110.1,27
		c-0.5,0.3-0.8,0.5-0.7,0.5c0.2,0,1.7-0.8,1.7-0.9C111.1,26.5,111.1,26.5,110.1,27 M223.1,29.8l-0.8,0.8L223.1,29.8
		c0.5-0.4,0.9-0.8,0.9-0.8C224,28.8,223.8,29,223.1,29.8 M212.9,31.6c0,0.4,0,0.6,0.1,0.3c0-0.2,0-0.6,0-0.8
		C213,30.9,212.9,31.1,212.9,31.6 M217.9,32.7c0,0.8,0,1.2,0.1,0.7c0-0.4,0-1.1,0-1.5C217.9,31.5,217.9,31.9,217.9,32.7 M206.8,31.7
		c0,0.2,0.3,0.3,0.8,0.3c0.6,0,0.6,0,0.1-0.1C207.3,31.9,207,31.7,206.8,31.7C206.8,31.5,206.7,31.5,206.8,31.7 M210.9,32.2
		c0.2,0,0.5,0,0.7,0c0.2,0,0-0.1-0.3-0.1S210.8,32.2,210.9,32.2 M254.5,33c0.2,0,0.5,0,0.7,0c0.2,0,0-0.1-0.3-0.1
		C254.5,32.9,254.3,33,254.5,33 M185,34.7c0,0.4,0,0.5,0.1,0.3c0-0.2,0-0.5,0-0.7C185,34.1,185,34.3,185,34.7 M261.6,35.5
		c0.4,0.4,0.7,0.7,0.8,0.7c0.1,0-0.2-0.3-0.6-0.7c-0.4-0.4-0.7-0.7-0.8-0.7C261,34.9,261.2,35.2,261.6,35.5 M207.5,35.4
		c0.2,0,0.6,0,0.8,0c0.2,0,0-0.1-0.4-0.1C207.4,35.3,207.2,35.3,207.5,35.4 M211.3,35.6c0.2,0,0.5,0,0.7,0c0.2,0,0-0.1-0.3-0.1
		S211.1,35.5,211.3,35.6 M215.1,35.8c0.2,0.1,0.5,0.1,0.7,0c0.2,0,0-0.1-0.3-0.1C215.1,35.7,214.9,35.7,215.1,35.8 M226,36.6
		c0,0.6,0,0.8,0.1,0.5c0-0.3,0-0.8,0-1.1C226,35.8,226,36,226,36.6 M220.5,36.8c0,0.6,0,0.8,0.1,0.5c0-0.3,0-0.8,0-1.1
		C220.5,36,220.5,36.2,220.5,36.8 M126.9,37.7c0,0,0.3,0.3,0.6,0.6l0.6,0.6l-0.6-0.6C127.1,37.7,126.9,37.5,126.9,37.7 M176.5,39.7
		c0,0.4,0,0.6,0.1,0.3c0-0.2,0-0.6,0-0.8C176.5,39.1,176.5,39.3,176.5,39.7 M195,40.9l-0.7,0.7L195,40.9c0.8-0.6,0.9-0.7,0.7-0.7
		C195.7,40.2,195.4,40.5,195,40.9 M189.5,43.1c0.2,0,0.6,0,0.8,0c0.2,0,0-0.1-0.4-0.1S189.2,43.1,189.5,43.1 M185.8,44.2
		c0,0.5,0,0.7,0.1,0.4c0-0.2,0-0.6,0-0.9C185.8,43.5,185.8,43.7,185.8,44.2 M250.9,45c0,0.4,0,0.5,0.1,0.3c0-0.2,0-0.5,0-0.7
		C251,44.4,250.9,44.6,250.9,45 M245.8,45.3c0,0.5,0,0.7,0.1,0.4c0-0.2,0-0.6,0-0.9C245.8,44.7,245.8,44.9,245.8,45.3 M228.9,45.1
		c0.2,0,0.6,0,0.8,0c0.2-0.1,0-0.1-0.4-0.1C228.8,45,228.6,45,228.9,45.1 M231,45.1c0.2,0,0.6,0,0.8,0c0.2-0.1,0-0.1-0.4-0.1
		C230.9,45,230.8,45,231,45.1 M186,46.7c0,0.5,0,0.7,0.1,0.4c0-0.2,0-0.6,0-0.9C186,46,186,46.2,186,46.7 M186.2,49.4
		c0,0.5,0,0.7,0.1,0.4c0-0.3,0-0.7,0-1C186.2,48.6,186.2,48.9,186.2,49.4 M180.8,50.3c0,0.4,0,0.5,0.1,0.3c0-0.2,0-0.5,0-0.7
		C180.9,49.8,180.8,49.9,180.8,50.3 M298.1,53.1c0.5,0.5,1,1,1.1,1c0.1,0-0.3-0.4-0.9-1c-0.5-0.5-1-1-1.1-1
		C297.2,52.1,297.6,52.5,298.1,53.1 M290.7,54.9c0,0.4,0,0.5,0.1,0.3c0-0.2,0-0.5,0-0.7C290.8,54.3,290.7,54.5,290.7,54.9 M107.2,55
		c0,0.4,0,0.5,0.1,0.3c0.1-0.2,0.1-0.5,0-0.7C107.2,54.5,107.2,54.7,107.2,55 M295.2,55.5c0.4,0.4,0.7,0.7,0.8,0.7
		c0.1,0-0.2-0.3-0.6-0.7c-0.4-0.4-0.7-0.7-0.8-0.7C294.6,54.9,294.9,55.2,295.2,55.5 M102,57.1c0,0.5,0,0.7,0.1,0.4c0-0.3,0-0.7,0-1
		C102.1,56.3,102,56.6,102,57.1 M65.8,57.5l-0.6,0.6L65.8,57.5c0.7-0.5,0.8-0.6,0.6-0.6C66.4,56.8,66.1,57.1,65.8,57.5 M196.8,57.4
		c0.6,0,1.5,0,2.1,0c0.6,0,0.1-0.1-1-0.1C196.7,57.3,196.2,57.3,196.8,57.4 M201.1,57.4c0.6,0,1.5,0,2.1,0c0.6,0,0.1-0.1-1-0.1
		C201,57.3,200.6,57.3,201.1,57.4 M63.3,59.9l-0.8,0.8L63.3,59.9c0.8-0.7,1-0.8,0.8-0.8C64.1,59,63.7,59.4,63.3,59.9 M105.4,59.7
		c-0.2,0.2,0,0.3,0.7,0.3c0.8,0,0.8,0,0.2-0.1c-0.4,0-0.7-0.2-0.6-0.3C105.8,59.3,105.6,59.4,105.4,59.7 M336.8,60.1
		c0.4,0.4,0.7,0.7,0.8,0.7c0.1,0-0.2-0.3-0.6-0.7c-0.4-0.4-0.7-0.7-0.8-0.7C336.2,59.4,336.5,59.7,336.8,60.1 M82.8,62
		c0,0,0.3,0.3,0.6,0.6l0.6,0.6l-0.6-0.6C82.9,62,82.8,61.9,82.8,62 M280.9,63c0.5,0.5,1,1,1.1,1c0.1,0-0.3-0.4-0.9-1
		c-0.5-0.5-1-1-1.1-1C280,62,280.4,62.4,280.9,63 M58.9,64l-0.8,0.8L58.9,64c0.8-0.7,1-0.8,0.8-0.8C59.7,63.2,59.3,63.5,58.9,64
		 M76.5,65l-0.6,0.6L76.5,65c0.4-0.3,0.7-0.5,0.7-0.6C77.2,64.3,77.1,64.4,76.5,65 M288.7,67.1c0.4,0,0.9,0,1.2,0s0-0.1-0.6-0.1
		C288.6,67,288.3,67,288.7,67.1 M314.2,68.1l-0.7,0.7L314.2,68.1c0.5-0.3,0.8-0.6,0.8-0.7C315,67.2,314.9,67.4,314.2,68.1 M73,68.2
		l-0.6,0.6L73,68.2c0.7-0.5,0.8-0.6,0.6-0.6C73.6,67.5,73.3,67.8,73,68.2 M345.2,68.5c0.5,0.5,1,1,1.1,1c0.1,0-0.3-0.4-0.9-1
		c-0.5-0.5-1-1-1.1-1C344.3,67.5,344.7,68,345.2,68.5 M54,69.2L53.2,70L54,69.2c0.8-0.7,1-0.8,0.8-0.8C54.8,68.3,54.4,68.7,54,69.2
		 M321,70c0,0,0.3,0.3,0.6,0.6l0.6,0.6l-0.6-0.6C321.2,69.9,321,69.8,321,70 M347.1,70.6c0,0,0.3,0.3,0.6,0.6l0.6,0.6l-0.6-0.6
		C347.3,70.5,347.1,70.4,347.1,70.6 M88.6,73.1L88,73.8L88.6,73.1c0.4-0.3,0.7-0.5,0.7-0.6C89.3,72.4,89.1,72.5,88.6,73.1
		 M81.2,73.2c0.3,0.4,0.4,0.4,0.7,0c0.3-0.4,0.3-0.4,0-0.1c-0.3,0.2-0.4,0.2-0.7,0C80.9,72.8,80.9,72.8,81.2,73.2 M85,76.2
		c-0.6,0.6-0.6,0.6-0.2,0.9c0.4,0.3,0.4,0.3,0.1,0c-0.2-0.3-0.2-0.4,0.3-0.9c0.3-0.3,0.5-0.6,0.5-0.6C85.7,75.6,85.4,75.9,85,76.2
		 M97.3,77.6c0.2,0.2,0.3,0.5,0.2,0.7c-0.1,0.2-0.1,0.2,0.1,0c0.2-0.2,0.2-0.3-0.2-0.7C97,77.1,97,77.1,97.3,77.6 M95.6,79.9
		l-0.7,0.7L95.6,79.9c0.5-0.3,0.8-0.6,0.8-0.7C96.4,79.1,96.3,79.3,95.6,79.9 M87.6,80.3l0.5,0.6l0.5-0.6l0.5-0.6l-0.5,0.5l-0.5,0.5
		l-0.5-0.5L87,79.7L87.6,80.3 M312.4,80.9c0.2,0,0.6,0,0.8,0c0.2,0,0-0.1-0.4-0.1C312.3,80.8,312.2,80.9,312.4,80.9 M320.4,81.7
		c-0.5,0.5-0.8,0.9-0.8,0.9c0.1,0,0.5-0.4,1-0.9c0.5-0.5,0.8-0.9,0.8-0.9C321.3,80.8,320.9,81.2,320.4,81.7 M92,83.2l-0.6,0.6
		L92,83.2c0.7-0.5,0.8-0.6,0.6-0.6C92.6,82.6,92.3,82.9,92,83.2 M310,83.3c0.2,0,0.6,0,0.9,0c0.2,0,0-0.1-0.4-0.1
		S309.8,83.3,310,83.3 M311.3,84.1c-0.4,0.4-0.6,0.7-0.6,0.8c0,0,0.4-0.3,0.8-0.7C312.3,83.2,312.2,83.1,311.3,84.1 M317.7,84.6
		l-1,1L317.7,84.6c0.6-0.5,1.1-1,1.1-1C318.8,83.5,318.6,83.6,317.7,84.6 M311.8,85.9c0.4,0.4,0.8,0.8,0.9,0.8
		c0.1,0-0.2-0.4-0.7-0.8c-0.4-0.4-0.8-0.8-0.9-0.8C311.1,85.1,311.4,85.5,311.8,85.9 M88.4,86.4L87.8,87L88.4,86.4
		c0.7-0.5,0.8-0.6,0.6-0.6C89,85.7,88.7,86,88.4,86.4 M315.1,87.4c-0.4,0.4-0.8,0.6-0.9,0.6c-0.1-0.1-0.1,0,0,0.1
		c0.1,0.2,1.7-1,1.7-1.3C315.8,86.6,315.7,86.8,315.1,87.4 M99.9,96.1l-0.6,0.6L99.9,96.1c0.7-0.5,0.8-0.6,0.6-0.6
		C100.5,95.4,100.2,95.7,99.9,96.1 M300.2,96.3c0.4,0.4,0.7,0.7,0.8,0.7c0.1,0-0.2-0.3-0.6-0.7c-0.4-0.4-0.7-0.7-0.8-0.7
		C299.6,95.6,299.8,96,300.2,96.3 M94.8,100.9l-2.9,2.9L94.8,100.9c2.8-2.6,3.1-2.9,2.9-2.9C97.7,98,96.4,99.3,94.8,100.9
		 M304.9,100.8c1.3,1.3,2.4,2.4,2.5,2.4c0.1,0-1-1.1-2.3-2.4c-1.3-1.3-2.4-2.4-2.5-2.4C302.5,98.4,303.5,99.5,304.9,100.8
		 M309.1,105.2c0.4,0.4,0.7,0.7,0.8,0.7c0.1,0-0.2-0.3-0.6-0.7c-0.4-0.4-0.7-0.7-0.8-0.7C308.5,104.6,308.7,104.9,309.1,105.2
		 M90.5,105.5l-0.7,0.7L90.5,105.5c0.8-0.6,0.9-0.7,0.7-0.7C91.2,104.8,90.9,105.1,90.5,105.5 M99.5,177.6c0.5,0,1.4,0,1.9,0
		c0.5,0,0.1-0.1-0.9-0.1C99.4,177.5,98.9,177.5,99.5,177.6 M209.5,177.6c0.6,0,1.5,0,2,0c0.5,0,0-0.1-1-0.1
		C209.3,177.5,208.9,177.5,209.5,177.6 M85,183.4l-0.6,0.6L85,183.4c0.7-0.5,0.8-0.6,0.6-0.6C85.6,182.8,85.4,183.1,85,183.4
		 M225.9,184.4c0,0,0.3,0.3,0.6,0.6l0.6,0.6l-0.6-0.6C226.1,184.4,225.9,184.3,225.9,184.4 M83.3,185.2l-0.6,0.6L83.3,185.2
		c0.7-0.5,0.8-0.6,0.6-0.6C83.9,184.6,83.6,184.8,83.3,185.2 M99.8,184.7c0.5,0,1.2,0,1.6,0c0.4,0,0-0.1-0.8-0.1
		C99.6,184.6,99.3,184.7,99.8,184.7 M52.7,187.1l0,0.4l-25.9,0.1l-25.9,0.1l25.9,0c27.5,0.1,26.4,0.1,26-0.8
		C52.8,186.7,52.7,186.8,52.7,187.1 M347.2,187.2c0,0.4,0.2,0.4,25.9,0.4l25.8,0l-25.8-0.1C348.8,187.5,347.4,187.5,347.2,187.2
		C347.2,186.9,347.2,186.9,347.2,187.2 M110.3,188.8c0.4,0.4,0.7,0.7,0.8,0.7c0.1,0-0.2-0.3-0.6-0.7c-0.4-0.4-0.7-0.7-0.8-0.7
		C109.7,188.1,109.9,188.4,110.3,188.8 M200.6,189.1l-0.7,0.7L200.6,189.1c0.5-0.3,0.8-0.6,0.8-0.7
		C201.4,188.2,201.2,188.4,200.6,189.1 M141,188.7c0.3,0,0.7,0,1,0c0.2,0,0-0.1-0.5-0.1C140.9,188.6,140.7,188.6,141,188.7
		 M143.3,188.7c0.2,0,0.6,0,0.8,0c0.2-0.1,0-0.1-0.4-0.1C143.2,188.6,143.1,188.6,143.3,188.7 M172.1,188.7c0.2,0.1,0.5,0.1,0.7,0
		c0.2,0,0-0.1-0.3-0.1C172.1,188.6,171.9,188.6,172.1,188.7 M173.8,188.7c0.2,0,0.6,0,0.8,0c0.2-0.1,0-0.1-0.4-0.1
		C173.7,188.6,173.6,188.6,173.8,188.7 M255.1,188.7c0.5,0,1.3,0,1.8,0c0.5,0,0-0.1-0.9-0.1C255,188.6,254.6,188.6,255.1,188.7
		 M290.2,188.7c0.6,0,1.5,0,2.1,0c0.6,0,0.1-0.1-1-0.1C290.1,188.6,289.7,188.6,290.2,188.7 M324.7,188.7c0.4,0,0.9,0,1.3,0
		c0.4,0,0.1-0.1-0.6-0.1C324.6,188.6,324.3,188.6,324.7,188.7 M320.3,190.7l-0.6,0.6L320.3,190.7c0.7-0.5,0.8-0.6,0.6-0.6
		C320.9,190.1,320.6,190.4,320.3,190.7 M246.7,192.2c-0.3,0.3-0.5,0.5-0.4,0.5s0.4-0.2,0.6-0.5C247.5,191.5,247.4,191.6,246.7,192.2
		 M152.9,192.6c0.4,0.4,0.7,0.7,0.8,0.7c0.1,0-0.2-0.3-0.6-0.7c-0.4-0.4-0.7-0.7-0.8-0.7C152.2,191.9,152.5,192.2,152.9,192.6
		 M265.1,192.1c0,0,0.3,0.3,0.6,0.6l0.6,0.6l-0.6-0.6C265.3,192.1,265.1,192,265.1,192.1 M318.4,192.5c0,0.6,0.2,0.7,0.5,0.3
		c0.1-0.1,0.1-0.2-0.1-0.1c-0.1,0.1-0.3-0.1-0.3-0.3C318.5,192,318.5,192.1,318.4,192.5 M279.9,193.1l-0.8,0.8L279.9,193.1
		c0.8-0.7,1-0.8,0.8-0.8C280.7,192.3,280.3,192.7,279.9,193.1 M291.1,195c0.3,0,0.7,0,1,0c0.2,0,0-0.1-0.5-0.1
		C291,194.9,290.8,194.9,291.1,195 M141.6,195.6c0.3,0,0.7,0,1,0c0.2,0,0-0.1-0.5-0.1C141.5,195.5,141.3,195.5,141.6,195.6
		 M253.8,195.6c0.2,0,0.6,0,0.9,0c0.2,0,0-0.1-0.4-0.1C253.8,195.5,253.6,195.5,253.8,195.6 M231.7,197.9c0,0.7,0,0.9,0.1,0.5
		c0-0.4,0-0.9,0-1.2C231.8,197,231.7,197.3,231.7,197.9 M297.2,196.9c0,0,0.3,0.3,0.6,0.6l0.6,0.6l-0.6-0.6
		C297.4,196.9,297.2,196.7,297.2,196.9 M188.8,197.9c0,0.5,0,0.7,0.1,0.4c0-0.3,0-0.7,0-1C188.8,197.1,188.8,197.4,188.8,197.9
		 M248.1,198.2l-0.7,0.7L248.1,198.2c0.8-0.6,0.9-0.7,0.7-0.7C248.8,197.4,248.5,197.8,248.1,198.2 M259.6,197.5
		c0,0,0.3,0.3,0.6,0.6l0.6,0.6l-0.6-0.6C259.8,197.5,259.6,197.3,259.6,197.5 M224,199.3c0,0.5,0,0.7,0.1,0.4c0-0.3,0-0.7,0-1
		C224.1,198.5,224,198.8,224,199.3 M103.8,198.8c2.9,0,7.6,0,10.5,0c2.9,0,0.5-0.1-5.3-0.1C103.2,198.7,100.9,198.7,103.8,198.8
		 M26,199.2c25.5,0.1,25.7,0.1,25.8,0.4c0.1,0.3,0.1,0.3,0.1-0.1l0-0.4L26,199.2l-25.7-0.1L26,199.2 M77.3,200.6
		c0,0.9,0,1.3,0.1,0.8c0-0.5,0-1.2,0-1.7C77.3,199.3,77.3,199.7,77.3,200.6 M348.2,199.3c-0.1,0.2-0.1,0.5,0,0.8
		c0.1,0.5,0.1,0.4,0.1-0.2l0-0.7l25.7-0.1l25.7-0.1l-25.7,0C352,199,348.3,199.1,348.2,199.3 M85,200.7c0,0.8,0,1.1,0.1,0.6
		s0-1,0-1.4C85.1,199.6,85,199.9,85,200.7 M188.8,200.6c0,0.5,0,0.7,0.1,0.4c0-0.2,0-0.6,0-0.9C188.8,199.9,188.8,200.1,188.8,200.6
		 M231.7,200.9c0,0.7,0,0.9,0.1,0.5c0-0.4,0-0.9,0-1.2C231.8,199.9,231.7,200.2,231.7,200.9 M283.1,200.8c0.1,0.1,3.9,0.1,8.5,0.1
		l8.3-0.1l-8.5-0.1C286.8,200.7,283.1,200.8,283.1,200.8 M319.7,202.9c0,0.4,0,0.6,0.1,0.3c0-0.2,0-0.6,0-0.8
		C319.7,202.2,319.7,202.4,319.7,202.9 M307.4,203c0,0.4,0,0.5,0.1,0.3c0-0.2,0-0.5,0-0.7C307.4,202.4,307.4,202.6,307.4,203
		 M245.8,204.7c0,0.9,0,1.2,0.1,0.7c0-0.5,0-1.2,0-1.6C245.8,203.4,245.8,203.8,245.8,204.7 M262.6,204.7c0,0.8,0,1.1,0.1,0.6
		c0-0.4,0-1,0-1.4C262.7,203.6,262.6,203.9,262.6,204.7 M144.9,206.7c-9.7,0.1-12.3,0.2-12.3,0.4c0,0.1,0,0.2,0.1,0.1
		c0.1-0.1,4.1-0.2,12.2-0.2c7.9,0,12.2-0.1,12.3-0.2c0.1-0.1,0.1-0.2,0.1-0.2S151.6,206.7,144.9,206.7 M289,206.9
		c3.5,0,9.1,0,12.5,0c3.4,0,0.6-0.1-6.3-0.1C288.3,206.8,285.5,206.9,289,206.9 M260.1,211.3l-0.8,0.8L260.1,211.3
		c0.8-0.7,1-0.8,0.8-0.8C260.9,210.5,260.5,210.9,260.1,211.3 M181.8,211.4c0,0.4,0,0.6,0.1,0.3c0-0.2,0-0.6,0-0.8
		C181.9,210.7,181.8,210.9,181.8,211.4 M348.2,211.8c0,0.7,0,0.9,0.1,0.5s0-0.9,0-1.2C348.2,210.8,348.2,211.1,348.2,211.8
		 M285,211.7c0.4,0.4,0.8,0.8,0.9,0.8c0.1,0-0.2-0.4-0.7-0.8c-0.4-0.4-0.8-0.8-0.9-0.8C284.3,210.9,284.6,211.2,285,211.7
		 M51.7,212.4c0,0.7,0,0.9,0.1,0.5c0-0.4,0-0.9,0-1.2C51.8,211.4,51.7,211.7,51.7,212.4 M399.6,212.9c0,0.4,0,0.5,0.1,0.3
		c0.1-0.2,0.1-0.5,0-0.7C399.7,212.3,399.6,212.5,399.6,212.9 M0.2,213.5c0,0.4,0,0.5,0.1,0.3c0-0.2,0-0.5,0-0.7
		C0.3,212.9,0.2,213.1,0.2,213.5 M291,214.2c0.2,0,0.6,0,0.9,0c0.2,0,0-0.1-0.4-0.1C291,214.1,290.8,214.2,291,214.2 M225.2,215.1
		l-0.8,0.8L225.2,215.1c0.8-0.7,1-0.8,0.8-0.8C226,214.3,225.7,214.6,225.2,215.1 M112.8,215.3l-0.8,0.8L112.8,215.3
		c0.8-0.7,1-0.8,0.8-0.8C113.6,214.5,113.2,214.8,112.8,215.3 M82.6,214.9c0,0,0.3,0.3,0.6,0.6l0.6,0.6l-0.6-0.6
		C82.7,214.9,82.6,214.8,82.6,214.9 M348,215.5c0,0.4,0,0.6,0.1,0.3c0-0.2,0-0.6,0-0.8C348,214.9,348,215.1,348,215.5 M51.9,215.9
		c0,0.4,0,0.6,0.1,0.3c0-0.2,0-0.6,0-0.8C52,215.3,51.9,215.5,51.9,215.9 M265.5,216.5c-0.5,0.5-0.8,0.9-0.8,0.9
		c0.1,0,0.5-0.4,1-0.9c0.5-0.5,0.8-0.9,0.8-0.9C266.5,215.6,266,216,265.5,216.5 M178.7,218.1l-0.6,0.6L178.7,218.1
		c0.4-0.3,0.7-0.5,0.7-0.6C179.4,217.3,179.2,217.5,178.7,218.1 M256.9,220.7c0.2,0,0.5,0,0.7,0c0.2-0.1,0-0.1-0.3-0.1
		S256.7,220.7,256.9,220.7 M289.5,220.7c0.2,0,0.6,0,0.8,0c0.2,0,0-0.1-0.4-0.1S289.2,220.7,289.5,220.7 M293.3,220.7
		c0.2,0,0.5,0,0.7,0c0.2-0.1,0-0.1-0.3-0.1C293.3,220.6,293.1,220.7,293.3,220.7 M83,232c0.4,0,1.1,0,1.5,0c0.4,0,0.1-0.1-0.7-0.1
		C82.9,231.9,82.6,232,83,232 M97.6,232c0.4,0,1,0,1.4,0c0.4,0,0.1-0.1-0.6-0.1C97.6,231.9,97.2,232,97.6,232 M144.1,232
		c0.4,0,1,0,1.4,0c0.4,0,0.1-0.1-0.6-0.1C144.1,231.9,143.8,232,144.1,232 M110.7,238.5l0,6.4l0.1-6.3l0.1-6.3l2.4-0.1l2.4-0.1
		l-2.5,0l-2.5,0L110.7,238.5 M126.7,232.2c0.7,0,1.8,0,2.4,0s0.1-0.1-1.2-0.1C126.5,232.2,126,232.2,126.7,232.2 M157.1,232.3
		c-0.1,0.1-0.1,3,0,6.3l0.1,6l0-6.2l0-6.2l2.4-0.1l2.4-0.1l-2.4,0C157.8,232.1,157.2,232.1,157.1,232.3 M175.2,232.2
		c-0.1,0.1-0.1,0.2-0.1,0.3c0,0.1,0.1,0.1,0.2,0c0.1-0.1,0.5-0.3,0.9-0.3l0.8-0.1l-0.8,0C175.7,232.1,175.3,232.1,175.2,232.2
		 M186.1,232.8v0.7l1.8,0l1.8,0l-1.7-0.1c-1.7-0.1-1.7-0.1-1.7-0.5v-0.5l4.3-0.1l4.3-0.1l-4.4,0l-4.4,0V232.8 M200.9,232.2
		c-0.2,0.2-0.2,12.3,0,12.4c0.1,0.1,0.1-2.7,0.1-6.1L200.9,232.2l3.1,0.1h3.1v0.5v0.5l-2.4,0.1l-2.4,0.1l2.5,0l2.5,0v-0.7v-0.7h-3.1
		C202.5,232.1,201,232.1,200.9,232.2 M83.2,233.2c0.2,0.1,0.5,0.1,0.7,0c0.2,0,0-0.1-0.3-0.1C83.2,233.1,83,233.2,83.2,233.2
		 M112.2,233.5c-0.1,0.1-0.1,1.2,0,2.4l0.1,2.2l0-2.3l0-2.3l1.1-0.1l1.1-0.1l-1.1,0C112.6,233.3,112.2,233.3,112.2,233.5
		 M127.5,233.4c0.4,0,0.9,0,1.2,0c0.3,0,0-0.1-0.6-0.1C127.4,233.3,127.1,233.4,127.5,233.4 M159.2,233.4c0.4,0,0.9,0,1.2,0
		c0.3,0,0-0.1-0.6-0.1C159.1,233.3,158.8,233.4,159.2,233.4 M192.1,233.4c0.5,0,1.4,0,1.9,0s0.1-0.1-0.9-0.1
		C192,233.3,191.6,233.4,192.1,233.4 M95.1,234.5l-0.6,0.6L95.1,234.5c0.7-0.5,0.8-0.6,0.6-0.6C95.7,233.9,95.5,234.2,95.1,234.5
		 M164.6,235.4c0,0.4,0,0.5,0.1,0.3c0.1-0.2,0.1-0.5,0-0.7C164.6,234.9,164.6,235.1,164.6,235.4 M92.3,238.5c0,0.8,0,1.1,0.1,0.6
		c0-0.4,0-1,0-1.4C92.4,237.4,92.3,237.8,92.3,238.5 M150.6,238.3c0,0.5,0,0.7,0.1,0.4c0-0.3,0-0.7,0-1
		C150.6,237.5,150.6,237.8,150.6,238.3 M203.5,237.8c0.6,0,1.5,0,2.1,0c0.6,0,0.1-0.1-1-0.1C203.4,237.7,202.9,237.7,203.5,237.8
		 M206.8,238.2l0,0.6l-2.2,0.1l-2.2,0.1l2.2,0c2.4,0,2.5,0,2.4-1C206.8,237.6,206.8,237.7,206.8,238.2 M127.6,238.8c0.3,0,0.7,0,1,0
		c0.2,0,0-0.1-0.5-0.1C127.5,238.7,127.3,238.7,127.6,238.8 M162,238.8c0,0.1,0.3,0.5,0.7,0.8l0.7,0.7l-0.6-0.7
		c-0.4-0.4-0.6-0.8-0.5-0.8c0.1-0.1,0-0.1-0.1-0.1S162,238.7,162,238.8 M112,242c0,1.5,0,2.7,0.1,2.7c0.1-0.1,0.1-1.2,0.1-2.6v-2.6
		l0.9-0.1l0.9-0.1l-1,0l-1,0L112,242 M159.1,239.4c0.3,0,0.7,0,1,0c0.2,0,0-0.1-0.5-0.1C159,239.3,158.8,239.3,159.1,239.4
		 M173.8,239.9c0.1,0.1,1.1,0.1,2.2,0.1l2.1-0.1l-2.2-0.1C174.7,239.7,173.8,239.8,173.8,239.9 M127.5,239.9c0.4,0,0.9,0,1.2,0
		c0.3,0,0-0.1-0.6-0.1C127.4,239.9,127.1,239.9,127.5,239.9 M202.8,244.7c0.8,0,2.2,0,3,0c0.8,0,0.1-0.1-1.5-0.1
		C202.6,244.6,202,244.7,202.8,244.7 M82.5,244.9c0.4,0,0.9,0,1.3,0c0.4,0,0.1-0.1-0.6-0.1S82.2,244.9,82.5,244.9 M97.6,244.9
		c0.4,0,0.9,0,1.3,0c0.4,0,0.1-0.1-0.6-0.1S97.2,244.9,97.6,244.9 M144.1,244.9c0.4,0,0.9,0,1.2,0c0.3,0,0-0.1-0.6-0.1
		C144,244.8,143.8,244.9,144.1,244.9 M43.8,271.8l-0.7,0.7L43.8,271.8c0.8-0.6,0.9-0.7,0.7-0.7C44.5,271.1,44.1,271.4,43.8,271.8
		 M40.7,274.7l-0.6,0.6L40.7,274.7c0.4-0.3,0.7-0.5,0.7-0.6C41.4,274,41.2,274.1,40.7,274.7 M362.4,276.5c0,0.4,0,0.6,0.1,0.3
		c0-0.2,0-0.6,0-0.8C362.5,275.9,362.4,276.1,362.4,276.5 M356.5,276.8c0,0.4,0,0.5,0.1,0.3c0.1-0.2,0.1-0.5,0-0.7
		C356.5,276.3,356.5,276.5,356.5,276.8 M37.5,277.7l-0.6,0.6L37.5,277.7c0.4-0.3,0.7-0.5,0.7-0.6C38.2,276.9,38.1,277.1,37.5,277.7
		 M336.1,306.9c0.3,0,0.8,0,1.1,0c0.3,0,0.1-0.1-0.5-0.1S335.8,306.8,336.1,306.9 M347.9,310c0.2,0,0.6,0,0.9,0c0.2,0,0-0.1-0.4-0.1
		C347.8,310,347.6,310,347.9,310 M301.1,314.1l-0.6,0.6L301.1,314.1c0.7-0.5,0.8-0.6,0.6-0.6C301.7,313.5,301.4,313.8,301.1,314.1
		 M333.9,317.3c0,0,0.3,0.3,0.6,0.6l0.6,0.6l-0.6-0.6C334,317.3,333.9,317.1,333.9,317.3 M87.9,320.7c0.4,0.4,0.7,0.7,0.8,0.7
		c0.1,0-0.2-0.3-0.6-0.7c-0.4-0.4-0.7-0.7-0.8-0.7C87.3,320,87.6,320.3,87.9,320.7 M340.4,322.3c0.2,0,0.5,0,0.7,0
		c0.2,0,0-0.1-0.3-0.1C340.4,322.2,340.3,322.3,340.4,322.3 M332.6,326.7c0.4,0.4,0.8,0.8,0.9,0.8c0.1,0-0.2-0.4-0.7-0.8
		c-0.4-0.4-0.8-0.8-0.9-0.8C331.8,325.9,332.1,326.3,332.6,326.7 M87.8,327.6c0.6,0.6,1.2,1.1,1.2,1.1
		C89,328.7,88.5,328.1,87.8,327.6l-1.1-1.2L87.8,327.6 M326.1,327.2c0.4,0.4,0.7,0.7,0.8,0.7c0.1,0-0.2-0.3-0.6-0.7
		c-0.4-0.4-0.7-0.7-0.8-0.7C325.5,326.5,325.8,326.8,326.1,327.2 M322.2,330.6c0,0,0.3,0.3,0.6,0.6l0.6,0.6l-0.6-0.6
		C322.3,330.5,322.2,330.4,322.2,330.6 M330.4,331.7c0.5,0.5,1,1,1.1,1c0.1,0-0.3-0.4-0.9-1c-0.5-0.5-1-1-1.1-1
		C329.5,330.7,329.9,331.1,330.4,331.7 M334.3,331.9l-0.8,0.8L334.3,331.9c0.8-0.7,1-0.8,0.8-0.8
		C335.2,331.1,334.8,331.5,334.3,331.9 M326.4,335c0.4,0.4,0.8,0.8,0.9,0.8c0.1,0-0.2-0.4-0.7-0.8c-0.4-0.4-0.8-0.8-0.9-0.8
		C325.7,334.3,326,334.6,326.4,335 M307.4,335.4c-0.6,0.7-0.7,0.8-0.5,1c0.2,0.2,0.2,0.2,0.1,0c-0.1-0.2,0.1-0.5,0.6-1
		c0.4-0.4,0.7-0.8,0.7-0.8C308.2,334.7,307.9,335,307.4,335.4 M320.2,335.7c0.6,0.6,1.1,1.1,1.2,1.1c0.1,0-0.4-0.5-1-1.1
		s-1.1-1.1-1.2-1.1C319.2,334.7,319.6,335.1,320.2,335.7 M74.3,338.9l-0.8,0.8L74.3,338.9c0.8-0.7,1-0.8,0.8-0.8
		C75.2,338,74.8,338.4,74.3,338.9 M80.9,338.9l-0.8,0.8L80.9,338.9c0.8-0.7,1-0.8,0.8-0.8C81.7,338,81.3,338.4,80.9,338.9
		 M316.1,339c0.4,0.4,0.8,0.8,0.9,0.8c0.1,0-0.2-0.4-0.7-0.8c-0.4-0.4-0.8-0.8-0.9-0.8C315.4,338.2,315.7,338.6,316.1,339 M98,338.9
		c0,0,0.3,0.3,0.6,0.6l0.6,0.6l-0.6-0.6C98.2,338.9,98,338.7,98,338.9 M310.1,339.9c0.6,0.6,1.1,1.1,1.2,1.1c0.1,0-0.4-0.5-1-1.1
		s-1.1-1.1-1.2-1.1C309.1,338.8,309.5,339.3,310.1,339.9 M324.1,339.8c0.5,0.5,1,1,1.1,1c0.1,0-0.3-0.4-0.9-1c-0.5-0.5-1-1-1.1-1
		C323.1,338.8,323.5,339.3,324.1,339.8 M325.9,340l-0.7,0.7L325.9,340c0.5-0.3,0.8-0.6,0.8-0.7C326.7,339.1,326.6,339.3,325.9,340
		 M55.2,343.4c0.5,0.5,0.9,0.9,0.9,0.9C56.3,344.4,56.2,344.2,55.2,343.4l-0.9-0.9L55.2,343.4 M320.2,343.3c0.4,0.4,0.7,0.7,0.8,0.7
		c0.1,0-0.2-0.3-0.6-0.7c-0.4-0.4-0.7-0.7-0.8-0.7C319.6,342.6,319.8,342.9,320.2,343.3 M344.1,343.9l-0.7,0.7L344.1,343.9
		c0.8-0.6,0.9-0.7,0.7-0.7C344.9,343.2,344.5,343.5,344.1,343.9 M314.3,344.3c0.4,0.4,0.7,0.7,0.8,0.7c0.1,0-0.2-0.3-0.6-0.7
		c-0.4-0.4-0.7-0.7-0.8-0.7C313.6,343.6,313.9,343.9,314.3,344.3 M105.1,346.1c0.2,0,0.6,0,0.9,0c0.2,0,0-0.1-0.4-0.1
		C105.1,346,104.9,346,105.1,346.1 M338.2,349.9l-0.7,0.7L338.2,349.9c0.5-0.3,0.8-0.6,0.8-0.7C339,349,338.8,349.2,338.2,349.9
		 M62,350.2c0.4,0.4,0.7,0.7,0.8,0.7s-0.2-0.3-0.6-0.7c-0.4-0.4-0.7-0.7-0.8-0.7C61.4,349.5,61.6,349.8,62,350.2 M189,353.6
		c0.2,0.1,0.5,0.1,0.7,0c0.2,0,0-0.1-0.3-0.1C188.9,353.5,188.8,353.6,189,353.6 M210.3,353.6c0.2,0.1,0.5,0.1,0.7,0
		c0.2,0,0-0.1-0.3-0.1C210.3,353.5,210.2,353.6,210.3,353.6 M192.1,353.8c0.3,0,0.8,0,1.1,0c0.3,0,0.1-0.1-0.5-0.1
		S191.8,353.8,192.1,353.8 M206.8,353.8c0.3,0,0.8,0,1.1,0c0.3,0,0.1-0.1-0.5-0.1S206.5,353.8,206.8,353.8 M198.8,354
		c0.7,0,1.8,0,2.5,0c0.7,0,0.1-0.1-1.2-0.1S198.1,354,198.8,354 M272.9,362.7c0,0.4,0,0.6,0.1,0.3c0-0.2,0-0.6,0-0.8
		C273,362,272.9,362.2,272.9,362.7 M284.2,369.2l-0.6,0.6L284.2,369.2c0.7-0.5,0.8-0.6,0.6-0.6C284.9,368.5,284.6,368.8,284.2,369.2
		 M204.6,370.9c0,0.6,0,0.8,0.1,0.5c0-0.3,0-0.8,0-1.1C204.7,370,204.6,370.3,204.6,370.9 M271.1,370.4c0,0,0.3,0.3,0.6,0.6l0.6,0.6
		l-0.6-0.6C271.3,370.3,271.1,370.2,271.1,370.4 M199.7,372.4c0,0.9,0,1.2,0.1,0.7c0-0.5,0-1.2,0-1.6
		C199.7,371.1,199.7,371.5,199.7,372.4 M174.6,371.8c0.4,0,0.9,0,1.3,0c0.4,0,0.1-0.1-0.6-0.1C174.5,371.7,174.2,371.8,174.6,371.8
		 M197.2,373.9c0.1,0.1,0.5,0.1,0.9,0.1l0.8-0.1l-0.9-0.1C197.5,373.8,197.1,373.8,197.2,373.9 M205.2,373.8c0.3,0,0.7,0,1,0
		c0.2,0,0-0.1-0.5-0.1C205.1,373.7,204.9,373.8,205.2,373.8 M197.1,377c0,0.7,0,1,0.1,0.6c0-0.4,0-0.9,0-1.3
		C197.1,376,197.1,376.3,197.1,377 M216.3,376.2c0.2,0.1,0.5,0.1,0.7,0c0.2,0,0-0.1-0.3-0.1C216.3,376.1,216.1,376.1,216.3,376.2
		 M186.6,378c0,0.6,0,0.8,0.1,0.5c0-0.3,0-0.8,0-1.1C186.6,377.2,186.6,377.4,186.6,378 M204.8,378.7c0,0.5,0,0.7,0.1,0.4
		c0-0.3,0-0.7,0-1C204.8,377.9,204.8,378.2,204.8,378.7 M179.3,379.4c0,0.4,0,0.5,0.1,0.3c0.1-0.2,0.1-0.5,0-0.7
		C179.3,378.9,179.3,379,179.3,379.4 M199.9,380.5c0,1,0,1.4,0.1,0.9c0-0.5,0-1.3,0-1.8C199.9,379.1,199.9,379.5,199.9,380.5
		 M167,380.5c0,0.8,0,1.1,0.1,0.6s0-1,0-1.4C167,379.4,167,379.7,167,380.5 M186.4,385.6c0,0.7,0,0.9,0.1,0.5c0-0.4,0-0.9,0-1.2
		C186.4,384.7,186.4,385,186.4,385.6 M208.5,386.6c0.1,0.8,0.1,0.8,0.2,0.2c0-0.4,0-0.7-0.1-0.8
		C208.5,385.8,208.5,386.1,208.5,386.6 M191.3,388c0,0.5,0,0.7,0.1,0.4c0-0.3,0-0.7,0-1C191.4,387.2,191.3,387.5,191.3,388
		 M187.3,389.6c0.5,0,1.2,0,1.7,0c0.5,0,0.1-0.1-0.8-0.1C187.2,389.6,186.8,389.6,187.3,389.6 M214.1,389.6c0.3,0,0.8,0,1.1,0
		c0.3,0,0.1-0.1-0.5-0.1S213.8,389.6,214.1,389.6 M207.8,405.3c0.2,0,0.5,0,0.7,0c0.2-0.1,0-0.1-0.3-0.1S207.6,405.2,207.8,405.3"/>
	<path id="path4" class="st0" d="M192.2,5.9c0.4,0,1,0,1.4,0c0.4,0,0.1-0.1-0.6-0.1C192.2,5.8,191.9,5.8,192.2,5.9 M206.3,5.9
		c0.4,0,1,0,1.4,0c0.4,0,0.1-0.1-0.6-0.1C206.3,5.8,205.9,5.8,206.3,5.9 M188.1,6.1c0.2,0,0.6,0,0.9,0c0.2,0,0-0.1-0.4-0.1
		S187.8,6,188.1,6.1 M211,6.1c0.2,0,0.6,0,0.8,0c0.2-0.1,0-0.1-0.4-0.1C210.9,6,210.8,6,211,6.1 M203.9,27.5l-0.7,0.7L203.9,27.5
		c0.8-0.6,0.9-0.7,0.7-0.7C204.7,26.7,204.3,27.1,203.9,27.5 M229.3,27.1c0.4,0,0.9,0,1.2,0c0.3,0,0-0.1-0.6-0.1
		C229.1,27,228.9,27,229.3,27.1 M170.9,27.4c1.2,0.1,2.5,0.2,2.4,0c-0.1-0.1-0.7-0.1-1.5-0.1C171,27.4,170.6,27.4,170.9,27.4
		 M188.5,29.2c0.2,0,0.6,0,0.8,0c0.2-0.1,0-0.1-0.4-0.1C188.4,29.2,188.2,29.2,188.5,29.2 M163.6,30.2l-0.7,0.7L163.6,30.2
		c0.8-0.6,0.9-0.7,0.7-0.7C164.3,29.5,163.9,29.8,163.6,30.2 M170.8,31c0.4,0,0.9,0,1.2,0c0.3,0,0-0.1-0.6-0.1
		C170.7,31,170.5,31,170.8,31 M227.4,32.5l-0.6,0.6L227.4,32.5c0.7-0.5,0.8-0.6,0.6-0.6C228,31.9,227.7,32.2,227.4,32.5 M209.8,32.2
		c0.2,0,0.5,0,0.7,0c0.2,0,0-0.1-0.3-0.1S209.6,32.2,209.8,32.2 M252.6,33c0.4,0,0.9,0,1.2,0c0.3,0,0-0.1-0.6-0.1
		C252.5,32.9,252.3,33,252.6,33 M217.7,34.6c0,0.4,0,0.6,0.1,0.3c0-0.2,0-0.6,0-0.8C217.7,33.9,217.7,34.1,217.7,34.6 M208.8,35.4
		c0.2,0,0.5,0,0.7,0c0.2,0,0-0.1-0.3-0.1C208.7,35.3,208.6,35.3,208.8,35.4 M212.5,35.6c0.2,0,0.5,0,0.7,0c0.2,0,0-0.1-0.3-0.1
		S212.3,35.5,212.5,35.6 M216.3,35.8c0.2,0.1,0.5,0.1,0.7,0c0.2,0,0-0.1-0.3-0.1C216.3,35.7,216.1,35.7,216.3,35.8 M188.1,39.2
		c0.2,0,0.6,0,0.8,0c0.2,0,0-0.1-0.4-0.1C188,39.1,187.8,39.1,188.1,39.2 M251.4,39.5c0.2,0,0.6,0,0.8,0c0.2,0,0-0.1-0.4-0.1
		C251.3,39.5,251.2,39.5,251.4,39.5 M185.6,42.9c0,0.4,0,0.6,0.1,0.3c0-0.2,0-0.6,0-0.8C185.6,42.2,185.6,42.4,185.6,42.9
		 M166.7,42.5c0.2,0,0.6,0,0.9,0c0.2,0,0-0.1-0.4-0.1C166.6,42.4,166.4,42.5,166.7,42.5 M185.8,45.5c0,0.4,0,0.5,0.1,0.3
		c0.1-0.2,0.1-0.5,0-0.7C185.8,45,185.8,45.2,185.8,45.5 M186,48.1c0,0.4,0,0.5,0.1,0.3c0.1-0.2,0.1-0.5,0-0.7
		C186,47.6,186,47.7,186,48.1 M332.7,56.1c0,0,0.3,0.3,0.6,0.6l0.6,0.6l-0.6-0.6C332.8,56.1,332.7,55.9,332.7,56.1 M192.6,57.6
		c0.2,0,0.6,0,0.8,0c0.2,0,0-0.1-0.4-0.1C192.5,57.5,192.4,57.5,192.6,57.6 M206.7,57.6c0.2,0,0.6,0,0.8,0c0.2,0,0-0.1-0.4-0.1
		C206.6,57.5,206.4,57.5,206.7,57.6 M335,58.3c0,0,0.3,0.3,0.6,0.6l0.6,0.6l-0.6-0.6C335.2,58.3,335,58.1,335,58.3 M284.1,60.8
		c0.4,0.4,0.8,0.8,0.9,0.8c0.1,0-0.2-0.4-0.7-0.8c-0.4-0.4-0.8-0.8-0.9-0.8C283.3,60,283.6,60.4,284.1,60.8 M61.2,61.7
		c-0.8,0.8-1.4,1.5-1.4,1.5c0.1,0,0.8-0.7,1.6-1.5c0.8-0.8,1.4-1.5,1.4-1.5C62.7,60.2,62,60.9,61.2,61.7 M341.5,64.6
		c1.7,1.7,3.2,3.2,3.3,3.2c0.1,0-1.3-1.4-3.1-3.2c-1.7-1.7-3.2-3.2-3.3-3.2C338.4,61.4,339.7,62.8,341.5,64.6 M56.4,66.5l-1.7,1.7
		L56.4,66.5c1.7-1.5,1.9-1.7,1.7-1.7C58.1,64.8,57.4,65.5,56.4,66.5 M346.9,70.2c0.4,0.4,0.7,0.7,0.8,0.7c0.1,0-0.2-0.3-0.6-0.7
		c-0.4-0.4-0.7-0.7-0.8-0.7C346.3,69.5,346.6,69.8,346.9,70.2 M52.6,70.5L52,71.2L52.6,70.5c0.7-0.5,0.8-0.6,0.6-0.6
		C53.2,69.9,52.9,70.2,52.6,70.5 M296.1,71c0,0.4,0,0.6,0.1,0.3c0-0.2,0-0.6,0-0.8C296.1,70.4,296.1,70.6,296.1,71 M297.6,74.4
		c0.4,0.4,0.7,0.7,0.8,0.7c0.1,0-0.2-0.3-0.6-0.7c-0.4-0.4-0.7-0.7-0.8-0.7C297,73.7,297.3,74,297.6,74.4 M323.8,75.4
		c0,0.5,0,0.7,0.1,0.4c0-0.2,0-0.6,0-0.9S323.8,75,323.8,75.4 M304.8,77.7c0,0.4,0,0.6,0.1,0.3c0-0.2,0-0.6,0-0.8
		C304.8,77.1,304.8,77.3,304.8,77.7 M315.6,79.6l-0.8,0.9L315.6,79.6c0.6-0.4,0.9-0.8,0.9-0.8C316.4,78.7,316,79.1,315.6,79.6
		 M318.8,83.3l-0.7,0.7L318.8,83.3c0.5-0.3,0.8-0.6,0.8-0.7C319.6,82.5,319.4,82.6,318.8,83.3 M316,86.3l-0.7,0.7L316,86.3
		c0.5-0.3,0.8-0.6,0.8-0.7C316.8,85.5,316.7,85.6,316,86.3 M312.9,86.8c0,0,0.3,0.3,0.6,0.6l0.6,0.6l-0.6-0.6
		C313,86.8,312.9,86.6,312.9,86.8 M298.6,94.9c0,0,0.3,0.3,0.6,0.6l0.6,0.6l-0.6-0.6C298.8,94.9,298.6,94.8,298.6,94.9 M98.4,97.5
		c-0.5,0.5-0.8,0.9-0.8,0.9c0.1,0,0.5-0.4,1-0.9c0.5-0.5,0.8-0.9,0.8-0.9C99.3,96.6,98.9,97,98.4,97.5 M301.9,98c0.5,0.5,1,1,1.1,1
		c0.1,0-0.3-0.4-0.9-1c-0.5-0.5-1-1-1.1-1C301,97,301.3,97.5,301.9,98 M307.5,103.6c0.8,0.9,1,1,1,0.9
		C308.5,104.5,308.1,104,307.5,103.6l-0.9-0.9L307.5,103.6 M91.9,104.1l-0.7,0.7L91.9,104.1c0.8-0.6,0.9-0.7,0.7-0.7
		C92.6,103.4,92.2,103.7,91.9,104.1 M97.6,177.6c0.2,0,0.6,0,0.8,0c0.2-0.1,0-0.1-0.4-0.1C97.5,177.5,97.3,177.5,97.6,177.6
		 M102.4,177.6c0.2,0.1,0.5,0.1,0.7,0c0.2-0.1,0-0.1-0.3-0.1C102.4,177.5,102.2,177.5,102.4,177.6 M212.5,177.6
		c0.2,0.1,0.5,0.1,0.7,0c0.2-0.1,0-0.1-0.3-0.1S212.3,177.5,212.5,177.6 M194.8,183.9l-1.3,1.3L194.8,183.9c0.8-0.6,1.4-1.3,1.4-1.3
		C196.2,182.5,196,182.7,194.8,183.9 M225.3,183.6c0.8,0.9,1,1,1,0.9C226.3,184.5,225.9,184,225.3,183.6l-0.9-0.9L225.3,183.6
		 M1.2,183.6c0,0.4,0,0.5,0.1,0.3c0-0.2,0-0.5,0-0.7C1.3,183,1.2,183.2,1.2,183.6 M115.8,183.4c0,0,0.3,0.3,0.6,0.6l0.6,0.6
		l-0.6-0.6C116,183.4,115.8,183.3,115.8,183.4 M84,184.2l-0.6,0.6L84,184.2c0.7-0.5,0.8-0.6,0.6-0.6C84.7,183.6,84.4,183.9,84,184.2
		 M98.1,184.9c0.2,0,0.5,0,0.7,0c0.2-0.1,0-0.1-0.3-0.1S97.9,184.8,98.1,184.9 M102,184.9c0.2,0,0.5,0,0.7,0c0.2-0.1,0-0.1-0.3-0.1
		C102,184.8,101.8,184.8,102,184.9 M209.4,185.3c0.5,0,1.3,0,1.8,0c0.5,0,0-0.1-0.9-0.1C209.2,185.2,208.8,185.3,209.4,185.3
		 M90,189l-0.8,0.8L90,189c0.8-0.7,1-0.8,0.8-0.8C90.8,188.1,90.4,188.5,90,189 M142.2,188.5c0.2,0.1,0.5,0.1,0.7,0
		c0.2,0,0-0.1-0.3-0.1C142.2,188.4,142,188.4,142.2,188.5 M219.8,189.2c0.4,0.4,0.7,0.7,0.8,0.7c0.1,0-0.2-0.3-0.6-0.7
		c-0.4-0.4-0.7-0.7-0.8-0.7C219.2,188.5,219.4,188.8,219.8,189.2 M238.5,210.3l0,21.1h3.9h3.9l0-7.2l0-7.2l-0.1,7.2l-0.1,7.2h-3.8
		h-3.8L238.5,210.3l0-21.1L238.5,210.3 M246.2,190.8c0,1.5,0.1,2,0.5,1.4c0.1-0.1,0.1-0.2-0.1-0.1c-0.2,0.1-0.2-0.3-0.3-1.4
		l-0.1-1.5L246.2,190.8 M312,204.7l0,15.4h3.9h3.9l0-8.3l0-8.3l-0.1,8.3l-0.1,8.3h-3.8h-3.8L312,204.7l0-15.4L312,204.7
		 M318.6,191.1c0,1,0.1,1.8,0.1,1.7c0.1-0.1,0.1-3.3,0-3.5C318.7,189.3,318.6,190.1,318.6,191.1 M181.3,191.9c0.5,0.5,1,1,1.1,1
		c0.1,0-0.3-0.4-0.9-1c-0.5-0.5-1-1-1.1-1C180.4,190.9,180.8,191.3,181.3,191.9 M323.5,195.4c0.2,0,0.6,0,0.8,0
		c0.2-0.1,0-0.1-0.4-0.1C323.4,195.3,323.3,195.3,323.5,195.4 M171.5,196.1c-0.3,0.3-0.4,0.5-0.4,0.6c0,0,0.3-0.2,0.5-0.5
		C172.2,195.5,172.1,195.5,171.5,196.1 M252.9,195.8c0.2,0.1,0.5,0.1,0.7,0c0.2-0.1,0-0.1-0.3-0.1
		C252.9,195.7,252.7,195.7,252.9,195.8 M163.4,197.2c0,0.6,0,0.8,0.1,0.5c0-0.3,0-0.8,0-1.1C163.5,196.4,163.4,196.6,163.4,197.2
		 M177.5,197.4c0.4,0.4,0.8,0.8,0.9,0.8c0.1,0-0.2-0.4-0.7-0.8c-0.4-0.4-0.8-0.8-0.9-0.8C176.8,196.6,177.1,197,177.5,197.4
		 M77.3,198.3c0,0.4,0,0.6,0.1,0.3c0-0.2,0-0.6,0-0.8C77.3,197.7,77.3,197.9,77.3,198.3 M196.7,199.4c0,1,0,1.5,0.1,0.9
		c0-0.5,0-1.4,0-1.9C196.7,197.9,196.7,198.4,196.7,199.4 M231.9,199.4c0,0.6,0,0.8,0.1,0.5c0-0.3,0-0.8,0-1.1
		C232,198.6,231.9,198.8,231.9,199.4 M51.8,202.1c0,1.2,0,1.7,0.1,1c0-0.6,0-1.6,0-2.2C51.8,200.4,51.8,200.9,51.8,202.1
		 M348.2,205.6c0,2.8,0,4,0.1,2.5c0-1.4,0-3.8,0-5.1C348.2,201.6,348.2,202.8,348.2,205.6 M0.1,205.7c0,2.3,0,3.3,0.1,2.1
		s0-3.1,0-4.3S0.1,203.4,0.1,205.7 M77.3,203c0,0.5,0,0.7,0.1,0.4c0-0.2,0-0.6,0-0.9C77.3,202.3,77.3,202.5,77.3,203 M275.3,203.5
		c0,0.5,0,0.7,0.1,0.4c0-0.3,0-0.7,0-1C275.3,202.7,275.3,202.9,275.3,203.5 M399.9,205.6c0,1.6,0,2.3,0.1,1.4c0-0.8,0-2.2,0-3
		C399.9,203.3,399.9,204,399.9,205.6 M157.5,203.8c0,0.5,0,0.7,0.1,0.4c0-0.2,0-0.6,0-0.9C157.5,203.1,157.5,203.3,157.5,203.8
		 M307.6,205.2c0,1,0,1.4,0.1,0.9c0-0.5,0-1.3,0-1.8C307.6,203.9,307.6,204.3,307.6,205.2 M178.8,204.5c0.4,0.4,0.7,0.7,0.8,0.7
		c0.1,0-0.2-0.3-0.6-0.7c-0.4-0.4-0.7-0.7-0.8-0.7C178.2,203.8,178.4,204.1,178.8,204.5 M270.4,204.8c0,0.6,0,0.8,0.1,0.5
		c0-0.3,0-0.8,0-1.1C270.4,203.9,270.4,204.2,270.4,204.8 M166.7,204c0,0,0.3,0.3,0.6,0.6l0.6,0.6l-0.6-0.6
		C166.9,204,166.7,203.9,166.7,204 M275.3,206.1c0,0.5,0,0.7,0.1,0.4s0-0.6,0-0.9C275.3,205.4,275.3,205.6,275.3,206.1 M99.8,206.1
		c5.7,0.1,10.7,0.1,10.7,0c0-0.1-2.9-0.1-6.5-0.1C100.4,206,98.6,206.1,99.8,206.1 M51.8,209c0,1.3,0,1.8,0.1,1.1c0-0.7,0-1.8,0-2.4
		C51.8,207.1,51.8,207.7,51.8,209 M200.5,209.3c0.5,0.5,1,1,1.1,1c0.1,0-0.3-0.4-0.9-1c-0.5-0.5-1-1-1.1-1
		C199.6,208.3,200,208.8,200.5,209.3 M88.8,210.1c0.4,0.4,0.8,0.8,0.9,0.8c0.1,0-0.2-0.4-0.7-0.8c-0.4-0.4-0.8-0.8-0.9-0.8
		C88.1,209.3,88.4,209.7,88.8,210.1 M348,213.9c0,0.6,0,0.8,0.1,0.5c0-0.3,0-0.8,0-1.1C348,213,348,213.3,348,213.9 M209.6,213.4
		c0.5,0,1.3,0,1.8,0c0.5,0,0-0.1-0.9-0.1C209.4,213.3,209,213.4,209.6,213.4 M51.9,214.4c0,0.5,0,0.7,0.1,0.4c0-0.3,0-0.7,0-1
		C52,213.6,51.9,213.8,51.9,214.4 M152.7,213.6c0,0.1,0.3,0.2,0.6,0.4c0.3,0.2,0.6,0.3,0.6,0.2c0-0.1-0.3-0.2-0.6-0.4
		C152.9,213.6,152.7,213.5,152.7,213.6 M399.7,214.3c0,0.5,0,0.7,0.1,0.4c0-0.2,0-0.6,0-0.9C399.7,213.6,399.7,213.8,399.7,214.3
		 M97.4,213.8c0.4,0,0.9,0,1.2,0c0.3,0,0-0.1-0.6-0.1C97.3,213.7,97,213.8,97.4,213.8 M138.9,213.8c0.2,0.1,0.5,0.1,0.7,0
		c0.2-0.1,0-0.1-0.3-0.1C138.8,213.7,138.7,213.8,138.9,213.8 M140.7,213.8c0.2,0,0.6,0,0.9,0c0.2,0,0-0.1-0.4-0.1
		C140.7,213.7,140.5,213.8,140.7,213.8 M170.7,213.8c0.3,0,0.7,0,1,0c0.2,0,0-0.1-0.5-0.1C170.6,213.7,170.4,213.8,170.7,213.8
		 M254,213.8c0.2,0,0.6,0,0.8,0c0.2,0,0-0.1-0.4-0.1C253.9,213.7,253.8,213.8,254,213.8 M0.3,214.9c0,0.5,0,0.7,0.1,0.4
		c0-0.2,0-0.6,0-0.9C0.3,214.2,0.3,214.4,0.3,214.9 M195.2,215.1c0.4,0.4,0.7,0.7,0.8,0.7c0.1,0-0.2-0.3-0.6-0.7
		c-0.4-0.4-0.7-0.7-0.8-0.7C194.6,214.5,194.9,214.8,195.2,215.1 M153,216.1l-1,1L153,216.1c1-0.9,1.2-1,1-1
		C154,215.1,153.5,215.5,153,216.1 M160.5,216c0.4,0.4,0.8,0.8,0.9,0.8c0.1,0-0.2-0.4-0.7-0.8c-0.4-0.4-0.8-0.8-0.9-0.8
		C159.8,215.2,160.1,215.6,160.5,216 M279.8,216.3c0.8,0.9,1,1,1,0.9C280.8,217.1,280.4,216.7,279.8,216.3l-0.9-0.9L279.8,216.3
		 M128.9,216.7c0.8,0.9,1,1,1,0.9C129.9,217.5,129.5,217.1,128.9,216.7l-0.9-0.9L128.9,216.7 M347.8,217c0,0.5,0,0.7,0.1,0.4
		c0-0.2,0-0.6,0-0.9C347.8,216.3,347.8,216.5,347.8,217 M52.1,217.2c0,0.5,0,0.7,0.1,0.4c0-0.2,0-0.6,0-0.9
		C52.2,216.5,52.1,216.7,52.1,217.2 M399.5,218.1c0,0.4,0,0.6,0.1,0.3s0-0.6,0-0.8C399.5,217.5,399.5,217.7,399.5,218.1 M0.4,218.4
		c0,0.4,0,0.5,0.1,0.3c0-0.2,0-0.5,0-0.7C0.5,217.9,0.4,218,0.4,218.4 M347.6,219.3c0,0.4,0,0.6,0.1,0.3c0-0.2,0-0.6,0-0.8
		C347.6,218.7,347.6,218.9,347.6,219.3 M52.3,219.7c0,0.4,0,0.6,0.1,0.3c0-0.2,0-0.6,0-0.8C52.4,219.1,52.3,219.3,52.3,219.7
		 M399.3,221c0,0.4,0,0.5,0.1,0.3c0.1-0.2,0.1-0.5,0-0.7C399.3,220.5,399.3,220.6,399.3,221 M139.5,220.9c0.5,0,1.3,0,1.8,0
		c0.5,0,0-0.1-0.9-0.1C139.3,220.9,138.9,220.9,139.5,220.9 M170.3,220.9c0.4,0,1.1,0,1.5,0c0.4,0,0.1-0.1-0.7-0.1
		S169.9,220.9,170.3,220.9 M255,220.9c0.4,0,0.9,0,1.3,0c0.4,0,0.1-0.1-0.6-0.1C254.9,220.9,254.6,220.9,255,220.9 M290.8,220.9
		c0.5,0,1.2,0,1.7,0c0.5,0,0.1-0.1-0.8-0.1C290.8,220.9,290.4,220.9,290.8,220.9 M347.4,221.4c0,0.4,0,0.5,0.1,0.3
		c0-0.2,0-0.5,0-0.7C347.4,220.8,347.4,221,347.4,221.4 M52.5,221.6c0,0.4,0,0.5,0.1,0.3c0-0.2,0-0.5,0-0.7
		C52.6,221,52.5,221.2,52.5,221.6 M96.6,221.1c0.7,0,1.8,0,2.5,0c0.7,0,0.1-0.1-1.2-0.1C96.5,221.1,95.9,221.1,96.6,221.1
		 M209.3,221.1c0.7,0,1.8,0,2.4,0c0.6,0,0.1-0.1-1.2-0.1C209.1,221.1,208.6,221.1,209.3,221.1 M52.7,223.4c0,0.4,0,0.5,0.1,0.3
		c0-0.2,0-0.5,0-0.7C52.8,222.8,52.7,223,52.7,223.4 M399.1,223.4c0,0.4,0,0.5,0.1,0.3c0.1-0.2,0.1-0.5,0-0.7
		C399.1,222.8,399.1,223,399.1,223.4 M398.9,225.6c0,0.4,0,0.6,0.1,0.3c0-0.2,0-0.6,0-0.8C398.9,225,398.9,225.2,398.9,225.6
		 M398.7,227.5c0,0.4,0,0.5,0.1,0.3c0-0.2,0-0.5,0-0.7C398.7,227,398.7,227.1,398.7,227.5 M1.2,227.7c0,0.4,0,0.5,0.1,0.3
		c0-0.2,0-0.5,0-0.7C1.3,227.2,1.2,227.3,1.2,227.7 M398.5,229.3c0,0.4,0,0.5,0.1,0.3c0-0.2,0-0.5,0-0.7
		C398.5,228.8,398.5,228.9,398.5,229.3 M1.4,229.5c0,0.4,0,0.5,0.1,0.3c0-0.2,0-0.5,0-0.7C1.5,229,1.4,229.1,1.4,229.5 M125.4,238.4
		c0,3.5,0,5,0.1,3.2c0-1.8,0-4.7,0-6.4C125.5,233.4,125.4,234.9,125.4,238.4 M194.9,232.8c0,0.4,0,0.6,0.1,0.3c0-0.2,0-0.6,0-0.8
		C194.9,232.1,194.9,232.3,194.9,232.8 M86.6,233.2c0,0.4,0,0.6,0.1,0.3c0-0.2,0-0.6,0-0.8C86.6,232.5,86.6,232.7,86.6,233.2
		 M148.3,232.9c0,0,0.3,0.3,0.6,0.6l0.6,0.6l-0.6-0.6C148.5,232.9,148.3,232.8,148.3,232.9 M189.8,239.1c0,3.2,0,4.4,0.1,2.8
		c0-1.6,0-4.2,0-5.7S189.8,235.9,189.8,239.1 M141.7,234.5l-0.6,0.6L141.7,234.5c0.4-0.3,0.7-0.5,0.7-0.6
		C142.4,233.8,142.2,233.9,141.7,234.5 M118.3,235.4c0,0.4,0,0.5,0.1,0.3c0.1-0.2,0.1-0.5,0-0.7
		C118.3,234.9,118.3,235.1,118.3,235.4 M116.7,235.6c0,0.4,0,0.5,0.1,0.3c0.1-0.2,0.1-0.5,0-0.7
		C116.7,235.1,116.7,235.3,116.7,235.6 M131.5,235.9c0,0.4,0,0.6,0.1,0.3c0-0.2,0-0.6,0-0.8C131.6,235.3,131.5,235.5,131.5,235.9
		 M138.7,238.5c0,0.9,0,1.2,0.1,0.7c0-0.5,0-1.2,0-1.6C138.7,237.3,138.7,237.6,138.7,238.5 M104.2,238.2c0,0.6,0,0.8,0.1,0.5
		c0-0.3,0-0.8,0-1.1C104.3,237.4,104.2,237.6,104.2,238.2 M102.6,238.4c0,0.6,0,0.8,0.1,0.5c0-0.3,0-0.8,0-1.1
		C102.7,237.6,102.6,237.8,102.6,238.4 M77.1,238.6c0,0.6,0,0.8,0.1,0.5c0-0.3,0-0.8,0-1.1C77.1,237.8,77.1,238,77.1,238.6
		 M140.3,238.5c0,0.5,0,0.7,0.1,0.4c0-0.3,0-0.7,0-1C140.3,237.7,140.3,238,140.3,238.5 M206.9,238.4c-0.1,0.4,0,0.6,0.1,0.5
		c0.1-0.1,0.1-0.4,0.1-0.7C207,237.8,207,237.8,206.9,238.4 M127.9,238.6c0.4,0,0.9,0,1.2,0c0.3,0,0-0.1-0.6-0.1
		C127.8,238.5,127.5,238.5,127.9,238.6 M86.6,243.5c0,0.4,0,0.6,0.1,0.3c0-0.2,0-0.6,0-0.8C86.6,242.8,86.6,243,86.6,243.5
		 M207.6,244.1c0,0.4,0,0.6,0.1,0.3c0-0.2,0-0.6,0-0.8C207.6,243.4,207.6,243.6,207.6,244.1 M48.4,267.6l-0.8,0.8L48.4,267.6
		c0.8-0.7,1-0.8,0.8-0.8C49.2,266.7,48.8,267.1,48.4,267.6 M359.7,266.9c0.3,0,0.7,0,1,0c0.2,0,0-0.1-0.5-0.1
		C359.6,266.8,359.4,266.8,359.7,266.9 M356.2,268.5l-0.7,0.7L356.2,268.5c0.5-0.3,0.8-0.6,0.8-0.7
		C357,267.6,356.9,267.8,356.2,268.5 M45.1,270.6c-0.5,0.5-0.8,0.9-0.8,0.9c0.1,0,0.5-0.4,1-0.9c0.5-0.5,0.8-0.9,0.8-0.9
		C46.1,269.7,45.6,270.1,45.1,270.6 M66.4,270c0,0.1,0.2,0.5,0.4,0.9c0.2,0.4,0.4,0.6,0.4,0.5c0-0.1-0.2-0.5-0.4-0.9
		C66.5,270.1,66.4,269.9,66.4,270 M51.8,270.7c0.1,0.3,0,0.6-0.2,0.9l-0.4,0.4l0.5-0.4c0.4-0.4,0.4-0.5,0.2-0.9l-0.2-0.5L51.8,270.7
		 M359.3,271.2c0.2,0,0.5,0,0.7,0c0.2-0.1,0-0.1-0.3-0.1C359.2,271.1,359.1,271.2,359.3,271.2 M42,273.6l-1.1,1.1L42,273.6
		c1.1-0.9,1.3-1.1,1.1-1.1C43.1,272.5,42.6,273,42,273.6 M39,276.4l-1.1,1.1L39,276.4c1.1-0.9,1.3-1.1,1.1-1.1
		C40.1,275.2,39.6,275.8,39,276.4 M36.1,279.1l-0.8,0.8L36.1,279.1c0.8-0.7,1-0.8,0.8-0.8C36.9,278.2,36.6,278.6,36.1,279.1
		 M351.2,279.3c-0.2,0.3-0.3,0.5-0.2,0.6c0,0,0.2-0.2,0.4-0.5C351.7,278.7,351.6,278.6,351.2,279.3 M33.2,281.8l-0.6,0.6L33.2,281.8
		c0.4-0.3,0.7-0.5,0.7-0.6C33.9,281.1,33.7,281.2,33.2,281.8 M56,285.5c0.2,0,0.6,0,0.8,0c0.2,0,0-0.1-0.4-0.1
		C55.9,285.4,55.7,285.4,56,285.5 M53.9,285.7c0.2,0,0.5,0,0.7,0c0.2,0,0-0.1-0.3-0.1C53.9,285.6,53.7,285.6,53.9,285.7 M51.7,285.9
		c0.2,0,0.5,0,0.7,0c0.2,0,0-0.1-0.3-0.1C51.7,285.8,51.5,285.8,51.7,285.9 M365,287c-0.2,0.5-0.4,0.9-0.3,0.9
		c0.1,0,0.9-1.6,0.8-1.7C365.5,286.2,365.2,286.5,365,287 M358,289.4c0,0.1,0.1,0.4,0.3,0.7c0.2,0.3,0.3,0.4,0.3,0.3
		s-0.1-0.4-0.3-0.7C358.2,289.4,358,289.3,358,289.4 M19.2,291.2c0,0.1,0.1,0.4,0.3,0.7c0.2,0.3,0.3,0.4,0.3,0.3
		c0-0.1-0.1-0.4-0.3-0.7C19.3,291.2,19.2,291.1,19.2,291.2 M380,292.4c-0.3,0.7-0.3,0.9,0.1,0.2c0.2-0.3,0.3-0.6,0.2-0.6
		C380.3,291.9,380.2,292.1,380,292.4 M346,293.6c0.3,0,0.7,0,1,0c0.2,0,0-0.1-0.5-0.1C345.9,293.5,345.7,293.6,346,293.6 M343,300.2
		c0,0.4,0,0.5,0.1,0.3c0.1-0.2,0.1-0.5,0-0.7C343.1,299.7,343,299.8,343,300.2 M62,302.8c0,0.5,0,0.7,0.1,0.4c0-0.2,0-0.6,0-0.9
		C62.1,302.1,62,302.3,62,302.8 M351.5,304.3l-0.7,0.7L351.5,304.3c0.5-0.3,0.8-0.6,0.8-0.7C352.3,303.5,352.1,303.6,351.5,304.3
		 M59.3,304.8c0,0.5,0,0.7,0.1,0.4c0-0.2,0-0.6,0-0.9C59.3,304.1,59.3,304.3,59.3,304.8 M309.3,305.7l-0.7,0.7L309.3,305.7
		c0.8-0.6,0.9-0.7,0.7-0.7C310,305,309.7,305.3,309.3,305.7 M348.8,305.5c0.2,0,0.5,0,0.7,0c0.2,0,0-0.1-0.3-0.1
		C348.7,305.4,348.6,305.4,348.8,305.5 M74.9,306.6c0,0,0.3,0.3,0.6,0.6l0.6,0.6l-0.6-0.6C75,306.6,74.9,306.4,74.9,306.6
		 M95.1,310.5c1.8,1.9,3.4,3.4,3.5,3.4c0.1,0-1.4-1.5-3.3-3.4c-1.8-1.9-3.4-3.4-3.5-3.4C91.8,307.1,93.3,308.6,95.1,310.5
		 M304.8,310.4l-3.1,3.1L304.8,310.4c2.9-2.8,3.3-3.1,3.1-3.1C307.8,307.3,306.4,308.7,304.8,310.4 M343.3,310.3c0.5,0.5,1,1,1.1,1
		c0.1,0-0.3-0.4-0.9-1c-0.5-0.5-1-1-1.1-1C342.3,309.3,342.7,309.8,343.3,310.3 M44.4,311.2c0,0,0.3,0.3,0.6,0.6l0.6,0.6l-0.6-0.6
		C44.5,311.1,44.4,311,44.4,311.2 M51.6,311.4c0.1,0.1,0.2,0.2,0.1,0.3c-0.2,0.3,0,0.2,0.3-0.1c0.2-0.2,0.2-0.3-0.2-0.3
		C51.6,311.3,51.5,311.4,51.6,311.4 M330.5,313.1c0,0.4,0,0.5,0.1,0.3c0-0.2,0-0.5,0-0.7C330.6,312.5,330.5,312.7,330.5,313.1
		 M339.4,313.3c0,0,0.3,0.3,0.6,0.6l0.6,0.6l-0.6-0.6C339.6,313.3,339.4,313.2,339.4,313.3 M328.7,314
		C328.4,314.3,328.4,314.3,328.7,314c0.4-0.2,0.5-0.2,0.8,0.1c0.3,0.2,0.3,0.2,0.1-0.1c-0.1-0.2-0.3-0.3-0.4-0.3
		S328.8,313.8,328.7,314 M300,315l-0.7,0.7L300,315c0.5-0.3,0.8-0.6,0.8-0.7C300.8,314.2,300.6,314.3,300,315 M100,315.1
		c0.4,0.4,0.7,0.7,0.8,0.7c0.1,0-0.2-0.3-0.6-0.7c-0.4-0.4-0.7-0.7-0.8-0.7C99.4,314.5,99.6,314.8,100,315.1 M341.4,317
		c0,0.5,0,0.7,0.1,0.4s0-0.6,0-0.9C341.5,316.3,341.4,316.5,341.4,317 M48.7,317.8c0.2,0,0.6,0,0.8,0c0.2-0.1,0-0.1-0.4-0.1
		C48.6,317.7,48.4,317.7,48.7,317.8 M338.1,320.1c0.2,0,0.5,0,0.7,0c0.2,0,0-0.1-0.3-0.1C338,320,337.9,320.1,338.1,320.1
		 M344,320.7l-0.7,0.7L344,320.7c0.5-0.3,0.8-0.7,0.8-0.7C344.8,319.9,344.6,320.1,344,320.7 M81.6,321.7c0.4,0.4,0.7,0.7,0.8,0.7
		c0.1,0-0.2-0.3-0.6-0.7c-0.4-0.4-0.7-0.7-0.8-0.7C81,321,81.2,321.3,81.6,321.7 M89.1,321.9c0.3,0.3,0.6,0.7,0.6,0.9
		c0.1,0.3,0.1,0.3,0.1,0c0-0.2-0.3-0.6-0.6-0.9l-0.6-0.6L89.1,321.9 M320.9,322.2l-0.6,0.6L320.9,322.2c0.7-0.5,0.8-0.6,0.6-0.6
		C321.5,321.6,321.2,321.9,320.9,322.2 M330.4,324.6c0.8,0.8,1.4,1.4,1.5,1.4c0.1,0-0.5-0.6-1.3-1.4c-0.8-0.8-1.4-1.4-1.5-1.4
		C329.1,323.2,329.6,323.8,330.4,324.6 M76.7,324.6c-0.7,0.7-1,1.1-0.8,1.2c0.1,0.1,0.3,0.1,0.3,0c0.1-0.1,0-0.1-0.2-0.1
		c-0.2,0,0.2-0.5,0.8-1.1c0.6-0.6,1-1.1,1-1.1C77.8,323.6,77.2,324,76.7,324.6 M86.8,324.6c0,0.4,0,0.5,0.1,0.3c0-0.2,0-0.5,0-0.7
		C86.8,324,86.8,324.2,86.8,324.6 M319.1,326.4c0,0.7,0,0.9,0.1,0.5c0-0.4,0-0.9,0-1.2C319.1,325.5,319.1,325.8,319.1,326.4
		 M61.8,326.6c-0.2,0.3-0.2,0.4,0.1,0.6c0.3,0.3,0.4,0.3,0.1,0c-0.2-0.3-0.2-0.4,0-0.6c0.1-0.2,0.2-0.3,0.1-0.3
		C62.1,326.3,61.9,326.5,61.8,326.6 M334.4,328.8l1.5,1.5l-0.4,0.5l-0.4,0.5l0.5-0.4l0.5-0.4l-1.6-1.5l-1.6-1.5L334.4,328.8
		 M72.8,328.1c0.2,0,0.6,0,0.9,0c0.2,0,0-0.1-0.4-0.1C72.8,328,72.6,328,72.8,328.1 M88.5,328.2c0.1,0.2,0.3,0.3,0.4,0.3
		c0.1,0,0.2-0.2,0.2-0.3c0-0.2-0.1-0.3-0.1-0.1C88.9,328.3,88.8,328.3,88.5,328.2C88.3,327.8,88.2,327.9,88.5,328.2 M326.9,328
		c0,0,0.7,0.7,1.5,1.5l1.5,1.5l-1.5-1.5C327.1,328,326.9,327.8,326.9,328 M322.8,331.3c0,0,0.7,0.7,1.5,1.5l1.5,1.5l-1.5-1.5
		C323,331.4,322.8,331.2,322.8,331.3 M333.2,332.8l-0.7,0.7l-0.5-0.5l-0.6-0.5l0.5,0.6l0.5,0.6l0.8-0.8c0.5-0.5,0.8-0.8,0.7-0.8
		C334,332.1,333.6,332.4,333.2,332.8 M311.9,333.4c0,0.5,0,0.7,0.1,0.4c0-0.3,0-0.7,0-1C312,332.6,311.9,332.8,311.9,333.4
		 M309,334.1l-1.2,1.2L309,334.1l1.3-1.1l0.6,0.6l0.6,0.6l-0.6-0.6C310.3,332.7,310.4,332.7,309,334.1 M318.8,334.2
		c0.4,0.4,0.7,0.7,0.8,0.7c0.1,0-0.2-0.3-0.6-0.7c-0.4-0.4-0.7-0.7-0.8-0.7C318.2,333.5,318.4,333.8,318.8,334.2 M327.6,336.4
		l0.9,0.9l-0.9,1l-0.9,1l1-1l1-1l-0.9-0.9c-0.5-0.5-1-0.9-1-0.9C326.7,335.4,327.1,335.9,327.6,336.4 M82.8,336.8l-1.1,1.1
		L82.8,336.8c0.7-0.5,1.2-1.1,1.2-1.1C84,335.6,83.8,335.7,82.8,336.8 M308.2,337.8c0.6,0.7,1.2,1.2,1.3,1.2c0.1,0-0.4-0.5-1.1-1.2
		c-0.6-0.7-1.2-1.2-1.3-1.2C307.1,336.6,307.6,337.2,308.2,337.8 M322.5,338c0.6,0.7,1.2,1.2,1.3,1.2s-0.4-0.5-1.1-1.2
		c-0.6-0.7-1.2-1.2-1.3-1.2C321.3,336.8,321.8,337.4,322.5,338 M73.3,338.2c0.2,0,0.5,0,0.7,0c0.2-0.1,0-0.1-0.3-0.1
		C73.3,338.1,73.1,338.1,73.3,338.2 M265,338.8c-0.4,0.2-0.6,0.4-0.5,0.4c0.1,0,0.5-0.2,0.9-0.4c0.4-0.2,0.6-0.4,0.5-0.4
		C265.7,338.4,265.3,338.6,265,338.8 M134.9,338.9c0.3,0.2,0.6,0.3,0.7,0.3c0.1,0,0-0.1-0.3-0.3c-0.3-0.2-0.6-0.3-0.7-0.3
		C134.4,338.6,134.6,338.8,134.9,338.9 M50.9,338.9c0,0,0.3,0.3,0.6,0.6l0.6,0.6l-0.6-0.6C51.1,338.9,50.9,338.7,50.9,338.9
		 M348.2,339.7l-0.6,0.6L348.2,339.7c0.7-0.5,0.8-0.6,0.6-0.6C348.8,339,348.5,339.3,348.2,339.7 M75.1,340.9
		c0.7,0.7,1.3,1.3,1.4,1.3c0.1,0-0.5-0.6-1.2-1.3c-0.7-0.7-1.3-1.3-1.4-1.3C73.8,339.6,74.3,340.2,75.1,340.9 M78.7,341l-1.4,1.4
		L78.7,341c1.4-1.2,1.6-1.4,1.4-1.4C80.1,339.6,79.5,340.2,78.7,341 M318.4,341.5c0.6,0.6,1.1,1.1,1.2,1.1c0.1,0-0.4-0.5-1-1.1
		c-0.6-0.6-1.1-1.1-1.2-1.1C317.4,340.4,317.8,340.9,318.4,341.5 M53.6,341.8c0.4,0.4,0.8,0.8,0.9,0.8c0.1,0-0.2-0.4-0.7-0.8
		c-0.4-0.4-0.8-0.8-0.9-0.8C52.8,341,53.1,341.3,53.6,341.8 M312.3,342.1c0.6,0.6,1.1,1.1,1.2,1.1c0.1,0-0.4-0.5-1-1.1
		c-0.6-0.6-1.1-1.1-1.2-1.1C311.2,341,311.7,341.5,312.3,342.1 M345.8,342.2l-1,1L345.8,342.2c0.6-0.5,1.1-1,1.1-1
		C346.9,341.1,346.7,341.3,345.8,342.2 M58.5,346.9c1.5,1.5,2.8,2.8,2.9,2.8c0.1,0-1.1-1.2-2.7-2.8c-1.5-1.5-2.8-2.8-2.9-2.8
		C55.8,344.2,57,345.4,58.5,346.9 M316.1,346.1c0.6,0.7,1.2,1.2,1.3,1.2c0.1,0-0.4-0.5-1.1-1.2c-0.6-0.7-1.2-1.2-1.3-1.2
		C315,345,315.5,345.5,316.1,346.1 M319.4,346.1l-1.1,1.1L319.4,346.1c1.1-0.9,1.3-1.1,1.1-1.1C320.5,345,320,345.5,319.4,346.1
		 M341.2,347.1l-2.1,2.1L341.2,347.1c1.2-1.1,2.2-2,2.2-2.1C343.4,344.9,343.1,345.1,341.2,347.1 M112.7,349.4
		c0.4,0.4,0.7,0.7,0.8,0.7s-0.2-0.3-0.6-0.7c-0.4-0.4-0.7-0.7-0.8-0.7C112,348.7,112.3,349,112.7,349.4 M106.3,350.4
		c0.2,0,0.6,0,0.8,0c0.2,0,0-0.1-0.4-0.1C106.2,350.3,106,350.4,106.3,350.4 M336.5,351.5l-1,1L336.5,351.5c1-0.9,1.2-1,1-1
		C337.5,350.5,337.1,351,336.5,351.5 M63.6,351.7c0.5,0.5,0.9,0.9,0.9,0.9C64.6,352.7,64.5,352.5,63.6,351.7l-0.9-0.9L63.6,351.7
		 M183.4,353c0.2,0.1,0.5,0.1,0.7,0c0.2,0,0-0.1-0.3-0.1C183.4,352.9,183.2,353,183.4,353 M215.9,353c0.2,0.1,0.5,0.1,0.7,0
		c0.2,0,0-0.1-0.3-0.1C215.9,352.9,215.7,353,215.9,353 M185.3,353.2c0.2,0,0.6,0,0.8,0c0.2,0,0-0.1-0.4-0.1
		C185.2,353.1,185.1,353.2,185.3,353.2 M213.9,353.2c0.2,0.1,0.5,0.1,0.7,0c0.2,0,0-0.1-0.3-0.1
		C213.9,353.1,213.7,353.2,213.9,353.2 M187.5,353.4c0.2,0,0.6,0,0.9,0c0.2,0,0-0.1-0.4-0.1C187.4,353.3,187.2,353.4,187.5,353.4
		 M211.5,353.4c0.3,0,0.7,0,1,0c0.2,0,0-0.1-0.5-0.1C211.4,353.3,211.2,353.4,211.5,353.4 M65.5,353.5c0,0,0.3,0.3,0.6,0.6l0.6,0.6
		l-0.6-0.6C65.7,353.5,65.5,353.4,65.5,353.5 M190.3,353.6c0.3,0,0.8,0,1.1,0c0.3,0,0.1-0.1-0.5-0.1S190,353.6,190.3,353.6
		 M208.6,353.6c0.3,0,0.8,0,1.1,0c0.3,0,0.1-0.1-0.5-0.1S208.3,353.6,208.6,353.6 M194.6,353.8c0.6,0,1.5,0,2.1,0
		c0.6,0,0.1-0.1-1-0.1C194.5,353.7,194,353.8,194.6,353.8 M203.3,353.8c0.6,0,1.5,0,2.1,0c0.6,0,0.1-0.1-1-0.1
		C203.2,353.7,202.7,353.8,203.3,353.8 M122.5,356.4c-0.1,0.1,0.2,0.1,0.5,0.1c0.3,0,0.6-0.1,0.6-0.2
		C123.6,356.2,122.6,356.2,122.5,356.4 M281,357.9c0.4,0.4,0.7,0.7,0.8,0.7c0.1,0-0.2-0.3-0.6-0.7c-0.4-0.4-0.7-0.7-0.8-0.7
		C280.4,357.2,280.6,357.5,281,357.9 M270.8,358.5l-0.6,0.6L270.8,358.5c0.7-0.5,0.8-0.6,0.6-0.6
		C271.4,357.8,271.1,358.1,270.8,358.5 M130.7,358.9c0,0,0.3,0.3,0.6,0.6l0.6,0.6l-0.6-0.6C130.9,358.9,130.7,358.7,130.7,358.9
		 M98.8,359.5c0,0,0.3,0.3,0.6,0.6l0.6,0.6l-0.6-0.6C99,359.5,98.8,359.3,98.8,359.5 M106.7,359.9c0,0,0.2,0.1,0.5,0.2
		c0.3,0.1,0.5,0,0.5-0.1c0-0.1-0.2-0.2-0.5-0.2C107,359.8,106.7,359.8,106.7,359.9 M283,360.8c0.2,0.4,0.4,0.8,0.5,0.8
		c0.1,0-0.1-0.4-0.3-0.8c-0.2-0.4-0.4-0.8-0.5-0.8C282.6,360,282.7,360.4,283,360.8 M268.6,363.8c0,0.5,0,0.7,0.1,0.4
		c0-0.2,0-0.6,0-0.9C268.6,363.1,268.6,363.3,268.6,363.8 M165.7,364.8c0,0,0.3,0.3,0.6,0.6l0.6,0.6l-0.6-0.6
		C165.9,364.8,165.7,364.7,165.7,364.8 M253.2,365.3c0.2,0,0.6,0,0.8,0c0.2-0.1,0-0.1-0.4-0.1C253.1,365.2,253,365.2,253.2,365.3
		 M256.6,366.2c0,0,0.3,0.3,0.6,0.6l0.6,0.6l-0.6-0.6C256.8,366.2,256.6,366,256.6,366.2 M116.3,367.4c0,0.5,0,0.7,0.1,0.4
		c0-0.3,0-0.7,0-1C116.3,366.6,116.3,366.9,116.3,367.4 M168,369.5c0,0.5,0,0.7,0.1,0.4c0-0.2,0-0.6,0-0.9
		C168,368.8,168,369,168,369.5 M277.2,368.9c0.2,0,0.6,0,0.8,0c0.2,0,0-0.1-0.4-0.1C277.1,368.8,276.9,368.8,277.2,368.9 M117,370
		c0,0,0.3,0.3,0.6,0.6l0.6,0.6l-0.6-0.6C117.2,369.9,117,369.8,117,370 M247.2,371.5c-0.5,0.4-0.8,0.8-0.7,0.8
		c0.1,0,0.5-0.4,0.9-0.8C248.4,370.5,248.3,370.5,247.2,371.5 M252.5,371.7c-0.4,0.2-0.6,0.4-0.5,0.4c0.1,0,0.5-0.2,0.9-0.4
		c0.4-0.2,0.6-0.4,0.5-0.4C253.3,371.3,252.9,371.5,252.5,371.7 M204.6,372.9c0,0.6,0,0.8,0.1,0.5c0-0.3,0-0.8,0-1.1
		C204.7,372,204.6,372.3,204.6,372.9 M121.1,372.2c0.2,0,0.6,0,0.9,0c0.2,0,0-0.1-0.4-0.1S120.9,372.2,121.1,372.2 M275.9,372.8
		c0.3,0,0.8,0,1.1,0c0.3,0,0.1-0.1-0.5-0.1S275.6,372.8,275.9,372.8 M159.1,373.4c0.2,0.1,0.5,0.1,0.7,0c0.2,0,0-0.1-0.3-0.1
		C159,373.3,158.9,373.4,159.1,373.4 M195.5,373.6c0.2,0.1,0.5,0.1,0.7,0c0.2,0,0-0.1-0.3-0.1C195.5,373.5,195.3,373.6,195.5,373.6
		 M190.6,373.8c0.2,0,0.6,0,0.8,0c0.2,0,0-0.1-0.4-0.1C190.6,373.7,190.4,373.8,190.6,373.8 M207.3,373.8c0.7,0.1,0.8,0.1,0.9,0.8
		c0.1,0.7,0.1,0.7,0.1-0.1C208.2,373.8,208.2,373.8,207.3,373.8l-0.8-0.1L207.3,373.8 M221.4,373.7c0,0,0.3,0.3,0.6,0.6l0.6,0.6
		l-0.6-0.6C221.6,373.7,221.4,373.6,221.4,373.7 M197.1,374.7c0,0.5,0.1,1.4,0.1,2c0.1,0.9,0.2,1,0.2,0.3c0-0.4-0.1-1.3-0.1-2
		C197.1,373.9,197.1,373.8,197.1,374.7 M192.9,374.8l-0.7,0.7L192.9,374.8c0.8-0.6,0.9-0.7,0.7-0.7
		C193.6,374.1,193.2,374.4,192.9,374.8 M165.8,375.1l-0.8,0.8L165.8,375.1c0.5-0.4,0.9-0.8,0.9-0.8
		C166.7,374.2,166.6,374.3,165.8,375.1 M234.9,374.4c0.3,0,0.7,0,1,0c0.2,0,0-0.1-0.5-0.1C234.8,374.3,234.6,374.4,234.9,374.4
		 M210.7,375.6c0,0.5,0,0.7,0.1,0.4c0-0.2,0-0.6,0-0.9C210.8,375,210.7,375.2,210.7,375.6 M231.7,378c0,0.5,0,0.7,0.1,0.4
		s0-0.6,0-0.9S231.7,377.5,231.7,378 M199.5,377.6c0.1,0.1,0.3,0.4,0.3,0.8c0.1,0.5,0.1,0.5,0.1-0.1
		C199.9,377.8,199.8,377.5,199.5,377.6C199.4,377.4,199.4,377.4,199.5,377.6 M252.6,378.8c0.2,0,0.6,0,0.9,0c0.2,0,0-0.1-0.4-0.1
		S252.4,378.7,252.6,378.8 M186.6,380.7c0,1,0,1.4,0.1,0.9c0-0.5,0-1.3,0-1.8C186.6,379.3,186.6,379.7,186.6,380.7 M204.8,381.2
		c0,0.9,0,1.3,0.1,0.8c0-0.5,0-1.2,0-1.7C204.9,379.9,204.8,380.3,204.8,381.2 M171.9,380.8c0,0.5,0,0.7,0.1,0.4s0-0.6,0-0.9
		C172,380.1,171.9,380.3,171.9,380.8 M211.2,381.2l-0.6,0.6L211.2,381.2c0.7-0.5,0.8-0.6,0.6-0.6
		C211.8,380.6,211.5,380.9,211.2,381.2 M224,381.2c0,0.4,0,0.5,0.1,0.3c0.1-0.2,0.1-0.5,0-0.7C224,380.7,224,380.8,224,381.2
		 M200.1,383.7c0,1.1,0,1.5,0.1,0.9c0-0.6,0-1.5,0-2C200.1,382.1,200.1,382.6,200.1,383.7 M224.2,383.8c0,0.4,0,0.5,0.1,0.3
		c0.1-0.2,0.1-0.5,0-0.7C224.2,383.2,224.2,383.4,224.2,383.8 M214.3,384c0,0.4,0,0.5,0.1,0.3c0.1-0.2,0.1-0.5,0-0.7
		C214.3,383.4,214.3,383.6,214.3,384 M191.4,385.6c0,0.9,0,1.2,0.1,0.7c0-0.5,0-1.2,0-1.6C191.4,384.4,191.4,384.8,191.4,385.6
		 M168.5,385.4c0,0,0.3,0.3,0.6,0.6l0.6,0.6l-0.6-0.6C168.7,385.4,168.5,385.3,168.5,385.4 M181.8,386.3l-0.7,0.7L181.8,386.3
		c0.8-0.6,0.9-0.7,0.7-0.7C182.5,385.5,182.1,385.9,181.8,386.3 M224.4,386.5c0,0.5,0,0.7,0.1,0.4c0-0.2,0-0.6,0-0.9
		C224.4,385.8,224.4,386,224.4,386.5 M219.8,387.2c0.1,0.5,0.1,0.6,0.2,0.2c0-0.3,0-0.5-0.1-0.6
		C219.7,386.6,219.7,386.8,219.8,387.2 M186.4,388.1c0,0.8,0,1.2,0.1,0.7c0-0.4,0-1.1,0-1.5C186.4,387,186.4,387.3,186.4,388.1
		 M208.6,388.4c0,0.7,0,0.9,0.1,0.5c0-0.4,0-0.9,0-1.2C208.6,387.5,208.6,387.8,208.6,388.4 M221.7,388.7c0.2,0,0.6,0,0.9,0
		c0.2,0,0-0.1-0.4-0.1C221.7,388.6,221.5,388.6,221.7,388.7 M190.1,389.6c0.2,0,0.6,0,0.9,0c0.2,0,0-0.1-0.4-0.1
		C190,389.6,189.8,389.6,190.1,389.6 M204.6,390c0.4,0,1.1,0,1.5,0c0.4,0,0.1-0.1-0.7-0.1C204.5,390,204.2,390,204.6,390
		 M175.7,404.1c0.2,0.1,0.5,0.1,0.7,0c0.2,0,0-0.1-0.3-0.1C175.7,404,175.5,404,175.7,404.1 M223.6,404.1c0.2,0.1,0.5,0.1,0.7,0
		c0.2,0,0-0.1-0.3-0.1C223.6,404,223.4,404,223.6,404.1 M177.5,404.3c0.2,0,0.5,0,0.7,0c0.2-0.1,0-0.1-0.3-0.1
		C177.4,404.2,177.3,404.2,177.5,404.3 M221.8,404.3c0.2,0,0.5,0,0.7,0c0.2-0.1,0-0.1-0.3-0.1C221.8,404.2,221.6,404.2,221.8,404.3
		 M179.3,404.5c0.2,0,0.5,0,0.7,0c0.2-0.1,0-0.1-0.3-0.1S179.1,404.4,179.3,404.5 M220.1,404.5c0.2,0,0.5,0,0.7,0
		c0.2-0.1,0-0.1-0.3-0.1S219.9,404.4,220.1,404.5 M181.4,404.7c0.2,0,0.5,0,0.7,0c0.2-0.1,0-0.1-0.3-0.1S181.2,404.6,181.4,404.7
		 M217.9,404.7c0.2,0,0.5,0,0.7,0c0.2-0.1,0-0.1-0.3-0.1S217.7,404.6,217.9,404.7 M186.6,405.1c0.2,0,0.5,0,0.7,0
		c0.2-0.1,0-0.1-0.3-0.1S186.4,405,186.6,405.1 M212.7,405.1c0.2,0,0.5,0,0.7,0c0.2-0.1,0-0.1-0.3-0.1S212.5,405,212.7,405.1
		 M190.1,405.3c0.2,0,0.6,0,0.9,0c0.2,0,0-0.1-0.4-0.1C190,405.2,189.8,405.2,190.1,405.3 M209.1,405.3c0.2,0,0.6,0,0.9,0
		c0.2,0,0-0.1-0.4-0.1C209,405.2,208.8,405.2,209.1,405.3 M197.6,405.5c1.3,0,3.5,0,4.9,0c1.3,0,0.2-0.1-2.4-0.1
		S196.2,405.5,197.6,405.5"/>
</g>
</svg>
