<svg width="24" height="24" xmlns="http://www.w3.org/2000/svg">

 <g>
  <title>background</title>
  <rect fill="none" id="canvas_background" height="402" width="582" y="-1" x="-1"/>
 </g>
 <g>
  <title>Layer 1</title>
  <path fill="#01303f" id="svg_1" d="m19.848,1.636c-0.106,-0.016 -0.228,0.107 -0.324,0.397c-0.157,0.47 -1.073,3.203 -5.504,4.326c0.596,0.512 0.976,1.242 0.976,2.059c0,1.547 -1.344,2.8 -3,2.8c-1.655,0 -2.997,-1.254 -2.998,-2.8c0,-0.603 0.208,-1.158 0.555,-1.616c-3.135,-0.322 -4.49,-3.123 -4.49,-3.123l-0.096,4.163c-0.025,0.564 -0.009,1.111 -0.27,1.636a3.335,2.365 54.527 0 0 -0.05,-0.072a3.335,2.365 54.527 0 0 -2.849,-1.654a3.335,2.365 54.527 0 0 -1.013,0.334a3.335,2.365 54.527 0 0 0.029,4.095a3.335,2.365 54.527 0 0 3.291,1.59c2.997,2.22 8.482,4.148 12.231,1.885l-2.025,-1.629c-1.064,0.345 -2.604,0.34 -4.397,-0.295c2.9,0.582 4.47,-0.053 5.334,-0.722c-0.228,-0.296 -0.71,-0.526 -0.71,-0.526s0.563,0.107 0.93,0.496c0.147,0.155 0.198,0.387 0.218,0.653c0.553,0.298 1.183,0.656 1.875,1.062c2.06,-2.06 3.253,-5.933 2.52,-12.617c-0.035,-0.269 -0.127,-0.425 -0.233,-0.442zm-12.993,5.46c1.051,-0.001 1.903,0.795 1.903,1.777c0,0.98 -0.853,1.776 -1.903,1.775c-1.05,0 -1.9,-0.795 -1.9,-1.775c0,-0.981 0.85,-1.777 1.9,-1.778l0,0.001zm5.776,0.481a1.325,1.325 0 1 0 -0.002,2.65a1.325,1.325 0 0 0 0.002,-2.65zm-10.942,0.639a0.964,0.947 0 0 1 0.002,0a0.964,0.947 0 0 1 0.021,0a0.964,0.947 0 0 1 0.965,0.949a0.964,0.947 0 0 1 -0.965,0.947a0.964,0.947 0 0 1 -0.962,-0.947a0.964,0.947 0 0 1 0.94,-0.95l-0.001,0.001zm5.559,0.123a0.84,0.84 0 1 0 0.02,1.68a0.84,0.84 0 0 0 -0.02,-1.68zm8.26,4.964c-0.043,0.053 -0.103,0.099 -0.156,0.147l0.21,0.115c-0.017,-0.1 -0.033,-0.21 -0.054,-0.262zm-0.55,0.1l-0.733,0.361l0.06,0.05l0.198,0.157l1.994,1.606l0.015,0.012a81.76,81.76 0 0 0 1.952,1.513a0.543,0.543 0 0 0 -0.008,0.127l0.26,-0.04l0.103,0.152l2.317,1.472c-0.12,0.41 -0.065,0.953 0.207,1.457c0.79,1.465 2.677,2.094 2.677,2.094c-0.771,-1.968 -0.209,-3.569 -1.73,-4.133c-0.242,-0.09 -0.453,-0.093 -0.629,-0.033l-2.047,-1.895l-0.174,-0.052l-0.025,-0.262a0.839,0.839 0 0 0 -0.12,0.059c-0.306,-0.26 -0.687,-0.537 -1.09,-0.815c-1.364,-0.835 -2.257,-1.3 -3.228,-1.83l0.001,0z"/>
 </g>
</svg>