<?xml version="1.0" encoding="utf-8"?>
<!-- Generator: Adobe Illustrator 25.0.1, SVG Export Plug-In . SVG Version: 6.00 Build 0)  -->
<svg version="1.1" id="Layer_1" xmlns="http://www.w3.org/2000/svg" xmlns:xlink="http://www.w3.org/1999/xlink" x="0px" y="0px"
	 viewBox="0 0 64 64" style="enable-background:new 0 0 64 64;" xml:space="preserve">
<style type="text/css">
	.st0{fill:#01303F;}
	.st1{fill:#02577A;}
</style>
<path class="st0" d="M40.7,20.5l2,0l5.6-5.6l0.3-2.4C44.2,8.7,38.4,6.3,32,6.3c-11.5,0-21.3,7.9-24.2,18.5c0.6-0.4,1.9-0.1,1.9-0.1
	l11.1-1.8c0,0,0.6-0.9,0.9-0.9c2.6-2.9,6.4-4.5,10.3-4.5C35.3,17.4,38.3,18.5,40.7,20.5L40.7,20.5z"/>
<path class="st1" d="M56.2,24.8c-1.3-4.8-4-9-7.6-12.2l-7.9,7.9c3.2,2.5,5.2,6.5,5.2,10.8v1.4c3.8,0,7,3.1,7,7c0,3.8-3.1,7-7,7H32
	L30.6,48v8.3l1.4,1.4h13.9c10,0,18.1-8.1,18.1-18.1C64,33.5,60.9,28,56.2,24.8L56.2,24.8z"/>
<path class="st0" d="M18.1,57.7H32V46.6H18.1c-1,0-2-0.2-2.9-0.6l-2,0.6l-5.6,5.6L7.2,54C10.3,56.4,14.1,57.7,18.1,57.7L18.1,57.7z"
	/>
<path class="st1" d="M18.1,21.6C8.1,21.6,0,29.7,0,39.7c0,5.9,2.8,11.1,7.2,14.4l8.1-8.1c-2.5-1.1-4.1-3.6-4.1-6.3c0-3.8,3.1-7,7-7
	c2.8,0,5.2,1.7,6.3,4.1l8.1-8.1C29.2,24.4,24,21.6,18.1,21.6L18.1,21.6z"/>
</svg>
