<?xml version="1.0" encoding="utf-8"?>
<!-- Generator: Adobe Illustrator 25.0.1, SVG Export Plug-In . SVG Version: 6.00 Build 0)  -->
<svg version="1.1" id="Capa_1" xmlns="http://www.w3.org/2000/svg" xmlns:xlink="http://www.w3.org/1999/xlink" x="0px" y="0px"
	 viewBox="0 0 27.2 27.2" style="enable-background:new 0 0 27.2 27.2;" xml:space="preserve">
<style type="text/css">
	.st0{fill:#01303F;}
</style>
<g>
	<path class="st0" d="M1.6,0c0,0.1,0,0.2,0,0.4c0.1,1.2,0.2,2.3,0.3,3.5C2,5.4,2.2,6.8,2.3,8.3c0.1,1.2,0.2,2.5,0.3,3.7
		c0.1,1.4,0.2,2.8,0.4,4.2c0.1,1.2,0.2,2.5,0.3,3.7c0.1,1.5,0.3,3,0.4,4.5c0,0.1,0,0.1,0.1,0.2c3.2,0.9,6.4,1.8,9.5,2.7
		c0.1,0,0.2,0,0.3,0c3.2-0.9,6.4-1.8,9.6-2.7c0.1,0,0.1-0.1,0.1-0.2c0.1-0.8,0.1-1.7,0.2-2.5c0.1-0.9,0.2-1.8,0.2-2.8
		c0.1-0.8,0.1-1.6,0.2-2.5s0.2-1.8,0.2-2.8c0.1-0.8,0.1-1.6,0.2-2.5s0.2-1.8,0.2-2.8C24.9,7.7,24.9,6.9,25,6s0.2-1.8,0.2-2.8
		c0.1-0.8,0.1-1.7,0.2-2.5c0-0.3,0-0.5,0.1-0.8C17.6,0,9.6,0,1.6,0z M20.8,8C17,8,13.2,8,9.4,8c0.1,1,0.1,2,0.2,3
		c3.6,0,7.3,0,10.9,0c0,0.2-0.1,0.4-0.1,0.6c-0.1,0.5-0.1,1-0.1,1.6c-0.1,0.9-0.2,1.9-0.2,2.8c-0.1,0.8-0.1,1.7-0.2,2.5
		c0,0.5-0.1,1.1-0.1,1.6c0,0.1-0.1,0.1-0.1,0.1c-1.3,0.4-2.6,0.7-3.9,1.1c-0.7,0.2-1.4,0.4-2.1,0.6h-0.1c-2-0.6-4-1.1-6-1.7
		c-0.1,0-0.1-0.1-0.1-0.1c-0.1-0.6-0.1-1.3-0.2-1.9c-0.1-0.9-0.1-1.7-0.2-2.6c0,0,0,0,0-0.1c1,0,2,0,3,0c0,0.3,0.1,0.6,0.1,0.8
		c0,0.5,0.1,1,0.1,1.5c0,0.1,0,0.1,0.1,0.1c1.1,0.3,2.1,0.6,3.2,0.9h0.1c1.1-0.3,2.1-0.6,3.2-0.9c0.1,0,0.1,0,0.1-0.1
		c0.1-1.3,0.2-2.5,0.4-3.8l0,0c-3.5,0-6.9,0-10.4,0c-0.4-3-0.7-6-0.9-9c5,0,10,0,15.1,0C21,6,20.9,7,20.8,8z"/>
</g>
</svg>
