<?xml version="1.0" encoding="utf-8"?>
<!-- Generator: Adobe Illustrator 25.0.1, SVG Export Plug-In . SVG Version: 6.00 Build 0)  -->
<svg version="1.1" id="Layer_1" xmlns="http://www.w3.org/2000/svg" xmlns:xlink="http://www.w3.org/1999/xlink" x="0px" y="0px"
	 viewBox="0 0 455 455" style="enable-background:new 0 0 455 455;" xml:space="preserve">
<style type="text/css">
	.st0{fill-rule:evenodd;clip-rule:evenodd;fill:#01303F;}
</style>
<g>
	<path class="st0" d="M186.2,153.5c-3.5,14.3-25.1,96.5-25.1,96.5h52.8c0,0-23.5-82.3-27-96.5H186.2z"/>
	<path class="st0" d="M0,0v455h455V0H0z M240,351.6l-18.4-61.1h-68.2l-17.1,61.1H80.5l72.9-238.3H224l73.9,238.3H240z M372.8,351.6
		H319V178.8h53.8L372.8,351.6L372.8,351.6z M345.5,157.5c-16.9,0-28.3-12.1-27.9-26.9c-0.4-15.6,11-27.2,28.4-27.2
		c17.4,0,28.2,11.7,28.6,27.2C374.5,145.4,363.3,157.5,345.5,157.5z"/>
</g>
</svg>
