<?xml version="1.0" encoding="utf-8"?>
<!-- Generator: Adobe Illustrator 24.0.1, SVG Export Plug-In . SVG Version: 6.00 Build 0)  -->
<svg version="1.1" id="Layer_1" xmlns="http://www.w3.org/2000/svg" xmlns:xlink="http://www.w3.org/1999/xlink" x="0px" y="0px"
	 viewBox="0 0 100 94" style="enable-background:new 0 0 100 94;" xml:space="preserve">
<style type="text/css">
	.st0{fill:#01303F;}
</style>
<g transform="matrix(.945094 0 0 .945094 6.301403 4.347014)">
	<path class="st0" d="M15.7,11.5C9.3,20.6,10.1,32.4,15,42l0.4,0.7l0.2,0.4c0,0.1,0.1,0.2,0.1,0.2c0.1,0.2,0.2,0.3,0.2,0.4l0.5,0.8
		l0.3,0.4l0.5,0.8l0.2,0.4c0.2,0.4,0.5,0.7,0.8,1.1c0,0,0,0,0,0c0,0.1,0.1,0.1,0.1,0.2c0.2,0.3,0.5,0.6,0.7,0.9l0.3,0.3l0.7,0.8
		l0.3,0.3c0.3,0.4,0.6,0.7,0.9,1l0,0c0,0,0,0,0,0c0.3,0.3,0.6,0.7,0.9,1l0.3,0.3l0.7,0.7l0.3,0.3c0.3,0.3,0.7,0.6,1,0.9l0.2,0.2
		l0.9,0.8l0.4,0.3l0.8,0.6l0.4,0.3l1.2,0.8c0,0,0.1,0,0.1,0.1c0.3,0.2,0.6,0.4,0.8,0.6l0.4,0.2l1.3,0.8l0.4,0.2l1,0.5
		c0.2,0.1,0.4,0.2,0.5,0.3l0.7,0.4l0.2,0.1l0.3,0.1l1.1,0.5l0.2,0.1c0.4,0.2,0.9,0.4,1.3,0.5l0.3,0.1l1.2,0.5l0.2,0.1
		c0.5,0.2,0.9,0.3,1.4,0.4l0.3,0.1c0.5,0.1,0.9,0.3,1.4,0.4c31,5.6,40-18.3,40-18.3c-7.6,9.7-21,12.3-33.7,9.4
		c-0.5-0.1-0.9-0.3-1.4-0.4l-0.4-0.1c-0.5-0.1-0.9-0.3-1.4-0.4l-0.2-0.1c-0.4-0.1-0.8-0.3-1.2-0.4l-0.3-0.1
		c-0.4-0.2-0.9-0.3-1.3-0.5l-0.3-0.1l-1.1-0.5l-0.3-0.2c-0.3-0.1-0.6-0.3-0.8-0.4l-0.6-0.3c-0.3-0.2-0.7-0.4-1-0.6l-0.3-0.2
		c-0.4-0.3-0.9-0.5-1.3-0.8c-0.1-0.1-0.2-0.2-0.4-0.2l-0.9-0.6l-0.3-0.2l-0.9-0.6l-0.4-0.3l-0.8-0.6l-0.4-0.3l-1-0.8
		c0,0-0.1-0.1-0.1-0.1c-0.4-0.3-0.7-0.6-1.1-0.9l-0.3-0.3l-0.8-0.7l-0.3-0.3c-0.3-0.3-0.6-0.6-0.9-1c0,0,0,0,0,0
		c-0.3-0.3-0.6-0.7-0.9-1.1l-0.2-0.3l-0.7-0.8l-0.2-0.3l-0.8-1c-7.1-9.5-9.6-22.6-4-33.3 M35.6,3.9c-4.6,6.6-4.4,15.4-0.8,22.3
		c0.6,1.2,1.3,2.3,2.1,3.4c0.7,1,1.5,2.1,2.4,2.9c0.3,0.4,0.7,0.7,1,1.1c0.1,0.1,0.2,0.2,0.3,0.3c0.3,0.3,0.7,0.7,1.1,1c0,0,0,0,0,0
		c0.4,0.4,0.8,0.7,1.3,1l0.3,0.2c0.4,0.3,0.9,0.6,1.3,0.9c0,0,0,0,0,0c0.2,0.1,0.4,0.3,0.6,0.4c0.1,0.1,0.2,0.1,0.3,0.2
		c0.3,0.2,0.6,0.4,1,0.6l0.1,0.1l0.8,0.5c0.1,0.1,0.2,0.1,0.3,0.2l0.6,0.3c0,0,0.1,0,0.1,0c0.4,0.2,0.8,0.4,1.2,0.6
		c0.1,0,0.2,0.1,0.3,0.1c0.3,0.1,0.7,0.3,1,0.4l0.4,0.2c0.3,0.1,0.6,0.2,0.9,0.3l0.4,0.1c0.4,0.1,0.9,0.3,1.4,0.4
		C78,45.2,83.6,27.1,83.6,27.1c-5,7.1-14.6,10.4-24.9,7.8c-0.5-0.1-0.9-0.2-1.4-0.4c-0.1,0-0.3-0.1-0.4-0.1
		c-0.3-0.1-0.6-0.2-0.9-0.3l-0.4-0.2c-0.3-0.1-0.7-0.3-1-0.4c-0.1,0-0.2-0.1-0.3-0.1c-0.4-0.2-0.8-0.4-1.3-0.6
		c-0.2-0.1-0.4-0.2-0.6-0.3L52,32.3c-0.3-0.1-0.5-0.3-0.8-0.4L51,31.7c-0.3-0.2-0.6-0.4-1-0.6c-0.1-0.1-0.2-0.1-0.3-0.2l-0.6-0.4
		c-0.4-0.3-0.9-0.6-1.3-0.9l-0.3-0.2c-4.5-3.5-8.1-8.3-9.8-13.7C36,10.1,36.4,3.7,39.5-1.4 M52.4-1.8c-2.7,4-3,8.9-1.1,13.2
		c2,4.6,6.1,8.3,10.9,10c0.2,0.1,0.4,0.1,0.6,0.2l0.3,0.1c0.3,0.1,0.6,0.2,0.9,0.2c13.2,2.5,16.8-6.7,17.8-8
		c-3.1,4.5-8.4,5.5-14.9,4c-0.5-0.1-1.1-0.3-1.6-0.5c-0.6-0.2-1.3-0.5-1.9-0.8c-1.2-0.5-2.2-1.2-3.3-2c-5.8-4.3-9.4-12.6-5.6-19.3"
		/>
	<g>
		<path class="st0" d="M23.6,77.3l-0.8,2.9L23.6,77.3L23.6,77.3z M27.9,83.6l-0.9,0L27.9,83.6z M27.7,87.9l-5.6,0L27.7,87.9z
			 M28.8,83.6l-0.9,0L28.8,83.6z M28.2,87.6l1-3.6L28.2,87.6z M48.7,71.1l-1.8,8.2L48.7,71.1z M44.1,71.1l-1.4,6.1L44.1,71.1z"/>
		<path class="st0" d="M48.4,70.7h-3.9c-0.2,0-0.4,0.2-0.5,0.4l-2.7,12.3c0,0.2-0.3,0.4-0.5,0.4h-2.7c-2.7,0-2.4-1.8-1.8-4.3l0-0.1
			l0.3-1.7l0.1-0.7l1.3-5.9c0-0.2-0.1-0.4-0.3-0.4h-4c-0.2,0-0.4,0.2-0.5,0.4l-1.8,8.2c-1,4.3-0.7,8.5,4.6,8.6l0.2,0h8.4
			c0.2,0,0.4-0.2,0.5-0.4l3.6-16.4C48.8,70.9,48.6,70.7,48.4,70.7L48.4,70.7z M63.8,83.8c0.2,0,0.3,0.2,0.3,0.4l-0.4,1.8 M63.4,87.7
			l0.4-1.8L63.4,87.7z M62.9,88.1l-7.1,0L62.9,88.1z"/>
		<path class="st0" d="M53.5,81.5c0-0.2,0.2-0.5,0.4-0.5l-0.5,0C53.2,83.1,53.5,81.5,53.5,81.5z M56.1,88.1L56.1,88.1L56.1,88.1z
			 M63.8,83.8c0.2,0,0.3,0.2,0.3,0.4l-0.4,2.1 M58,88.1L58,88.1L58,88.1z M57,88.1L57,88.1L57,88.1z M56.7,88.1L56.7,88.1L56.7,88.1
			z M56.5,88.1L56.5,88.1L56.5,88.1z M57,88.1h-0.2H57z"/>
		<path class="st0" d="M58,88.1l-0.9,0C57,88.1,58,88.1,58,88.1z M62.9,88.1l-5,0L62.9,88.1z M63.4,87.7l0.3-1.5L63.4,87.7
			L63.4,87.7z M56.6,88.1h-0.2H56.6L56.6,88.1z M56.1,88.1h-0.3H56.1z M56.4,88.1h-0.2H56.4z M-0.3,81.5l0.6-2.6l-0.7,2.9l-0.1,0.4
			L-0.3,81.5L-0.3,81.5z M6.9,70.6H2.7c-0.2,0-0.4,0.2-0.5,0.4l-0.8,3.4c0,0.2,0,0.3,0.2,0.4c0,0,0.1,0,0.1,0H6
			c0.2,0,0.4-0.2,0.5-0.4L7.2,71C7.3,70.8,7.1,70.6,6.9,70.6L6.9,70.6z M6,76.4l-1.3,5.6L6,76.4z M-6.4,94.8l3.5,0
			C-3.9,94.9-5.6,94.8-6.4,94.8L-6.4,94.8z"/>
		<path class="st0" d="M0.9,76.4l-0.6,2.6L0.9,76.4z M5.7,76H1.4c-0.2,0-0.4,0.2-0.5,0.4l-1.2,5.2l-0.2,0.7l-1.1,5.3
			c-0.1,0.2-0.1,0.5-0.2,0.7c0,0-0.8,2.3-2.1,2.3l-1.3,0c-0.2,0-0.4,0.2-0.5,0.4l-0.9,3.6c0,0.2,0,0.3,0.2,0.4c0,0,0.1,0,0.1,0
			l3.5,0c3.4,0,5.1-1.8,6.3-7L6,76.4C6,76.2,5.9,76,5.7,76L5.7,76z M66.6,87.9c-0.2,0-0.3-0.2-0.3-0.4l3.2-14.6 M71,87.5l1.3-6.2
			L71,87.5z"/>
		<path class="st0" d="M66.3,87.7c0-0.1,0-0.4,0-0.6l1.5-6.9l-1.6,7.3c0,0.2,0.1,0.4,0.3,0.4H67C66.7,87.9,66.3,87.8,66.3,87.7z
			 M70.8,87.8c-0.1,0-0.4,0.1-0.6,0.1h0.4c0.2,0,0.4-0.2,0.5-0.4l0.1-0.4C71.1,87.3,70.9,87.7,70.8,87.8L70.8,87.8z M71.7,84.4
			l0.6-2.7L71.7,84.4z M84.4,73.9l0.2,0.7c0,0.2-0.1,0.4-0.3,0.4"/>
		<path class="st0" d="M71.1,87.1l0.6-2.7L71.1,87.1z M84.2,73.2l0.2,0.7L84.2,73.2z M72.3,81.6l0.2-0.7l0.6-2.8l-0.7,3.2L72.3,81.6
			L72.3,81.6z M69.5,72.7l-0.1,0.6l-1.5,6.9l1.6-7.3L69.5,72.7L69.5,72.7z"/>
		<path class="st0" d="M84.6,74.6l-0.2-0.7l-0.3-1.1c-0.3-1.3-1.4-2.1-3.6-2.1l-10.2,0c-0.2,0-0.4,0.2-0.5,0.4l-0.2,0.7l-0.2,1.1
			l-3.1,14.2c0,0.2-0.1,0.4,0,0.6c0,0.1,0.4,0.2,0.7,0.2h3.2c0.2,0,0.5,0,0.6-0.1c0.1,0,0.3-0.4,0.3-0.7l1.2-5.9l1.3-5.9
			c0-0.2,0.3-0.4,0.5-0.4l10.2,0C84.5,75,84.7,74.8,84.6,74.6L84.6,74.6z M97.7,68.2l-0.8,0h-3.3c-0.2,0-0.5,0.1-0.6,0.3l-7.2,10.2
			c-0.1,0.2-0.3,0.1-0.3-0.1L85,76.4c-0.1-0.2-0.3-0.4-0.5-0.4h-4.6c-0.2,0-0.3,0.2-0.3,0.4l2.1,7c0.1,0.2,0.1,0.5,0,0.7l-0.9,3.4
			c-0.1,0.1,0,0.3,0.2,0.4c0,0,0.1,0,0.1,0h4.6c0.2,0,0.4-0.2,0.5-0.4l0.9-3.4c0.1-0.2,0.2-0.5,0.3-0.7l11.7-15
			c0.1-0.2,0.1-0.3-0.2-0.3L97.7,68.2L97.7,68.2z M60.9,77c0,0.2-0.2,0.4-0.5,0.4h-5.9c-0.2,0-0.3-0.1-0.3-0.3l0,0l0-0.1
			c0.6-1.4,1.7-2.4,3.8-2.4C60.6,74.6,61.1,75.7,60.9,77L60.9,77z M59.2,70.4c-7.5,0-9.3,4.4-10.3,8.9c-1,4.5-0.9,8.8,6.9,8.8H57
			l1,0l5,0c0.2,0,0.4-0.2,0.5-0.4l0.8-3.6c0-0.2-0.1-0.4-0.3-0.4h-7c-2.8,0-3.6-0.7-3.3-2.8h11.2c0.2,0,0.3-0.1,0.4-0.3
			c0,0,0-0.1,0-0.1C66.8,74.5,66.3,70.4,59.2,70.4L59.2,70.4z M23.7,76.9l-0.1,0.4c0,0-0.8,2.9-0.8,2.9l-0.8,2.9
			c-0.1,0.2-0.3,0.4-0.5,0.4h-4.5c-3.4,0-4.2-2.6-3.4-6.3c0.8-3.9,2.4-6.3,5.8-6.5C23.8,70.3,24.8,73.4,23.7,76.9L23.7,76.9z
			 M26.7,83.2c0,0,2.1-4.9,2.6-7.8c0.7-3.8-1.3-9.4-9-9.4c-7.6,0-10.9,5.3-12.2,11.1C6.9,82.9,8.5,88,16.1,88l11.6,0
			c0.2,0,0.4-0.2,0.5-0.4l1-3.6c0.1-0.1,0-0.3-0.2-0.4c0,0-0.1,0-0.1,0l-1.9,0C26.8,83.6,26.7,83.5,26.7,83.2
			C26.7,83.3,26.7,83.3,26.7,83.2L26.7,83.2z"/>
		<path class="st0" d="M64.4,79.9c0,0.1-0.1,0.2-0.3,0.2c-0.1,0-0.3-0.1-0.3-0.2s0.1-0.2,0.3-0.2C64.3,79.7,64.4,79.8,64.4,79.9z"/>
	</g>
</g>
</svg>
