<?xml version="1.0" encoding="utf-8"?>
<!-- Generator: Adobe Illustrator 24.0.1, SVG Export Plug-In . SVG Version: 6.00 Build 0)  -->
<svg version="1.1" id="Layer_1" xmlns="http://www.w3.org/2000/svg" xmlns:xlink="http://www.w3.org/1999/xlink" x="0px" y="0px"
	 viewBox="0 0 455 455" style="enable-background:new 0 0 455 455;" xml:space="preserve">
<style type="text/css">
	.st0{fill-rule:evenodd;clip-rule:evenodd;fill:#01303F;}
	.st1{fill:#EFF0F4;}
</style>
<rect x="-1" y="-0.1" class="st0" width="456" height="456"/>
<g>
	<g>
		<polygon class="st1" points="236.8,303.2 236.8,296.5 154.7,296.5 154.7,104.9 95,104.9 95,347.9 236.8,347.9 		"/>
		<path class="st1" d="M260.7,347.9h53.8v-87.7c0-4.3,0.4-8.6,1-12c3.6-16.6,17-27.3,37-27.3c6.1,0,10.5,0.7,14.4,1.6v-50.7
			c-3.9-0.7-6.4-0.7-11.4-0.7c-16.6,0-37.9,10.7-46.8,35.8h-1.4l-1.8-32h-46.4c0.7,15,1.4,31.6,1.4,57.1L260.7,347.9L260.7,347.9z"
			/>
	</g>
</g>
</svg>
