<?xml version="1.0" encoding="utf-8"?>
<!-- Generator: Adobe Illustrator 25.0.1, SVG Export Plug-In . SVG Version: 6.00 Build 0)  -->
<svg version="1.1" id="Layer_1" xmlns="http://www.w3.org/2000/svg" xmlns:xlink="http://www.w3.org/1999/xlink" x="0px" y="0px"
	 viewBox="0 0 455 455" style="enable-background:new 0 0 455 455;" xml:space="preserve">
<style type="text/css">
	.st0{fill-rule:evenodd;clip-rule:evenodd;fill:#01303F;}
</style>
<g>
	<path class="st0" d="M149.3,144.8c-11.1,0-18.7,1.1-22.5,2.2v71.7c4.7,1,10.4,1.4,18.3,1.4c29.2,0,47.3-14.8,47.3-39.7
		C192.2,158.1,176.8,144.8,149.3,144.8z"/>
	<path class="st0" d="M0,0v455h455V0H0z M224.2,236.7c-18.6,17.6-46.4,25.5-78.8,25.5c-7.1,0-13.7-0.3-18.7-1V348H72.4V108.4
		c16.9-2.8,40.6-5,74.1-5c33.9,0,58,6.4,74.2,19.5c15.6,12.2,26,32.4,26,56.2C246.6,202.8,238.8,223,224.2,236.7z M306.3,351.6
		c-23,0-43.6-5-56.9-12.3l9.7-39.2c10.1,6.1,30.9,13.3,47.2,13.3c16.5,0,23.4-5.8,23.4-14.8c0-9-5.4-13.3-25.9-20.2
		c-36.5-12.2-50.5-32-50.1-53c0-32.8,28.1-57.6,71.7-57.6c20.6,0,38.9,4.7,49.8,10.1l-9.7,37.8c-8-4.3-23-10.1-38.2-10.1
		c-13.3,0-20.8,5.4-20.8,14.4c0,8.3,6.8,12.6,28.3,20.2c33.5,11.4,47.6,28.4,47.9,54.3C382.6,327.5,356.6,351.6,306.3,351.6z"/>
</g>
</svg>
