<?xml version="1.0" encoding="utf-8"?>
<!-- Generator: Adobe Illustrator 24.0.1, SVG Export Plug-In . SVG Version: 6.00 Build 0)  -->
<svg version="1.1" id="Layer_1" xmlns="http://www.w3.org/2000/svg" xmlns:xlink="http://www.w3.org/1999/xlink" x="0px" y="0px"
	 viewBox="0 0 32 32" style="enable-background:new 0 0 32 32;" xml:space="preserve">
<style type="text/css">
	.st0{fill:#01303F;}
</style>
<g>
	<title  id="title3510">Official PHP Logo</title>
	<g id="g3438_1_" transform="matrix(1.25,0,0,-1.25,-4.4,394.29875)">
		<g id="g3476_1_">
			<g>
				<g>
					<g>
						<g>
							<g id="g3478_1_">
								<g id="g3484_1_" transform="translate(161.7344,145.3066)">
									<path id="path3486_1_" class="st0" d="M-154.1,154.4c0.8,0,1.4,0.1,1.8,0.5c0.4,0.4,0.6,1.1,0.8,2c0.1,0.8,0.1,1.5-0.1,1.7
										c-0.3,0.3-0.8,0.5-1.4,0.5h-1.3l-0.8-4.8L-154.1,154.4L-154.1,154.4z M-158.1,148.4c0,0-0.1,0-0.1,0.1c0,0,0,0.1,0,0.3
										l1.9,12.9c0,0.1,0.1,0.3,0.3,0.3h4c1.3,0,2.1-0.4,2.8-1.3c0.6-0.9,0.8-2.2,0.5-3.8c-0.1-0.7-0.3-1.2-0.5-1.7
										c-0.3-0.5-0.5-1.1-0.9-1.5c-0.4-0.5-0.9-0.9-1.4-1.2c-0.5-0.3-1.1-0.4-2-0.4h-1.6l-0.5-3.2c0-0.1-0.1-0.3-0.3-0.3
										L-158.1,148.4L-158.1,148.4z"/>
								</g>
								<g id="g3492_1_" transform="translate(311.583,116.3066)">
									<path id="path3494_1_" class="st0" d="M-294.2,180.9c0,0-0.1,0-0.1,0.1c0,0,0,0.1,0,0.3l0.8,5.8c0.1,0.5,0,0.9,0,1.1
										c-0.1,0.1-0.3,0.3-0.9,0.3h-1.5l-1-7.1c0-0.1-0.1-0.3-0.3-0.3h-2c0,0-0.1,0-0.1,0.1c0,0,0,0.1,0,0.3l1.9,12.9
										c0,0.1,0.1,0.3,0.3,0.3h2c0,0,0.1,0,0.1-0.1c0,0,0-0.1,0-0.3l-0.5-3.1h1.6c1.3,0,2-0.3,2.5-0.9c0.5-0.7,0.6-1.6,0.5-3
										l-0.9-6c0-0.1-0.1-0.3-0.3-0.3L-294.2,180.9L-294.2,180.9z"/>
								</g>
								<g id="g3496_1_" transform="translate(293.6611,271.0571)">
									<path id="path3498_1_" class="st0" d="M-277.4,39.2l-0.5-3.5h1.9c1.1,0,1.9-0.3,2.4-0.8c0.4-0.5,0.6-1.5,0.4-2.7l-0.9-6
										h-2.1l0.8,5.8c0.1,0.7,0,1.1-0.1,1.3c-0.1,0.3-0.5,0.4-1,0.4h-1.6l-1-7.4h-2l1.9,12.9L-277.4,39.2"/>
								</g>
								<g id="g3500_1_" transform="translate(409.5498,145.3066)">
									<path id="path3502_1_" class="st0" d="M-385.8,154.4c0.8,0,1.4,0.1,1.8,0.5c0.4,0.4,0.6,1.1,0.8,2c0.1,0.8,0.1,1.5-0.1,1.7
										c-0.3,0.3-0.8,0.5-1.4,0.5h-1.3l-0.8-4.8L-385.8,154.4L-385.8,154.4z M-389.8,148.4c0,0-0.1,0-0.1,0.1c0,0,0,0.1,0,0.3
										l1.9,12.9c0,0.1,0.1,0.3,0.3,0.3h4c1.3,0,2.1-0.4,2.8-1.3c0.6-0.9,0.8-2.2,0.5-3.8c-0.1-0.7-0.3-1.2-0.5-1.7
										c-0.3-0.5-0.5-1.1-0.9-1.5c-0.4-0.5-0.9-0.9-1.4-1.2c-0.5-0.3-1.1-0.4-2-0.4h-1.6l-0.5-3.2c0-0.1-0.1-0.3-0.3-0.3
										L-389.8,148.4L-389.8,148.4z"/>
								</g>
							</g>
						</g>
					</g>
				</g>
			</g>
		</g>
	</g>
</g>
</svg>
