<?xml version="1.0" encoding="utf-8"?>
<!-- Generator: Adobe Illustrator 25.0.1, SVG Export Plug-In . SVG Version: 6.00 Build 0)  -->
<svg version="1.1" xmlns="http://www.w3.org/2000/svg" xmlns:xlink="http://www.w3.org/1999/xlink" x="0px" y="0px"
	 viewBox="0 0 24 24" style="enable-background:new 0 0 24 24;" xml:space="preserve">
<style type="text/css">
	.st0{fill-rule:evenodd;clip-rule:evenodd;fill:#01303F;}
	.st1{fill-rule:evenodd;clip-rule:evenodd;fill:#FFFFFF;}
</style>
<g id="Layer_2">
	<rect x="0" y="-0.1" class="st0" width="24.2" height="24.1"/>
</g>
<g id="Layer_1">
	<path class="st1" d="M6.9,19.1H4.4V5c0.9-0.2,2.2-0.3,4-0.3c1.9,0,3.3,0.4,4.2,1.2C13.4,6.5,14,7.7,14,9c0,1.4-0.4,2.5-1.2,3.3
		c-1,1-2.7,1.5-4.5,1.5c-0.5,0-0.9,0-1.3-0.1V19.1z M8.5,6.7c-0.7,0-1.2,0.1-1.5,0.1v4.8c0.3,0.1,0.7,0.1,1.3,0.1c2,0,3.1-1,3.1-2.6
		C11.4,7.5,10.3,6.7,8.5,6.7z M17.6,19.1H15v-7c0-1.4,0-2.4-0.1-3.3h2.3l0.1,2h0.1c0.5-1.5,1.7-2.2,2.8-2.2c0.3,0,0.4,0,0.6,0.1V11
		c-0.2,0-0.4-0.1-0.8-0.1c-1.3,0-2.1,0.8-2.3,2c0,0.2-0.1,0.5-0.1,0.8V19.1z"/>
</g>
</svg>
