<?xml version="1.0" encoding="utf-8"?>
<!-- Generator: Adobe Illustrator 25.0.1, SVG Export Plug-In . SVG Version: 6.00 Build 0)  -->
<svg version="1.1" id="Layer_1" xmlns="http://www.w3.org/2000/svg" xmlns:xlink="http://www.w3.org/1999/xlink" x="0px" y="0px"
	 viewBox="0 0 24 24" style="enable-background:new 0 0 24 24;" xml:space="preserve">
<style type="text/css">
	.st0{fill:#01303F;}
</style>
<g>
	<path id="svg_1" class="st0" d="M11.6,1C5.2,1,0,6.2,0,12.6c0,1.3,0.2,2.5,0.6,3.6l0,0c0.1-0.6,0.3-1.2,0.5-1.8l0,0
		c0.1-0.2,0.2-0.4,0.3-0.7l0.1-0.2c0.1-0.2,0.2-0.3,0.3-0.5c0-0.1,0.1-0.1,0.1-0.2c0,0,0-0.1,0.1-0.1c0.1-0.2,0.2-0.3,0.3-0.5
		l0.1-0.1c0.1-0.2,0.3-0.4,0.4-0.6l0-0.1c0.1-0.2,0.3-0.4,0.5-0.6l0.1-0.1c0.2-0.2,0.3-0.4,0.5-0.5l0.1-0.1C4,10,4.2,9.8,4.4,9.7
		c0.7-2.5,3-4.3,5.7-4.3c1.1,0,2.2,0.3,3.1,0.9c0.9,0.6,1.7,1.4,2.2,2.4l0,0l0,0.1v0l0,0C16,9.1,16.5,9.5,17,10c0,0,0.1,0.1,0.1,0.1
		c0,0,0,0,0,0l0,0l0,0v0l0-0.1c0.4-2.4,1.4-4.1,2.7-4.1c0.9,0,1.8,1,2.3,2.5l0,0l0,0c0.1,0.2,0.3,0.3,0.4,0.5l0,0l0,0.1l0-0.1
		C21,4.3,16.6,1,11.6,1C11.6,1,11.6,1,11.6,1z M9.9,5.5c-2.3,0-4.6,1.7-5.4,3.9l0,0C5,9.1,5.4,8.8,5.9,8.5c2.8-1.7,6.5-1.6,9.3,0
		c-0.9-1.7-2.6-2.8-4.5-3C10.4,5.5,10.2,5.5,9.9,5.5z M19.8,6c-0.1,0-0.3,0-0.4,0.1c-1.3,0.6-1.7,2.1-2,3.3l0,0.1
		c0.4-0.6,0.8-1.2,1.4-1.6c0.8-0.7,2.1-0.7,2.9,0.1c0.3,0.3,0.1,0,0-0.2C21.3,6.9,20.6,6,19.8,6L19.8,6z M12.4,8.3l-1.1,3.3l0,0l0,0
		l-4.5,1.1h0l4.5,1.1c0.1,0.1,0.2,0.2,0.4,0.3h0c0,0,0.1,0,0.1,0.1l0,0c0,0,0.1,0,0.1,0l0,0c0,0,0.1,0,0.1,0l0,0c0.1,0,0.2,0,0.3,0
		c0.6,0,1.2-0.4,1.4-0.9c0.1-0.2,0.1-0.4,0.1-0.6v0l0,0c0-0.1,0-0.1,0-0.2l0,0c0-0.1,0-0.1,0-0.2l0,0c0-0.1-0.1-0.2-0.1-0.3v0
		c-0.1-0.2-0.2-0.4-0.3-0.5v0C13.4,11.6,12.4,8.3,12.4,8.3z M15.5,8.9c0,1,0,2-0.1,3.1c-0.2,2-1.2,3.8-2,5.6l0,0.1l0,0.1
		c1.5-1.5,3.2-3,4-5.1c0.4-0.6,0.1-1.3-0.1-2C17,9.8,16.1,9.4,15.5,8.9z M21.7,9.5l-0.6,2.7c0,0.1,0,0.1,0,0.2c0,0,0,0,0,0.1
		c0,0.1,0,0.1,0,0.2l0,0h0c0,0.6,0.3,1.1,0.7,1.1c0.1,0,0.1,0,0.2,0l0,0c0,0,0,0,0.1,0c0,0,0,0,0,0c0.1,0,0.1-0.1,0.1-0.2l0-0.1
		c0,0,0-0.1,0.1-0.1l0,0c0-0.1,0-0.1,0.1-0.2l0,0l0,0l0.4-0.5l-0.4-0.5v0l0-0.1C22.3,12.2,21.7,9.5,21.7,9.5z M17.3,10.4
		c0.7,1.7,0.9,3.7,0.1,5.4c-0.5,1.4-1.6,2.5-1.9,3.9c0.7,0.1,1.5,0.2,2.2,0.2c2.2,0,4.3-0.4,6.3-1.4C22,15.7,19.9,12.8,17.3,10.4z
		 M12.3,11.3c0.3,0,0.6,0.3,0.6,0.6s-0.3,0.6-0.6,0.6l0,0c-0.3,0-0.6-0.3-0.6-0.6S12,11.3,12.3,11.3z M21.7,11.7
		c0.1,0,0.2,0.2,0.2,0.4s-0.1,0.4-0.2,0.4c-0.1,0-0.2-0.2-0.2-0.4C21.4,11.9,21.6,11.7,21.7,11.7z M17.6,11.9c0,0.1,0,0.2,0,0.3l0,0
		c0,0.1,0,0.1,0,0.1c-0.5,1.4-1.3,2.5-2.4,3.7c-0.1,0.2-0.3,0.3-0.5,0.5c-0.4,0.4-0.8,0.8-1.2,1.2c-0.1,0.1-0.3,0.3-0.4,0.4
		c-0.1,0.3-0.2,0.6-0.3,1c0,0-0.1,0-0.1,0c-2.1-0.8-3.5-1.9-3.5-1.9s1.1,1.4,2.9,2.7c0.2,0.1,0.4,0.2,0.5,0.3
		c-0.1,1.2,0.5,2.3,2.8,2.7c0.4,0.1,0.8,0.1,1.2,0l0,0c0,0,0,0,0,0c0,0-0.2-0.1-0.4-0.4c-0.2-0.3-0.4-0.6-0.6-0.9
		c-0.1-0.3-0.2-0.6-0.3-0.9c-0.1-0.3-0.1-0.6,0-1c0-0.1,0-0.2,0.1-0.4c0.1-0.4,0.3-0.8,0.5-1.2l0,0l0.2-0.4c1.1-1.9,1.8-3.3,1.5-5.4
		C17.7,12.2,17.7,12.1,17.6,11.9C17.6,11.9,17.6,11.9,17.6,11.9z M22.3,12.5L22.3,12.5L22.3,12.5z M22.3,12.7L22.3,12.7L22.3,12.7
		C22.3,12.7,22.3,12.8,22.3,12.7C22.3,12.7,22.3,12.7,22.3,12.7C22.3,12.7,22.3,12.7,22.3,12.7L22.3,12.7z M22.3,13L22.3,13L22.3,13
		L22.3,13C22.3,13,22.3,13,22.3,13z M23.7,18.9c-2.6,1.1-5.4,1.4-8.2,1c-0.1,1.1,0.4,2.2,1.2,2.9l0,0C19.4,22.4,21.7,20.7,23.7,18.9
		C23.7,18.9,23.7,18.9,23.7,18.9z"/>
</g>
</svg>
