<?xml version="1.0" encoding="utf-8"?>
<!-- Generator: Adobe Illustrator 25.0.1, SVG Export Plug-In . SVG Version: 6.00 Build 0)  -->
<svg version="1.1" id="svg" xmlns="http://www.w3.org/2000/svg" xmlns:xlink="http://www.w3.org/1999/xlink" x="0px" y="0px"
	 viewBox="0 0 400 341.3" style="enable-background:new 0 0 400 341.3;" xml:space="preserve">
<style type="text/css">
	.st0{fill-rule:evenodd;clip-rule:evenodd;fill:#01303F;}
</style>
<g id="svgg">
	<path id="path0" class="st0" d="M17.4,254.4c-8.7,1.6-13.7,5.5-16.3,12.7l-0.9,2.6v10.4v10.4l1.1,2.9c3.7,10.1,8.8,12.6,26.2,12.9
		c15.7,0.2,15.7,0.3,15.9,8.9c0.2,6.6-0.4,8-4,9.7c-1.9,0.9-17.5,0.8-33.7-0.2l-3.1-0.2l0.1,6.5c0,3.6,0.1,6.6,0.1,6.7
		c0,1.6,18.7,3.6,31.3,3.5c14.5-0.2,20.3-2.7,24.1-10.4c3.8-7.9,3.6-24.6-0.5-31.9c-4.2-7.5-8.5-9.1-25-9.4
		c-15.5-0.3-15.9-0.6-15.4-11.3c0.4-8.4,1.1-8.8,16.7-8.5c10.2,0.2,21.4,0.7,22.9,1l0.7,0.2v-6.8v-6.8l-3.2-0.7
		C43.9,254.4,24.2,253.2,17.4,254.4 M259.6,255.9c-1.6,0.6-1.7,1.3-1.7,8.1v6.3l1,1l1,1h7.3c7.3,0,7.3,0,8.3-0.8l0.9-0.8l0.1-5.8
		c0.1-6.9-0.1-8.1-1.7-8.8C273.4,255.5,260.9,255.4,259.6,255.9 M91.9,277.8c-15.6,0.8-21,7.1-22.2,25.8
		c-1.2,18.9,2.4,31.6,10.3,35.3c6.7,3.2,29.8,3,41.1-0.4l2-0.6l0.1-5.8l0.1-5.8l-1.9,0.2c-6.9,0.7-10.5,0.9-19,0.8
		c-13.2-0.1-14.9-1-15.4-8.5l-0.2-2.5l12.3-0.1c13.9-0.1,15.4-0.3,19-2.5c4.8-2.9,5.9-5.7,5.9-14.7C124,281,117.1,276.4,91.9,277.8
		 M163.8,277.9c-3.7,0.9-8,3.2-11.6,6.2l-1.8,1.5l-1.3-3.8l-1.3-3.8h-7.3h-7.3v31.1v31.1h8.6h8.6v-19.9v-19.9l1.7-1.7
		c3.7-3.7,6.9-4.6,16.4-4.5l6.9,0.1v-8.1v-8.1l-0.7-0.2C173.4,277.5,165.8,277.4,163.8,277.9 M301.8,277.8
		c-11,1.8-16.5,12.2-16.5,31.5c0,15.9,4.1,26.5,11.8,30c7.4,3.4,29.8,2.4,38.2-1.6l1.2-0.6v-5.4v-5.4l-2.9,0.2
		c-29.8,2.3-31,1.6-31-16.8c0-12.9,1.5-17.2,6.4-18.3c1.9-0.4,14.9-0.3,23.1,0.2l3.4,0.2v-5.4v-5.4l-1.9-0.5
		C325.2,278.3,308.1,276.8,301.8,277.8 M367.7,277.8c-17.4,0.9-22.6,9-22.1,34c0.4,19.2,4.5,26.8,15.6,28.9
		c6.4,1.2,28.8-0.2,35.6-2.2l2-0.6l0.1-5.8l0.1-5.8l-2.2,0.2c-6.8,0.7-8.9,0.8-17.1,0.8c-14.3,0-16.1-0.8-16.8-8.2l-0.3-2.8
		l12.6-0.1c13.8-0.2,14.5-0.2,18.4-2.3c4.8-2.5,6.2-5.7,6.4-13.9C400.3,281.1,393.4,276.4,367.7,277.8 M184.9,278.8
		c0.1,0.4,0.8,2.4,1.5,4.5c0.8,2.1,1.9,5.2,2.5,7c2,5.7,3,8.4,4.3,12.2c0.7,2.1,1.6,4.6,2,5.5c0.3,1,1.4,3.8,2.3,6.4
		c0.9,2.5,1.9,5.4,2.3,6.4c0.3,1,1.2,3.5,2,5.5c0.7,2.1,1.8,5.1,2.4,6.8c0.6,1.7,1.4,4,1.8,5.1l0.7,2h9.5h9.5l0.7-1.9
		c0.4-1,1.3-3.5,2-5.5c0.7-2,1.7-4.5,2.1-5.7c0.4-1.2,1.3-3.5,1.9-5.2c0.6-1.7,1.7-4.5,2.3-6.2c0.6-1.7,1.6-4.3,2.2-5.9
		c0.6-1.5,1.5-4.2,2.2-5.9c0.6-1.7,1.6-4.4,2.2-6c0.6-1.6,1.6-4.4,2.3-6.2c2.6-6.9,3.1-8.2,4-10.9c0.6-1.5,1-2.8,1-2.9
		c0,0-4.1-0.1-9.1-0.1h-9.1l-7,21.1l-7,21.1l-1.7-5.3c-0.9-2.9-2.2-6.8-2.8-8.6c-0.6-1.8-2.1-6.3-3.3-10.1
		c-1.2-3.8-2.6-8.3-3.2-10.1c-0.6-1.8-1.4-4.3-1.8-5.6l-0.8-2.4h-9.1h-9.1L184.9,278.8 M258.5,309.2v31.1h8.5h8.5v-31.1v-31.1H267
		h-8.5V309.2 M104.9,291.6c1.6,1.2,2.2,2.8,2.2,6.6l0,3.3l-1.1,1.1l-1.1,1.1l-9.1,0.1l-9.1,0.1l0.2-3.4c0.4-6.1,1.7-8.6,5.1-9.4
		C94.4,290.5,103.9,290.9,104.9,291.6 M380.7,291.6c1.5,0.8,2.1,2.4,2.3,5.9c0.3,6.2,0,6.4-11.6,6.4h-8.5l0-2.5
		c0-6.2,1.7-9.5,5.1-10.2C370.4,290.6,379.5,290.9,380.7,291.6"/>
	<path id="path1" class="st0" d="M180.3,0.4c-1.3,0.3-6.8,0.8-15.3,1.5c-1.3,0.1-2.5,0.3-2.6,0.4c-0.1,0.1-2.6,0.6-5.5,1
		c-3,0.4-5.5,0.9-5.7,1c-0.2,0.1-2.5,0.6-5.1,1c-2.6,0.4-4.8,0.9-4.9,1c-0.1,0.1-1.8,0.5-3.7,0.9c-2,0.4-4,0.9-4.6,1.2
		c-0.5,0.2-1.9,0.6-3.1,0.8c-1.2,0.2-2.2,0.5-2.3,0.6c-0.1,0.1-1.6,0.6-3.3,1c-1.7,0.4-3.2,0.9-3.4,1c-0.2,0.1-1.6,0.6-3.1,1
		c-1.5,0.4-2.8,0.9-2.9,1s-1,0.5-2.2,0.8l-2.1,0.6v12.6c0,11,0.1,12.6,0.5,12.6c0.3,0,0.5-0.1,0.5-0.3c0-0.2,1.1-0.6,2.4-1
		c1.3-0.4,2.5-0.9,2.7-1c0.2-0.1,1.2-0.5,2.3-0.8c1.1-0.3,2.2-0.7,2.6-1c0.4-0.2,1.7-0.7,2.9-1c1.3-0.3,2.4-0.7,2.4-0.8
		c0.2-0.2,5.5-1.6,6.3-1.6c0.3,0,0.5-0.1,0.5-0.3c0-0.2,0.3-0.4,0.7-0.5c0.4-0.1,1.9-0.4,3.3-0.7c1.4-0.3,2.7-0.7,2.8-0.8
		c0.2-0.2,5-1.3,12.4-2.7c2.1-0.4,4-0.8,4.2-0.9c0.8-0.3,9.9-1.6,11.4-1.6c0.7,0,1.4-0.1,1.5-0.3c1.3-2.1,58.8-2.1,60,0
		c0.1,0.2,0.8,0.3,1.5,0.3c1.8,0,10.8,1.3,11.6,1.6c0.4,0.2,2.2,0.5,4,0.8c1.9,0.3,3.8,0.7,4.4,0.8c0.6,0.2,2.5,0.6,4.4,1
		c1.9,0.4,3.5,0.8,3.6,0.9c0.1,0.1,1.4,0.5,2.9,0.8c1.5,0.3,3.2,0.8,3.7,1c0.5,0.2,2.3,0.8,3.9,1.1c1.6,0.4,3.1,0.8,3.3,1
		c0.2,0.1,1.5,0.6,2.9,1c1.4,0.4,2.7,0.8,2.8,0.9c0.1,0.1,1.1,0.5,2.3,0.9c5.5,1.9,7,2.4,7.3,2.7c0.2,0.2,0.4,0.3,0.6,0.3
		c0.1,0,0.3-5.7,0.3-12.7V15.1l-2-0.6c-1.1-0.3-2.1-0.7-2.2-0.8c-0.1-0.1-1.4-0.6-2.9-1c-1.5-0.4-2.8-0.8-2.9-1
		c-0.1-0.1-1.6-0.6-3.4-1c-1.8-0.4-3.3-0.9-3.4-1c-0.1-0.1-1.3-0.5-2.8-0.8c-1.4-0.3-2.8-0.7-2.9-0.8c-0.2-0.1-1.9-0.6-3.9-1
		c-2-0.4-3.8-0.8-4.1-1c-0.3-0.1-2.6-0.6-5.1-1c-2.5-0.4-4.6-0.8-4.7-1c-0.1-0.1-2.6-0.6-5.5-1s-5.6-0.9-5.9-1
		c-0.3-0.2-4.2-0.6-8.7-1c-4.5-0.4-8.9-0.8-9.7-1C217.2-0.1,182.2,0,180.3,0.4 M151.9,56c-2.5,0.2-7.9,1.1-8.3,1.4
		c-0.2,0.1-1.1,0.5-2,0.7c-1.7,0.4-7.1,2.6-7.3,3c-0.1,0.1-0.8,0.5-1.6,0.9c-0.8,0.4-1.5,0.8-1.6,1c-0.1,0.1-0.7,0.6-1.5,1
		c-0.7,0.4-1.5,1-1.8,1.3c-0.3,0.3-1.2,1-1.9,1.6c-1.5,1.2-2.5,2.3-6.4,6.7c-0.3,0.4-0.8,1.1-1,1.5c-0.3,0.5-0.6,0.9-0.7,0.9
		c-0.2,0-0.2,0.1-0.1,0.3c0.1,0.2,0.1,0.3-0.1,0.3c-0.2,0-0.6,0.6-0.9,1.3c-0.3,0.7-0.7,1.3-0.9,1.3s-0.3,0.1-0.3,0.3
		c0,0.2-0.5,1.4-1.1,2.7s-1.4,3.3-1.7,4.5c-0.3,1.2-0.7,2.3-0.8,2.4c-1.7,2.1-1.7,66.2,0,70.1c0.2,0.4,0.4,1.6,0.5,2.8
		c0.3,3.6,1.2,8.9,1.5,9.6c0.2,0.4,0.6,2.2,1,4.1s0.8,3.5,0.9,3.6c0.1,0.1,0.6,1.4,1,2.9c0.4,1.5,0.9,2.8,1,2.9c0.1,0.1,0.5,1,0.8,2
		c0.3,1,0.7,1.9,0.8,1.9s0.2,0.2,0.1,0.5c-0.1,0.3,0,0.5,0.2,0.5s0.5,0.6,0.7,1.3c0.2,0.7,0.5,1.5,0.8,1.7c0.2,0.2,0.8,1.3,1.2,2.3
		c0.4,1,0.9,1.9,1,1.9c0.1,0,0.6,0.8,1,1.8c0.4,1,0.9,1.8,1.1,1.8c0.2,0,0.3,0.1,0.3,0.3c0,0.3,1.5,2.8,3.5,5.9
		c0.6,0.9,1.1,1.7,1.1,1.9c0,0.2,0.2,0.4,0.4,0.6c0.2,0.1,0.8,0.9,1.3,1.8c0.5,0.8,1.2,1.8,1.5,2.1c0.4,0.3,0.6,0.7,0.6,0.8
		c0,0.1,0.3,0.6,0.6,1c0.4,0.4,1.8,2.2,3.1,3.9c5.6,7,13.4,14.8,20.2,20c0.7,0.5,1.6,1.3,2.1,1.7c0.5,0.4,0.9,0.7,1.1,0.7
		s0.6,0.3,1.1,0.8c0.5,0.4,1.3,1,1.8,1.4c1.4,0.9,6.7,4.5,7.1,4.8c0.4,0.4,2.6,1.6,4.6,2.7c0.9,0.5,1.7,1,1.8,1.1
		c0.1,0.1,0.9,0.6,1.8,0.9c0.9,0.4,1.7,0.8,1.8,1c0.2,0.3,6.3,3.3,6.8,3.3c0.2,0,0.4,0.1,0.4,0.3c0,0.2,0.6,0.5,1.2,0.7
		c0.7,0.2,1.7,0.7,2.4,1c3.5,1.8,5.4,2.3,8.7,2.2c3-0.1,7.2-1.2,7.5-1.9c0.1-0.1,1-0.6,2.1-1c1.1-0.4,2.1-0.9,2.2-1
		c0.1-0.2,0.8-0.5,1.6-0.8c0.8-0.3,3-1.4,4.9-2.4c1.9-1,3.6-1.9,3.8-1.9c0.2,0,0.4-0.1,0.4-0.3c0-0.2,0.7-0.6,1.5-1
		c0.9-0.4,1.6-0.8,1.7-0.9c0.1-0.1,0.8-0.6,1.5-1c0.7-0.4,1.4-0.9,1.5-1s0.8-0.5,1.5-0.9c1.4-0.8,3.3-2,4.1-2.7
		c0.3-0.2,0.9-0.7,1.5-1.1c0.5-0.3,1.1-0.7,1.1-0.8c0.1-0.1,0.7-0.5,1.3-1c0.6-0.4,1.5-1.1,2-1.5c0.4-0.4,0.9-0.7,1-0.7
		c0.1,0,0.6-0.4,1.2-0.9c0.5-0.5,1.5-1.3,2.1-1.8c4.1-3.4,10.1-9.3,13.9-13.5c1-1.2,2.1-2.4,2.5-2.7c0.3-0.3,0.5-0.6,0.4-0.6
		c-0.1,0,0.2-0.4,0.6-0.8c0.4-0.4,1-1.1,1.3-1.5c0.7-0.9,2.7-3.4,3.5-4.4c0.3-0.4,1-1.3,1.4-2c0.4-0.7,1-1.5,1.3-1.9
		c0.3-0.3,0.6-0.8,0.6-1s0.3-0.6,0.6-0.9s0.9-1.2,1.3-2c0.4-0.8,0.9-1.5,1-1.7c0.2-0.1,0.5-0.7,0.8-1.2c0.3-0.6,1-1.9,1.6-3
		c0.6-1.1,1.5-2.8,2-3.7c0.5-1,1-1.9,1.1-2c0.1-0.1,0.5-0.9,0.8-1.9c0.3-0.9,0.7-1.8,0.9-1.9c0.2-0.1,0.2-0.3,0.1-0.5
		c-0.1-0.2-0.1-0.3,0.1-0.3c0.2,0,0.6-0.8,0.9-1.9c0.3-1,0.7-1.9,0.8-2c0.3-0.2,1.6-4.5,1.6-5.1c0-0.2,0.1-0.4,0.3-0.4
		c0.1,0,0.6-1.7,1-3.7c0.4-2,0.9-3.8,1-4c0.1-0.2,0.6-2.7,1-5.5c0.4-2.9,0.8-5.5,1-5.9c0.9-2.2,1.1-11.1,1.2-57.5l0.1-47.7
		l-68.1,0.1C184,55.8,152.7,55.9,151.9,56 M269.1,104.6v25l-2-1.3c-2.6-1.7-5.9-3.6-7.4-4.1c-0.7-0.2-1.2-0.5-1.2-0.6
		c0-0.1-1.1-0.5-2.4-0.8c-1.3-0.3-2.9-0.8-3.5-1c-2.6-1-7.2-1.1-52.6-1.1c-43.5,0-49.5-0.1-50.5-0.9c-0.2-0.2-0.9-0.5-1.7-0.7
		c-1.4-0.4-4.4-2.1-5.1-2.7c-0.2-0.2-0.8-0.7-1.3-1.1c-1.2-0.9-4.1-4.6-4.1-5.2c0-0.2-0.2-0.6-0.5-0.9c-0.6-0.6-1.5-3.3-1.7-5.2
		c-0.1-0.9-0.3-1.6-0.5-1.7c-0.4-0.2-0.4-4,0-4.2c0.2-0.1,0.4-0.9,0.5-1.9c0.2-1.8,1.1-4.9,1.5-5.1c0.1-0.1,0.5-0.7,0.8-1.3
		c0.7-1.3,0.9-1.6,3-3.7c2.2-2.3,3.2-3,4.5-3.5c0.6-0.2,1.1-0.5,1.1-0.7c0-0.3,4.1-1.6,5.1-1.6c0.4,0,0.9-0.1,1-0.3
		c0.1-0.2,20-0.3,58.6-0.3h58.4V104.6 M132.1,137.8c0.6,0.3,1.3,0.7,1.5,0.9c0.3,0.2,1.1,0.7,2,1c0.8,0.3,1.5,0.7,1.6,0.8
		c0.1,0.1,1.3,0.6,2.8,1c1.4,0.4,2.7,0.9,2.8,1c0.9,1.3,4.4,1.4,53.6,1.5c30.2,0.1,47.4,0.2,47.6,0.4c0.2,0.2,0.8,0.3,1.5,0.3
		c5.2,0,13.1,5.7,15.2,11.1c0.3,0.6,0.7,1.6,0.9,2.1c1.5,3.3,1.3,12.4-0.4,14.1c-0.2,0.2-0.4,0.6-0.4,0.8c0,0.6-0.9,2.3-1.5,2.8
		c-0.3,0.2-0.5,0.6-0.5,0.8c0,1.2-6.1,6-8.9,6.9c-0.9,0.3-1.8,0.7-1.9,0.8c-0.6,0.8-7,0.9-56.5,0.9h-51.6l-0.6-1.5
		c-0.3-0.9-0.7-1.6-0.8-1.7s-0.6-1.2-1-2.4c-0.4-1.3-0.9-2.4-1-2.4c-0.1-0.1-0.5-1.4-0.9-2.9c-0.4-1.5-0.9-3.1-1-3.4
		c-0.4-0.8-1.2-4.6-1.5-7.2c-0.1-1.1-0.3-2.1-0.5-2.3c-0.6-0.8-2.2-24-1.7-24C131,137.2,131.6,137.5,132.1,137.8 M243.5,209.8
		c-0.4,0.5-2.6,2.7-4.9,5c-3.9,3.9-5.2,5.1-7.9,7.4c-0.7,0.5-1.6,1.3-2.1,1.7c-0.5,0.4-1.3,1-1.8,1.3c-0.5,0.3-0.9,0.6-0.9,0.8
		s-0.4,0.5-0.9,0.7s-1.1,0.7-1.4,0.9c-0.2,0.2-1.5,1.2-2.9,2c-1.3,0.9-2.5,1.7-2.6,1.8s-0.8,0.5-1.6,0.9c-0.8,0.4-1.5,0.8-1.6,1
		c-0.4,0.5-8.8,4.9-9.8,5.1c-0.6,0.1-1.3,0.4-1.6,0.6c-0.6,0.5-5.9,0.5-6.9,0c-0.4-0.2-1.6-0.6-2.5-0.9c-0.9-0.3-1.8-0.7-1.9-0.8
		c-0.1-0.2-0.9-0.6-1.8-1c-0.9-0.4-1.6-0.8-1.6-0.9s-0.6-0.5-1.3-0.8c-0.7-0.3-1.5-0.7-1.7-0.9s-1.1-0.8-2-1.2
		c-0.9-0.4-1.5-0.9-1.5-1c0-0.2-0.6-0.5-1.3-0.9c-0.7-0.3-1.4-0.8-1.5-1c-0.1-0.2-0.7-0.7-1.2-1c-2-1.2-3.7-2.5-4.3-3
		c-0.3-0.3-1.1-0.9-1.7-1.4c-4.8-3.7-16-14.2-16-15.1c0-0.1,19.8-0.2,44.1-0.2h44.1L243.5,209.8"/>
</g>
</svg>
