<?xml version="1.0" encoding="utf-8"?>
<!-- Generator: Adobe Illustrator 25.0.1, SVG Export Plug-In . SVG Version: 6.00 Build 0)  -->
<svg version="1.1"
	 id="Layer_1" xmlns:cc="http://creativecommons.org/ns#" xmlns:dc="http://purl.org/dc/elements/1.1/" xmlns:rdf="http://www.w3.org/1999/02/22-rdf-syntax-ns#"
	 xmlns="http://www.w3.org/2000/svg" xmlns:xlink="http://www.w3.org/1999/xlink" x="0px" y="0px" viewBox="0 0 70 70"
	 style="enable-background:new 0 0 70 70;" xml:space="preserve">
<style type="text/css">
	.st0{fill:#01303F;}
</style>
<path class="st0" d="M30.8,70c-6.6-0.5-13-2.1-17-4.3c-2.3-1.3-4-2.8-4.7-4.2l-0.4-0.8V34.9V9.2l0.3-0.6c1.4-2.9,6-5.5,12.3-7.1
	c2.2-0.5,5.3-1.1,7.8-1.3c2.6-0.3,9.4-0.2,12,0.1c6.9,0.8,12.7,2.6,16.3,5c1.4,0.9,2.8,2.4,3.3,3.5l0.4,0.9l0,25.6l0,25.6l-0.3,0.7
	c-0.2,0.4-0.7,1.1-1.2,1.6c-3,3.2-9.4,5.5-17.8,6.5C40.1,69.9,32.6,70.1,30.8,70L30.8,70z M42.9,47.9c0-0.1-1-0.9-2.2-1.9
	s-2.2-1.9-2.2-1.9s0.2-0.3,0.5-0.5c0.3-0.2,1-0.7,1.4-1.2c1.3-1.3,1.9-3,1.9-5.2c0-2.1-0.7-3.9-2-5.2c-1.3-1.3-2.8-1.9-5-1.9
	c-3.4,0-6,2-6.8,5.2c-0.3,1.1-0.3,3.3,0,4.3c0.7,2.6,2.8,4.4,5.3,4.8c0.9,0.1,1,0.2,1.6,0.9c0.3,0.4,1.1,1.1,1.6,1.7l1,1h2.5
	C41.8,48,42.9,48,42.9,47.9L42.9,47.9z M34.2,40.8c-0.6-0.3-0.8-0.6-1.2-1.3c-0.3-0.5-0.3-0.9-0.3-2.2c0-1.3,0-1.6,0.3-2.2
	c0.5-0.9,1.1-1.4,2.1-1.4c1.4-0.1,2.2,0.6,2.6,2.2c0.5,2-0.1,4.1-1.3,4.8C35.8,41.1,34.8,41.1,34.2,40.8L34.2,40.8z M23,44.5
	c2.7-0.5,4.2-2.1,4.2-4.3c0-2-1-3.1-3.7-4.3c-1.5-0.7-2.1-1.1-2.1-1.6c0-0.4,0.5-0.9,1.1-1c0.6-0.1,2.2,0.2,3.1,0.5l0.8,0.3v-1.8
	v-1.8l-0.9-0.2c-0.5-0.1-1.6-0.2-2.9-0.2c-1.8,0-2.2,0-2.8,0.3c-2,0.8-2.9,2.1-2.9,4.1c0,1.9,1,3.1,3.5,4.1c1.5,0.6,2.1,1.1,2.1,1.7
	c0,1.2-2,1.3-4.1,0.3c-0.6-0.3-1.1-0.5-1.2-0.6s-0.1,0.8-0.1,1.8c0,1.9,0,1.9,0.3,2C18.7,44.5,21.5,44.8,23,44.5z M53.4,42.8v-1.6
	H51h-2.4v-5.4v-5.4h-2.1h-2.1v7v7h4.5h4.5L53.4,42.8L53.4,42.8z M38.5,15c4.2-0.3,7.4-0.8,10.2-1.8c2.8-0.9,4.4-2.1,4.8-3.3
	c0.1-0.5,0.1-0.7-0.1-1.2C52.6,6.5,47.6,4.7,40,4c-3.2-0.3-9.1-0.2-12.2,0.2C23.1,4.8,19.3,6,17.6,7.4c-3.4,2.7,0.2,5.7,8.7,7.1
	C29.9,15.1,34.7,15.3,38.5,15L38.5,15z"/>
</svg>
