<?xml version="1.0" encoding="utf-8"?>
<!-- Generator: Adobe Illustrator 25.0.1, SVG Export Plug-In . SVG Version: 6.00 Build 0)  -->
<svg version="1.1" id="Layer_1" xmlns="http://www.w3.org/2000/svg" xmlns:xlink="http://www.w3.org/1999/xlink" x="0px" y="0px"
	 viewBox="0 0 150 150" style="enable-background:new 0 0 150 150;" xml:space="preserve">
<style type="text/css">
	.st0{fill:#01303F;}
	.st1{fill:#02577A;}
	.st2{fill:#00B6E5;}
	.st3{fill:#0072A2;}
	.st4{fill:#FFFFFF;}
</style>
<path class="st0" d="M76.2,0.9C43,0.9,16.1,27.8,16.1,61c0,33.2,26.9,60.1,60.1,60.1c33.2,0,60.1-26.9,60.1-60.1
	C136.3,27.8,109.4,0.9,76.2,0.9z"/>
<path class="st1" d="M76.2,61H32.8c0-10.9,3.6-21.5,13.7-31.7c6.7-7.1,16.2-10.7,29.8-11.8V61z"/>
<path class="st2" d="M76.2,61V17.6c10.9,0,21.5,3.6,31.7,13.7C115,38,118.6,47.5,119.7,61H76.2z"/>
<path class="st1" d="M76.2,61h43.5c0,10.9-3.6,21.5-13.7,31.7c-6.7,7.1-16.2,10.7-29.8,11.8V61z"/>
<path class="st2" d="M76.2,61v43.5c-10.9,0-21.5-3.6-31.7-13.7C37.5,84.1,33.9,74.6,32.8,61H76.2z"/>
<path class="st3" d="M76.2,43.4c-9.8,0-17.7,7.9-17.7,17.7c0,9.8,7.9,17.7,17.7,17.7c9.8,0,17.7-7.9,17.7-17.7
	C93.9,51.3,86,43.4,76.2,43.4z"/>
<path class="st4" d="M76.2,33.6C61,33.6,48.7,45.9,48.7,61c0,15.2,12.3,27.5,27.5,27.5c15.2,0,27.5-12.3,27.5-27.5
	C103.7,45.9,91.4,33.6,76.2,33.6z"/>
<path class="st0" d="M76.2,44c-9.4,0-17,7.6-17,17c0,9.4,7.6,17,17,17c9.4,0,17-7.6,17-17C93.2,51.7,85.6,44,76.2,44z"/>
<path class="st0" d="M81.4,145.6h-9.6c-0.8,0-1.4,0.6-1.4,1.4v0.2c0,0.8,0.6,1.4,1.4,1.4h9.6c0.8,0,1.4-0.6,1.4-1.4V147
	C82.8,146.2,82.2,145.6,81.4,145.6z"/>
<path class="st0" d="M125.2,145.6h-9.6c-0.8,0-1.4,0.6-1.4,1.4v0.2c0,0.8,0.6,1.4,1.4,1.4h9.6c0.8,0,1.4-0.6,1.4-1.4V147
	C126.6,146.2,126,145.6,125.2,145.6z"/>
<path class="st0" d="M119.5,132h-3.7c-0.8,0-1.4,0.6-1.4,1.4v0.2c0,0.8,0.6,1.4,1.4,1.4h3.7c0.8,0,1.4-0.6,1.4-1.4v-0.2
	C120.9,132.7,120.3,132,119.5,132z"/>
<path class="st0" d="M120,124.3h-0.1c-1.2,0-2.2,1-2.2,2.2v0.5c0,1.2,1,2.2,2.2,2.2h0.1c1.2,0,2.2-1,2.2-2.2v-0.5
	C122.3,125.3,121.3,124.3,120,124.3z"/>
<path class="st0" d="M76.5,126.3h-4.6c-0.8,0-1.4,0.6-1.4,1.4v0.2c0,0.8,0.6,1.4,1.4,1.4h4.6c0.8,0,1.4-0.6,1.4-1.4v-0.2
	C77.9,126.9,77.3,126.3,76.5,126.3z"/>
<path class="st0" d="M77.9,145.7v-19.4h-3.1v19.4c0,0.8,0.6,1.4,1.4,1.4h0.3C77.3,147.1,77.9,146.5,77.9,145.7z"/>
<path class="st0" d="M94,147v-20.7h-1.7c-0.7,0-1.3,0.6-1.3,1.3V147c0,0.8,0.7,1.5,1.5,1.5h0.1C93.3,148.5,94,147.8,94,147z"/>
<path class="st0" d="M121.9,147.2v-13.5c0-0.9-0.7-1.6-1.6-1.6h-1.4v15.1c0,0.8,0.6,1.4,1.4,1.4h0.3
	C121.3,148.6,121.9,148,121.9,147.2z"/>
<path class="st0" d="M99.7,131.8H99c-3.1,0-5.7,2.5-5.7,5.5v6.8c0,2.5,2.1,4.6,4.7,4.6h2.1c3.3,0,6-2.6,6-5.9v-4.7
	C106.1,134.6,103.2,131.8,99.7,131.8z M102.8,143.1c0,1.3-1.1,2.4-2.5,2.4h-1c-2.9,0-5.3-2.3-5.3-5.2c0-2.8,2.4-5.2,5.3-5.2h1
	c1.4,0,2.5,1.1,2.5,2.4L102.8,143.1L102.8,143.1z"/>
<path class="st0" d="M55.3,131.9H55c-4.2,0-7.7,3.4-7.7,7.5v2.9c0,3.8,3.2,7,7.1,7h1.3c3.9,0,7.1-3.1,7.1-7v-2.9
	C62.9,135.3,59.5,131.9,55.3,131.9z M59.6,141.9c0,2.4-2,4.3-4.4,4.3c-2.4,0-4.4-1.9-4.4-4.3v-2.3c0-2.4,2-4.3,4.4-4.3
	c2.4,0,4.4,1.9,4.4,4.3V141.9z"/>
<path class="st0" d="M33.5,131.4h-0.3c-4.2,0-7.7,3.4-7.7,7.5v2.9c0,3.8,3.2,7,7.1,7H34c3.9,0,7.1-3.1,7.1-7v-2.9
	C41.1,134.7,37.7,131.4,33.5,131.4z M37.8,141.4c0,2.4-2,4.3-4.4,4.3c-2.4,0-4.4-1.9-4.4-4.3v-2.3c0-2.4,2-4.3,4.4-4.3
	c2.4,0,4.4,1.9,4.4,4.3V141.4z"/>
<path class="st0" d="M18.1,144.4c0-0.7-0.6-1.3-1.3-1.3h-0.3c-0.6,0-1.1,0.4-1.3,1l0,0c0,0,0,0,0,0c0,0,0,0.1,0,0.1
	c-0.1,0.5-0.3,0.9-0.9,0.9h-3.5c-0.9,0-1.1-0.5-1.2-1.2v-9.7h5.8c0.9,0,1.6-0.7,1.6-1.6c0-0.9-0.7-1.6-1.6-1.6H9.7v-3.9
	c0-0.5-0.4-1-1-1H7.4c-0.6,0-1.2,0.5-1.2,1.2v3.7H4.8c-0.9,0-1.6,0.7-1.6,1.6c0,0.9,0.7,1.6,1.6,1.6h1.5v10.8c0,1.8,1.4,3.2,3.1,3.4
	c0,0,0.1,0,0.1,0h5.3c1.8,0,3.3-1.5,3.4-3.3c0,0,0,0,0,0L18.1,144.4L18.1,144.4z"/>
<path class="st0" d="M148.3,144.5c0-0.7-0.6-1.3-1.3-1.3h-0.3c-0.6,0-1.1,0.4-1.3,1l0,0c0,0,0,0,0,0c0,0,0,0.1,0,0.1
	c-0.1,0.5-0.3,0.9-0.9,0.9H141c-0.9,0-1.1-0.5-1.2-1.2v-9.7h5.8c0.9,0,1.6-0.7,1.6-1.6s-0.7-1.6-1.6-1.6h-5.8v-3.9c0-0.5-0.4-1-1-1
	h-1.2c-0.6,0-1.2,0.5-1.2,1.2v3.7h-1.5c-0.9,0-1.6,0.7-1.6,1.6s0.7,1.6,1.6,1.6h1.5v10.8c0,1.8,1.4,3.2,3.1,3.4c0,0,0.1,0,0.1,0h5.3
	c1.8,0,3.3-1.5,3.4-3.3c0,0,0,0,0,0V144.5z"/>
</svg>
