<?xml version="1.0" encoding="utf-8"?>
<!-- Generator: Adobe Illustrator 25.0.1, SVG Export Plug-In . SVG Version: 6.00 Build 0)  -->
<svg version="1.1" id="Layer_1" xmlns="http://www.w3.org/2000/svg" xmlns:xlink="http://www.w3.org/1999/xlink" x="0px" y="0px"
	 viewBox="0 0 256 256" style="enable-background:new 0 0 256 256;" xml:space="preserve">
<style type="text/css">
	.st0{fill:#01303F;}
	.st1{fill:#FFFFFF;}
</style>
<path class="st0" d="M23.8,51.5h208.4c13.2,0,23.9,10.7,23.9,23.9v79.5c0,13.2-10.7,23.9-23.9,23.9h-74.7l10.3,25.1l-45.1-25.1H23.9
	C10.7,178.8,0,168.1,0,154.9V75.4C-0.1,62.3,10.6,51.5,23.8,51.5z"/>
<path class="st1" d="M14.6,73.2c1.5-2,3.6-3,6.6-3.2c5.3-0.4,8.3,2.1,9.1,7.5c3.2,21.8,6.8,40.2,10.5,55.3l22.8-43.4
	c2.1-4,4.7-6,7.8-6.2c4.6-0.3,7.4,2.6,8.5,8.7c2.6,13.8,5.9,25.6,9.9,35.6C92.4,101,97,82,103.4,70.2c1.6-2.9,3.8-4.4,6.9-4.6
	c2.4-0.2,4.6,0.5,6.6,2.1c2,1.6,3,3.5,3.2,5.9c0.1,1.9-0.2,3.4-1,5c-4.1,7.5-7.4,20.1-10.1,37.6c-2.6,17-3.5,30.2-2.9,39.7
	c0.2,2.6-0.2,4.9-1.2,6.9c-1.2,2.3-3.1,3.5-5.5,3.7c-2.7,0.2-5.5-1-8.2-3.9c-9.7-9.9-17.4-24.7-23-44.3c-6.8,13.3-11.8,23.3-15,30
	c-6.1,11.8-11.3,17.8-15.7,18.1c-2.8,0.2-5.2-2.2-7.3-7.2c-5.3-13.6-11-40-17.2-79C12.5,77.5,13.1,75.1,14.6,73.2L14.6,73.2z
	 M238.2,89.6c-3.7-6.6-9.3-10.5-16.6-12.1c-2-0.4-3.9-0.6-5.6-0.6c-10,0-18.1,5.2-24.5,15.6c-5.4,8.8-8.1,18.6-8.1,29.3
	c0,8,1.7,14.9,5,20.6c3.7,6.6,9.3,10.5,16.6,12.1c2,0.4,3.9,0.6,5.6,0.6c10.1,0,18.2-5.2,24.5-15.6c5.4-8.9,8.1-18.7,8.1-29.4
	C243.3,102,241.5,95.2,238.2,89.6z M225.1,118.4c-1.5,6.9-4.1,12-7.9,15.4c-3,2.7-5.8,3.9-8.4,3.3c-2.5-0.5-4.6-2.7-6.1-6.8
	c-1.2-3.2-1.9-6.5-1.9-9.5c0-2.6,0.2-5.2,0.7-7.6c0.9-4.3,2.7-8.4,5.5-12.4c3.4-5.1,7.1-7.2,10.8-6.5c2.5,0.5,4.6,2.7,6.1,6.8
	c1.2,3.2,1.9,6.5,1.9,9.5C225.8,113.4,225.6,116,225.1,118.4L225.1,118.4z M173.1,89.6c-3.7-6.6-9.4-10.5-16.6-12.1
	c-2-0.4-3.9-0.6-5.6-0.6c-10,0-18.1,5.2-24.5,15.6c-5.4,8.8-8.1,18.6-8.1,29.3c0,8,1.7,14.9,5,20.6c3.7,6.6,9.3,10.5,16.6,12.1
	c2,0.4,3.9,0.6,5.6,0.6c10.1,0,18.2-5.2,24.5-15.6c5.4-8.9,8.1-18.7,8.1-29.4C178.1,102,176.4,95.2,173.1,89.6L173.1,89.6z
	 M159.9,118.4c-1.5,6.9-4.1,12-7.9,15.4c-3,2.7-5.8,3.9-8.4,3.3c-2.5-0.5-4.6-2.7-6.1-6.8c-1.2-3.2-1.9-6.5-1.9-9.5
	c0-2.6,0.2-5.2,0.7-7.6c0.9-4.3,2.7-8.4,5.5-12.4c3.4-5.1,7.1-7.2,10.8-6.5c2.5,0.5,4.6,2.7,6.1,6.8c1.2,3.2,1.9,6.5,1.9,9.5
	C160.7,113.4,160.4,116,159.9,118.4L159.9,118.4z"/>
</svg>
