<?xml version="1.0" encoding="utf-8"?>
<!-- Generator: Adobe Illustrator 25.0.1, SVG Export Plug-In . SVG Version: 6.00 Build 0)  -->
<svg version="1.1" id="Layer_1" xmlns="http://www.w3.org/2000/svg" xmlns:xlink="http://www.w3.org/1999/xlink" x="0px" y="0px"
	 viewBox="0 0 300 300" style="enable-background:new 0 0 300 300;" xml:space="preserve">
<style type="text/css">
	.st0{fill:#01303F;}
</style>
<g id="XMLID_21_">
	<path id="XMLID_4_" class="st0" d="M0,150c0,59.4,34.5,110.7,84.5,135L13,89C4.7,107.6,0,128.2,0,150z M251.3,142.4
		c0-18.5-6.7-31.4-12.4-41.4c-7.6-12.4-14.7-22.8-14.7-35.2c0-13.8,10.4-26.6,25.2-26.6c0.7,0,1.3,0.1,1.9,0.1
		C224.6,14.9,189,0,150,0C97.6,0,51.5,26.9,24.7,67.6c3.5,0.1,6.8,0.2,9.7,0.2c15.7,0,40-1.9,40-1.9c8.1-0.5,9,11.4,1,12.4
		c0,0-8.1,1-17.2,1.4l54.6,162.5l32.8-98.4l-23.4-64c-8.1-0.5-15.7-1.4-15.7-1.4c-8.1-0.5-7.1-12.8,0.9-12.4c0,0,24.8,1.9,39.5,1.9
		c15.7,0,40-1.9,40-1.9c8.1-0.5,9,11.4,1,12.4c0,0-8.1,1-17.2,1.4l54.2,161.2l15-50C247.4,171.4,251.3,155.3,251.3,142.4z
		 M152.6,163.1l-45,130.8c13.4,4,27.7,6.1,42.4,6.1c17.5,0,34.2-3,49.8-8.5c-0.4-0.6-0.8-1.3-1.1-2.1L152.6,163.1z M281.6,78
		c0.6,4.8,1,9.9,1,15.4c0,15.2-2.9,32.3-11.4,53.7l-45.8,132.5C270,253.6,300,205.3,300,150C300,123.9,293.3,99.4,281.6,78z"/>
</g>
</svg>
