<svg xmlns="http://www.w3.org/2000/svg" viewBox="0 0 216 288"><defs><style>.cls-1{fill:#fff;}.cls-2{fill:#231f20;}</style></defs><g id="Layer_2" data-name="Layer 2"><g id="Layer_12" data-name="Layer 12"><polygon class="cls-1" points="108 0 0 144 108 288 216 144 108 0"/><polygon class="cls-2" points="0 144 108 288 216 144 189 144 108 243 27 144 0 144"/><polygon class="cls-2" points="108 18 36 117 54 117 108 45 162 117 180 117 108 18"/><polygon class="cls-2" points="27 126 189 126 207 153 9 153 27 126"/><path class="cls-2" d="M108,1.67,214,143H2L108,1.67M108,0,0,144H216L108,0Z"/></g></g></svg>